<svg width="233" height="167" viewBox="0 0 233 167" fill="none" xmlns="http://www.w3.org/2000/svg">
<path d="M161.028 126.302C162.629 128.556 164.402 130.613 166.22 132.69C164.425 132.552 164.14 132.514 162.58 133.374C161.926 131.089 161.057 128.692 161.028 126.302Z" fill="#BC9D72"/>
<path d="M154.566 141.805C154.863 143.515 154.346 148.103 155.294 148.959C155.379 149.036 155.49 149.08 155.588 149.141C154.296 149.966 153.142 150.742 151.656 151.183C152.164 147.89 153.344 144.879 154.566 141.805Z" fill="#BC9E68"/>
<path d="M141.367 56.697C139.938 54.413 135.772 50.064 135.62 47.633C138.466 48.472 140.637 50.828 142.543 52.984L141.367 56.697Z" fill="#BC9D72"/>
<path d="M188.225 101.201C189.355 101.228 190.081 101.27 191.022 101.949C191.802 102.513 192.158 102.642 193.11 102.747C195.218 101.792 196.098 99.458 197.628 97.813C200.45 94.778 204.867 94.042 208.827 93.86C203.257 96.551 197.948 99.598 193.621 104.115C191.624 103.615 189.93 102.309 188.225 101.201Z" fill="#ECC0EF"/>
<path d="M92.8842 136.208C94.9212 138.071 97.0332 139.756 99.2402 141.414L99.4452 141.971C95.3972 142.496 92.6052 145.046 88.9702 145.763C89.6162 142.188 91.0402 139.317 92.8842 136.208Z" fill="#BC9E68"/>
<path d="M162.58 133.374C164.14 132.514 164.425 132.552 166.22 132.69C170.46 136.954 172.524 139.304 173.261 145.509C170.046 143.79 167.395 141.071 164.09 139.515C163.23 137.736 162.981 135.318 162.58 133.374Z" fill="#C3A561"/>
<path d="M103.849 140.806C105.252 140.224 105.836 139.849 107.374 140.096C108.5 141.676 108.413 142.91 108.1 144.77C107.752 146.838 107.251 148.839 106.654 150.847L105.882 152.599C104.304 150.92 102.845 150.108 100.73 149.342L100.41 148.886L100.808 146.888L99.5082 145.513L99.4382 144.074C99.6222 143.304 99.5283 142.744 99.4453 141.971L99.2402 141.414C100.778 140.776 102.22 140.816 103.849 140.806Z" fill="#C3A561"/>
<path d="M100.808 146.888L101.164 146.476C102.077 148.53 104.745 149.644 106.654 150.847L105.882 152.599C104.304 150.92 102.845 150.108 100.73 149.342L100.41 148.886L100.808 146.888Z" fill="#E3C79B"/>
<path d="M99.2402 141.414C100.778 140.776 102.22 140.816 103.849 140.806C101.687 142.738 101.35 143.51 101.164 146.476L100.808 146.888L99.5082 145.513L99.4382 144.074C99.6222 143.304 99.5283 142.744 99.4453 141.971L99.2402 141.414Z" fill="#E2C6AF"/>
<path d="M18.9211 52.078L18.5781 51.914C19.3311 51.136 20.1191 50.39 20.8961 49.635L24.9201 50.185L24.2931 52.031C26.5621 52.253 28.9281 52.358 31.1631 52.794C32.6771 53.113 34.2111 53.511 35.7451 53.705C34.9991 56.134 31.7031 59.091 30.3901 61.573C30.3621 61.627 30.3311 61.68 30.3021 61.734C26.7371 58.15 23.2751 54.723 18.9211 52.078Z" fill="#C3A561"/>
<path d="M18.9211 52.078L18.5781 51.914C19.3311 51.136 20.1191 50.39 20.8961 49.635L24.9201 50.185L24.2931 52.031L18.9211 52.078Z" fill="#E2C6AF"/>
<path d="M88.9702 145.763C92.6052 145.046 95.3972 142.496 99.4452 141.971C99.5282 142.744 99.6222 143.304 99.4382 144.074L99.5082 145.513L100.808 146.888L100.41 148.886L99.4342 149.251C98.7612 149.777 98.0972 150.353 97.3842 150.822L98.1692 151.996C95.6472 152.406 92.4262 152.773 90.7792 154.961C90.4932 154.222 89.8822 153.422 89.4622 152.736C89.1942 151.161 89.0972 149.646 89.0462 148.056L88.9702 145.763Z" fill="#BC9E68"/>
<path d="M99.5081 145.513L100.808 146.888L100.41 148.886L99.4341 149.251L99.5081 145.513Z" fill="#E3C6AE"/>
<path d="M89.4619 152.736C91.8009 151.856 94.8949 150.442 97.3839 150.822L98.1689 151.996C95.6469 152.406 92.4259 152.773 90.7789 154.961C90.4929 154.222 89.8819 153.422 89.4619 152.736Z" fill="#E3C79B"/>
<path d="M88.9702 145.763C92.6052 145.046 95.3972 142.496 99.4452 141.971C99.5282 142.744 99.6222 143.304 99.4382 144.074C95.1852 144.06 92.4262 145.644 89.0462 148.056L88.9702 145.763Z" fill="#E3C6AE"/>
<path d="M130.88 29.619C133.774 30.404 136.642 27.74 139.184 26.617L139.785 26.356L140.824 28.008C139.315 32.322 137.263 35.141 133.062 37.16C130.702 38.294 128.149 39.021 125.795 40.18C125.272 39.7 124.875 39.122 124.444 38.559C127.056 35.781 127.685 31.897 129.727 28.785C130.194 29.323 130.155 29.432 130.88 29.619Z" fill="#BC9E68"/>
<path d="M130.88 29.619C133.774 30.404 136.642 27.74 139.184 26.617L139.785 26.356L140.824 28.008C137.2 29.748 133.451 31.225 129.84 32.964L125.795 40.18C125.272 39.7 124.875 39.122 124.444 38.559C127.056 35.781 127.685 31.897 129.727 28.785C130.194 29.323 130.155 29.432 130.88 29.619Z" fill="#E3C79B"/>
<path d="M214.687 89.555C213.863 92.64 212.382 94.841 210.415 97.314C210.925 98.427 211.414 99.384 212.156 100.359L211.833 101.155L207.169 100.959C205.629 101.517 204.083 102.134 202.523 102.63C200.635 103.58 198.734 104.503 196.82 105.399C195.584 105.189 194.704 104.703 193.621 104.115C197.948 99.598 203.257 96.551 208.827 93.86C210.204 92.732 211.287 91.2 212.414 89.827C213.022 89.312 213.902 89.541 214.687 89.555Z" fill="#BC9E68"/>
<path d="M214.687 89.555C213.863 92.64 212.382 94.841 210.415 97.314C210.925 98.427 211.414 99.384 212.156 100.359L211.833 101.155L207.169 100.959C205.629 101.517 204.083 102.134 202.523 102.63L202.369 102.364C202.79 100.764 206.608 98.099 207.962 96.862C210.332 94.698 212.255 93.229 212.414 89.827C213.022 89.312 213.902 89.541 214.687 89.555Z" fill="#ECC0EF"/>
<path d="M100.41 148.886L100.73 149.342C102.845 150.108 104.304 150.92 105.882 152.599C104.32 155.822 100.681 160.147 97.2953 161.509C96.8893 161.672 96.8703 161.619 96.3453 161.648L94.1203 161.15L93.9803 161.416L93.4703 161.378C92.6683 159.189 91.7493 157.081 90.7793 154.961C92.4263 152.773 95.6473 152.406 98.1693 151.996L97.3843 150.822C98.0973 150.353 98.7613 149.777 99.4343 149.251L100.41 148.886Z" fill="#BC9E68"/>
<path d="M100.41 148.886L100.73 149.342C100.064 153.597 96.7171 157.949 96.3451 161.648L94.1201 161.15C96.1191 158.162 97.4421 155.53 98.1691 151.996L97.3841 150.822C98.0971 150.353 98.7611 149.777 99.4341 149.251L100.41 148.886Z" fill="#E3C6AE"/>
<path d="M90.7793 154.961C92.4263 152.773 95.6473 152.406 98.1693 151.996C97.4423 155.53 96.1193 158.162 94.1203 161.15L93.9803 161.416L93.4703 161.378C92.6683 159.189 91.7493 157.081 90.7793 154.961Z" fill="#BC9E68"/>
<path d="M116.359 20.598C120.675 23.254 125.598 23.903 129.762 26.358C129.958 27.258 129.878 27.899 129.727 28.785C127.685 31.897 127.056 35.781 124.444 38.559C122.246 31.277 116.328 29.409 116.359 20.598Z" fill="#BEA158"/>
<path d="M59.2474 113.899L59.4544 114.547L58.3104 116.158C51.6164 122.46 46.2604 129.429 42.1644 137.687C41.6764 138.69 40.8804 138.711 39.8614 139.097C39.9274 136.465 39.8434 133.878 39.6904 131.251L40.7244 129.311L40.2524 127.463C41.0864 124.432 47.3004 121.599 50.0144 119.898C53.2074 118.02 56.3074 116.165 59.2474 113.899Z" fill="#BC9E68"/>
<path d="M40.7244 129.311C41.3184 132.093 41.7584 134.873 42.1644 137.687C41.6764 138.69 40.8804 138.711 39.8614 139.097C39.9274 136.465 39.8434 133.878 39.6904 131.251L40.7244 129.311Z" fill="#E3C6AE"/>
<path d="M132.147 17.604C134.33 15.546 136.215 13.385 138.104 11.066C139.925 15.288 141.933 20.163 141.136 24.854C140.696 25.364 140.272 25.891 139.785 26.356L139.184 26.617C136.642 27.74 133.774 30.404 130.88 29.619C132.017 25.843 132.123 21.527 132.147 17.604Z" fill="#BEA158"/>
<path d="M38.9014 44.59L39.9204 44.924C45.2314 46.273 50.7084 47.638 53.7044 52.7C53.7574 52.789 53.8074 52.88 53.8584 52.97L53.7834 54.916C51.7954 55.782 49.6844 56.545 47.9614 57.889L46.2084 56.237L45.0734 56.155L43.7924 56.713L43.2444 58.393C42.0084 57.432 40.6034 56.584 39.3064 55.702L41.2684 54.64C41.7334 51.928 38.9644 47.806 38.9014 44.59Z" fill="#C3A561"/>
<path d="M46.208 56.237C48.69 54.548 50.967 53.704 53.858 52.97L53.783 54.916C51.795 55.782 49.684 56.545 47.961 57.889L46.208 56.237Z" fill="#ECC0EF"/>
<path d="M38.9014 44.59L39.9204 44.924C41.2884 48.937 42.5194 52.706 45.0734 56.155L43.7924 56.713L43.2444 58.393C42.0084 57.432 40.6034 56.584 39.3064 55.702L41.2684 54.64C41.7334 51.928 38.9644 47.806 38.9014 44.59Z" fill="#E2C6AF"/>
<path d="M20.896 49.635C26.913 45.5 31.793 44.466 38.901 44.59C38.964 47.806 41.733 51.928 41.268 54.64L37.558 53.153L35.745 53.705C34.211 53.511 32.677 53.113 31.163 52.794C28.928 52.358 26.562 52.253 24.293 52.031L24.92 50.185L20.896 49.635Z" fill="#C3A561"/>
<path d="M32.8241 51.134C34.3961 51.779 36.0581 52.358 37.5581 53.153L35.7451 53.705C34.2111 53.511 32.6771 53.113 31.1631 52.794L32.8241 51.134Z" fill="#E2C6AF"/>
<path d="M24.92 50.185C27.706 50.029 30.122 50.946 32.824 51.134L31.163 52.794C28.928 52.358 26.562 52.253 24.293 52.031L24.92 50.185Z" fill="#E3C6AE"/>
<path d="M157.535 125.533L157.518 124.575C158.822 124.58 159.71 125.284 160.832 125.903L161.028 126.302C161.057 128.692 161.926 131.089 162.58 133.374C162.981 135.318 163.23 137.736 164.09 139.515L162.581 140.915C162.812 142.84 163.286 143.984 162.33 145.705C160.15 146.998 157.797 147.87 155.588 149.141C155.49 149.08 155.379 149.036 155.294 148.959C154.346 148.103 154.863 143.515 154.566 141.805C156.727 136.711 157.282 131.01 157.535 125.533Z" fill="#C3A561"/>
<path d="M157.535 125.533L157.518 124.575C158.822 124.58 159.71 125.284 160.832 125.903L161.028 126.302C161.057 128.692 161.926 131.089 162.58 133.374C162.981 135.318 163.23 137.736 164.09 139.515L162.581 140.915C161.955 136.32 160.952 128.839 157.535 125.533Z" fill="#E3C79B"/>
<path d="M37.5578 53.153L41.2678 54.64L39.3058 55.702C40.6028 56.584 42.0078 57.432 43.2438 58.393L43.7917 56.713L45.0728 56.155L46.2077 56.237L47.9608 57.889C45.3418 60.806 45.2367 64.446 43.2767 66.863C41.5617 66.49 39.4988 66.812 37.7198 66.762C35.3898 65.548 33.3337 64.194 31.2377 62.612L30.3018 61.734C30.3308 61.68 30.3618 61.627 30.3898 61.573C31.7028 59.091 34.9988 56.134 35.7448 53.705L37.5578 53.153Z" fill="#C3A561"/>
<path d="M37.5578 53.153L41.2678 54.64L39.3058 55.702C35.5738 56.546 33.5727 59.852 31.2377 62.612L30.3018 61.734C30.3308 61.68 30.3618 61.627 30.3898 61.573C31.7028 59.091 34.9988 56.134 35.7448 53.705L37.5578 53.153Z" fill="#E2C6AF"/>
<path d="M46.2082 56.237L47.9612 57.889C45.3422 60.806 45.2372 64.446 43.2772 66.863C41.5622 66.49 39.4992 66.812 37.7202 66.762C41.4402 65.375 41.6732 61.66 43.2442 58.393L43.7922 56.713L45.0732 56.155L46.2082 56.237Z" fill="#ECC0EF"/>
<path d="M160.566 118.99C164.968 119.481 168.939 122.738 173.266 123.543L175.016 122.564L179.466 124.416L177.429 125.315C176.791 129.925 177.801 133.213 178.815 137.667L176.529 137.37C166.495 133.522 164.893 128.124 160.566 118.99Z" fill="#C3A561"/>
<path d="M175.016 122.564L179.466 124.416L177.429 125.315C176.791 129.925 177.801 133.213 178.815 137.667L176.529 137.37C176.891 136.563 175.707 126.74 175.352 125.459C175.006 124.213 174.321 124.127 173.266 123.543L175.016 122.564Z" fill="#E3C6AE"/>
<path d="M52.5302 132.764C55.1882 132.058 57.6952 130.972 60.2762 132.253C61.3692 134.26 60.8982 135.733 60.5302 137.906L59.9292 142.394L59.5032 144.208C55.0982 145.083 51.8212 146.436 48.7292 149.779L47.6782 148.425C46.4752 144.827 46.2732 140.725 47.8892 137.209C48.8622 135.093 50.3262 133.553 52.5302 132.764Z" fill="#BEA158"/>
<path d="M59.9287 142.394L59.5027 144.208C55.0977 145.083 51.8207 146.436 48.7287 149.779L47.6777 148.425C51.3747 144.782 54.7897 143.116 59.9287 142.394Z" fill="#E2C6AF"/>
<path d="M194.741 113.374C209.797 116.919 208.89 125.145 220.275 133.121C220.089 133.188 219.905 133.259 219.718 133.321C215.858 134.604 210.745 133.792 207.197 131.937C200.31 128.338 196.948 120.442 194.741 113.374Z" fill="#642B2C"/>
<path d="M60.019 117.954L60.953 117.839C62.065 119.613 62.262 122.056 62.63 124.103L63.344 122.063C64.952 124.456 67.06 126.683 69.414 128.36C69.509 129.398 69.518 130.266 69.36 131.298C70.426 135.953 68.785 139.074 66.891 143.257L66.233 145.42C65.691 143.898 65.068 142.096 64.196 140.742C63.527 139.702 63.226 139.406 62.058 139.12C61.501 138.782 61.025 138.328 60.53 137.906C60.898 135.733 61.369 134.26 60.276 132.253C57.695 130.972 55.188 132.058 52.53 132.764L51.814 130.838L52.533 130.108C56.073 126.396 58.53 122.902 60.019 117.954Z" fill="#BEA158"/>
<path d="M63.3439 122.063C64.9519 124.456 67.0599 126.683 69.4139 128.36C69.5089 129.398 69.5179 130.266 69.3599 131.298L64.5989 125.407C64.1179 127.827 63.7199 130.307 63.0889 132.69L62.0349 131.987L62.0029 131.075C62.3819 128.724 62.7439 126.492 62.6299 124.103L63.3439 122.063Z" fill="#E3C6AE"/>
<path d="M52.53 132.764L51.814 130.838L52.533 130.108C55.676 131.083 58.673 129.733 62.003 131.075L62.035 131.987L63.089 132.69L62.438 136.575C64.357 138.71 65.708 140.639 66.891 143.257L66.233 145.42C65.691 143.898 65.068 142.096 64.196 140.742C63.527 139.702 63.226 139.406 62.058 139.12C61.501 138.782 61.025 138.328 60.53 137.906C60.898 135.733 61.369 134.26 60.276 132.253C57.695 130.972 55.188 132.058 52.53 132.764Z" fill="#E3C79B"/>
<path d="M60.0192 117.954L60.9532 117.839C62.0652 119.613 62.2622 122.056 62.6302 124.103C62.7442 126.492 62.3822 128.724 62.0032 131.075C58.6732 129.733 55.6762 131.083 52.5332 130.108C56.0732 126.396 58.5302 122.902 60.0192 117.954Z" fill="#BC9E68"/>
<path d="M60.53 137.906C61.025 138.328 61.501 138.782 62.058 139.12C63.226 139.406 63.527 139.702 64.196 140.742C65.068 142.096 65.691 143.898 66.233 145.42C66.159 151.303 65.142 154.959 60.842 159.135C58.945 160.976 56.528 163.288 54.272 164.665C53.848 163.061 54.294 161.661 54.643 160.084L54.116 157.938C52.2547 155.261 50.459 152.542 48.729 149.779C51.821 146.436 55.098 145.083 59.503 144.208L59.929 142.394L60.53 137.906Z" fill="#BC9E68"/>
<path d="M60.5302 137.906C61.0252 138.328 61.5012 138.782 62.0582 139.12C60.8312 147.073 58.5342 153.031 54.6432 160.084L54.1162 157.938C57.1752 153.644 58.5722 149.311 59.5032 144.208L59.9292 142.394L60.5302 137.906Z" fill="#E2C6AF"/>
<path d="M48.729 149.779C51.821 146.436 55.098 145.083 59.503 144.208C58.572 149.311 57.175 153.644 54.116 157.938C52.2547 155.261 50.459 152.542 48.729 149.779Z" fill="#BC9E68"/>
<path d="M124.069 50.807C125.157 49.809 125.845 49.314 127.316 49.072C128.77 49.579 129.323 49.908 129.972 51.431C130.855 53.501 130.707 55.982 130.736 58.191C134.291 57.447 137.708 56.631 141.367 56.697C140.912 58.056 140.416 59.413 140.072 60.805L133.079 62.749C133.001 64.432 133.18 66.367 132.151 67.768C131.255 68.107 130.571 68.25 129.617 68.335C129.048 69.187 128.547 69.09 127.573 69.316L123.493 70.368L123.485 72.405L121.64 70.673L121.155 70.33C121.81 69.876 122.475 69.423 123.098 68.925C124.351 67.925 124.385 67.195 124.53 65.714C124.464 65.652 124.395 65.593 124.332 65.529C124.228 65.422 124.13 65.308 124.027 65.199C122.402 63.476 121.784 60.953 121.017 58.75C119.673 57.981 118.555 57.626 117.032 57.359C116.375 56.814 115.714 56.574 114.928 56.28C118.646 55.241 120.923 52.912 123.098 49.868L124.069 50.807Z" fill="#BEA158"/>
<path d="M122.119 57.77C123.879 60.142 124.971 62.755 126.057 65.483L124.53 65.714C124.464 65.652 124.395 65.593 124.332 65.529C124.228 65.422 124.13 65.308 124.027 65.199C122.402 63.476 121.784 60.953 121.017 58.75L122.119 57.77Z" fill="#ECC0EF"/>
<path d="M124.53 65.714L126.057 65.483C126.288 66.361 126.284 67.343 127.147 67.807C127.845 68.182 128.836 68.227 129.617 68.335C129.048 69.187 128.547 69.09 127.573 69.316L123.493 70.368L123.485 72.405L121.64 70.673L121.155 70.33C121.81 69.876 122.475 69.423 123.098 68.925C124.351 67.925 124.385 67.195 124.53 65.714Z" fill="#ECC0EF"/>
<path d="M123.098 49.868L124.069 50.807C122.707 52.347 120.583 54.097 120.089 56.066C120.706 56.844 121.271 57.26 122.119 57.77L121.017 58.75C119.673 57.981 118.555 57.626 117.032 57.359C116.375 56.814 115.714 56.574 114.928 56.28C118.646 55.241 120.923 52.912 123.098 49.868Z" fill="#ECC0EF"/>
<path d="M39.5151 93.031C45.3321 98.779 51.8111 108.977 60.8501 109.053C63.0791 109.071 66.963 108.183 68.525 106.491C68.815 106.177 68.9801 105.865 69.0571 105.449L70.589 105.685C70.549 105.816 70.511 105.948 70.469 106.079C69.814 108.126 68.5501 109.706 67.7851 111.662C65.5141 117.462 68.2631 122.618 69.4141 128.36C67.0601 126.683 64.952 124.456 63.344 122.063L62.6301 124.103C62.2621 122.056 62.0651 119.613 60.9531 117.839L60.0191 117.954L59.598 117.204L58.31 116.158L59.4541 114.547L59.2471 113.899C59.1851 113.406 58.884 113.071 58.62 112.659L55.948 112.092L54.434 111.85C50.393 110.212 43.6081 107.876 40.7331 104.585C39.7051 102.199 39.365 99.651 38.933 97.108C38.908 95.596 38.9771 94.453 39.5151 93.031Z" fill="#C3A561"/>
<path d="M59.5981 117.204C60.4581 116.09 61.2661 115.218 62.3911 114.369C62.7711 116.72 63.6351 119.716 63.3441 122.063L62.6302 124.103C62.2622 122.056 62.0652 119.613 60.9532 117.839L60.0192 117.954L59.5981 117.204Z" fill="#BC9D72"/>
<path d="M55.9482 112.092C58.0432 111.991 60.2273 111.712 62.2693 112.286L62.9232 113.048C62.7782 113.47 62.6702 114.021 62.3912 114.369C61.2662 115.218 60.4582 116.09 59.5982 117.204L58.3102 116.158L59.4543 114.547L59.2473 113.899C59.1853 113.406 58.8842 113.071 58.6202 112.659L55.9482 112.092Z" fill="#E3C79B"/>
<path d="M129.12 4.16899C129.18 2.58599 128.941 1.309 129.885 0C132.648 0.754 134.972 5.30899 136.374 7.75299C136.666 8.27166 136.938 8.80032 137.19 9.33899L138.104 11.066C136.215 13.385 134.33 15.546 132.147 17.604C132.123 21.527 132.017 25.843 130.88 29.619C130.155 29.432 130.194 29.323 129.727 28.785C129.878 27.899 129.958 27.258 129.762 26.358C125.598 23.903 120.675 23.254 116.359 20.598L117.132 18.431C120.068 13.772 124.296 9.68199 128.04 5.65799C128.604 5.26899 128.797 4.75799 129.12 4.16899Z" fill="#E3C6AE"/>
<path d="M129.12 4.16899C129.18 2.58599 128.941 1.309 129.885 0C132.648 0.754 134.972 5.30899 136.374 7.75299C136.665 8.27166 136.937 8.80032 137.19 9.33899C135.626 11.473 133.964 13.389 132.138 15.303C131.325 11.492 130.413 7.84799 129.12 4.16899Z" fill="#BC9E68"/>
<path d="M128.04 5.65799C130.345 11.064 130.683 18.116 130.489 23.927C125.398 22.938 121.105 22.015 117.132 18.431C120.068 13.772 124.296 9.68199 128.04 5.65799Z" fill="#BEA158"/>
<path d="M190.212 121.815C191.125 122.539 191.341 123.098 191.698 124.193C193.824 127.766 194.952 131.456 195.921 135.477C196.349 138.093 196.674 140.554 196.616 143.208C195.75 143.604 195.065 144.007 194.718 144.943C194.668 145.08 194.636 145.224 194.596 145.364C192.944 143.703 191.315 142.257 189.402 140.904L187.408 140.205C184.699 139.073 181.649 138.448 178.815 137.667C177.801 133.213 176.791 129.925 177.429 125.315L179.466 124.416L182.103 124.782C182.798 124.044 184.031 123.758 184.978 123.419L186.41 122.981C187.786 122.741 188.933 122.377 190.212 121.815Z" fill="#C3A561"/>
<path d="M182.103 124.782C182.798 124.044 184.031 123.758 184.978 123.419L186.46 124.946L183.193 125.764L182.96 125.488L182.103 124.782Z" fill="#E3C6AE"/>
<path d="M189.793 132.396C190.933 133.676 192.097 134.907 192.999 136.373L191.918 138.175C191.042 136.76 190.092 135.416 189.119 134.068L189.793 132.396Z" fill="#E3C79B"/>
<path d="M190.212 121.815C191.125 122.539 191.341 123.098 191.698 124.193C190.375 124.416 189.006 124.579 187.705 124.903L186.46 124.946L184.978 123.419L186.41 122.981C187.786 122.741 188.933 122.377 190.212 121.815Z" fill="#E2C6AF"/>
<path d="M184.978 123.419L186.41 122.981L187.705 124.903L186.46 124.946L184.978 123.419Z" fill="#E2C6AF"/>
<path d="M192.999 136.373C194.372 138.511 195.158 141.265 196.616 143.208C195.75 143.604 195.065 144.007 194.718 144.943C194.668 145.08 194.636 145.224 194.596 145.364C194.357 142.654 193.188 140.524 191.918 138.175L192.999 136.373Z" fill="#E3C79B"/>
<path d="M189.119 134.068C190.092 135.416 191.042 136.76 191.918 138.175C193.188 140.524 194.357 142.654 194.596 145.364C192.944 143.703 191.315 142.257 189.402 140.904L187.408 140.205L187.178 135.55L187.993 135.453L188.563 136.063L189.119 134.068Z" fill="#BC9E68"/>
<path d="M187.178 135.55L187.993 135.453L188.563 136.063C188.845 137.665 189.197 139.292 189.402 140.904L187.408 140.205L187.178 135.55Z" fill="#E2C6AF"/>
<path d="M179.466 124.416L182.103 124.782L182.96 125.488L183.193 125.764C184.884 128.279 187.568 130.347 189.793 132.396L189.119 134.068L188.563 136.063L187.993 135.453L187.178 135.55L187.408 140.205C184.699 139.073 181.649 138.448 178.815 137.667C177.801 133.213 176.791 129.925 177.429 125.315L179.466 124.416Z" fill="#C3A561"/>
<path d="M179.466 124.416L182.103 124.782L182.96 125.488L181.518 127.369C180.173 126.647 178.8 125.985 177.429 125.315L179.466 124.416Z" fill="#E2C6AF"/>
<path d="M182.96 125.488L183.193 125.764C184.884 128.279 187.568 130.347 189.793 132.396L189.119 134.068L188.563 136.063L187.993 135.453L187.178 135.55C186.999 135.137 187.051 135.333 186.99 134.861C186.902 134.18 186.819 133.502 186.659 132.832C185.944 129.842 183.957 128.891 181.518 127.369L182.96 125.488Z" fill="#E3C6AE"/>
<path d="M138.804 94.27C140.524 94.471 142.467 97.048 143.617 98.312C144.303 101.191 144.453 103.911 144.302 106.864C141.354 111.817 137.175 116.651 131.368 118.187C129.949 118.563 128.818 118.481 127.532 117.789L126.962 116.015L126.162 116.221L125.396 115.354C125.326 114.914 125.244 114.476 125.15 114.041C124.427 110.688 123.39 109.165 120.49 107.3L122.283 105.791C123.401 105.594 124.367 105.282 125.393 104.801C130.787 102.274 136.631 100.219 138.804 94.27Z" fill="#D07D94"/>
<path d="M122.283 105.791C125.825 108.743 126.504 111.557 126.962 116.015L126.162 116.221L125.396 115.354C125.326 114.914 125.244 114.476 125.15 114.041C124.427 110.688 123.39 109.165 120.49 107.3L122.283 105.791Z" fill="#ECC0EF"/>
<path d="M164.09 139.515C167.395 141.071 170.046 143.79 173.261 145.509L172.895 147.935C171.899 151.52 170.621 154.745 168.959 158.07L168.129 159.165C165.649 162.16 163.432 164.926 159.582 166.143L157.232 166.137C155.793 162.933 153.605 160.137 152.211 156.898C151.551 155.363 151.852 154.689 152.448 153.257L151.656 151.183C153.142 150.742 154.296 149.966 155.588 149.141C157.797 147.87 160.15 146.998 162.33 145.705C163.286 143.984 162.812 142.84 162.581 140.915L164.09 139.515Z" fill="#E3C6AE"/>
<path d="M164.842 145.318C164.767 144.285 164.736 143.472 165.001 142.466C166.41 142.369 167.666 143.707 168.813 144.52L164.842 145.318Z" fill="#BC9D72"/>
<path d="M159.582 166.143C159.819 165.783 160.04 165.413 160.277 165.053C162.251 162.056 163.242 158.524 164.426 155.155C165.523 156.611 166.849 157.874 168.129 159.165C165.649 162.16 163.432 164.926 159.582 166.143Z" fill="#BC9D72"/>
<path d="M168.813 144.52C170.128 145.722 171.411 146.939 172.895 147.935C171.899 151.52 170.621 154.745 168.959 158.07C167.52 156.597 166.213 154.909 164.865 153.346L164.842 145.318L168.813 144.52Z" fill="#C3A561"/>
<path d="M152.448 153.257C156.036 150.976 159.605 148.731 163.444 146.891C162.635 154.12 162.052 160.31 157.232 166.137C155.793 162.933 153.605 160.137 152.211 156.898C151.551 155.363 151.852 154.689 152.448 153.257Z" fill="#C3A561"/>
<path d="M143.81 136.612L144.683 135.768C146.492 138.357 145.324 145.061 144.965 148.079C142.13 153.359 134.329 156.957 128.796 158.703C128.084 158.984 127.528 158.909 126.78 158.868L126.316 158.066L126.707 156.72C127.06 151.391 124.936 146.304 125.323 140.372L126.922 137.494C129.481 138.314 133.638 137.153 136.521 137.432C137.931 137.679 139.094 137.968 140.38 138.606L142.112 139.608L143.81 136.612Z" fill="#C3A561"/>
<path d="M125.323 140.372L126.922 137.494C129.481 138.314 133.638 137.153 136.521 137.432L136.973 139.096C132.793 138.629 129.364 139.349 125.323 140.372Z" fill="#E3C6AE"/>
<path d="M136.521 137.432C137.931 137.679 139.094 137.968 140.38 138.606L142.112 139.608C140.496 141.99 128.819 158.053 128.796 158.703C128.084 158.984 127.528 158.909 126.78 158.868L126.316 158.066L126.707 156.72L126.883 157.248L127.444 157.289C130.824 152.669 135.272 148.534 137.988 143.477C138.647 142.249 139.15 141.328 138.746 139.955L136.973 139.096L136.521 137.432Z" fill="#E3C6AE"/>
<path d="M143.81 136.612L144.683 135.768C146.492 138.357 145.324 145.061 144.965 148.079C142.13 153.359 134.329 156.957 128.796 158.703C128.819 158.053 140.496 141.99 142.112 139.608L143.81 136.612Z" fill="#C3A561"/>
<path d="M207.169 100.959L211.833 101.155L215.205 101.857C219.988 103.713 223.577 107.451 228.469 109.125C226.393 110.803 224.345 112.499 222.096 113.945C220.235 114.882 218.375 115.853 216.306 116.224C209.696 117.41 200.857 114.47 195.393 110.725L194.516 109.436C195.071 107.972 195.973 106.707 196.82 105.399C198.734 104.503 200.635 103.58 202.523 102.63C204.083 102.134 205.629 101.517 207.169 100.959Z" fill="#642B2C"/>
<path d="M6.952 131.6L8.688 129.29L9.58701 129.626C14.045 129.772 18.058 131.113 21.831 133.5L21.214 133.981L21.9 134.968C23.17 134.449 23.975 133.821 25.327 134.276C26.172 136.03 25.774 137.498 25.175 139.253C24.437 141.416 23.589 143.403 22.384 145.344L23.217 146.431C23.023 147.61 22.649 148.621 23.335 149.718C23.523 150.018 23.638 150.108 23.872 150.335C22.1727 150.16 20.4747 149.971 18.778 149.77C13.237 148.696 6.031 148.835 0.945999 146.533C0.380999 145.965 0.217 145.604 0 144.835L0.498993 144.177C2.30699 139.854 3.957 135.261 6.952 131.6Z" fill="#BEA158"/>
<path d="M22.3843 145.344L23.2173 146.431C23.0233 147.61 22.6493 148.621 23.3353 149.718C23.5233 150.018 23.6383 150.108 23.8723 150.335C22.173 150.16 20.475 149.971 18.7783 149.77C20.0393 148.359 21.1963 146.819 22.3843 145.344Z" fill="#DFC4C3"/>
<path d="M6.952 131.6L8.688 129.29L9.58701 129.626C14.045 129.772 18.058 131.113 21.831 133.5L21.214 133.981L21.9 134.968C15.33 139.408 7.633 142.064 0.945999 146.533C0.380999 145.965 0.217 145.604 0 144.835L0.498993 144.177C2.30699 139.854 3.957 135.261 6.952 131.6Z" fill="#BEA158"/>
<path d="M9.58701 129.626C14.045 129.772 18.058 131.113 21.831 133.5L21.214 133.981L21.9 134.968C15.33 139.408 7.633 142.064 0.945999 146.533C0.380999 145.965 0.217 145.604 0 144.835L0.498993 144.177C7.07399 141.407 13.562 137.483 19.913 134.18C17.379 133.078 15.116 131.98 12.362 131.537C10.908 130.987 10.596 130.802 9.58701 129.626Z" fill="#E3C79B"/>
<path d="M195.393 110.725C200.857 114.47 209.696 117.41 216.306 116.224C218.375 115.853 220.235 114.882 222.096 113.945C222.848 114.092 224.045 114.179 224.722 114.482C226.409 113.803 228.121 112.954 229.95 113.636C231.247 114.119 232.019 115.214 232.692 116.367C233.033 120.578 231.901 127.538 229.148 130.892C228.33 131.888 227.189 132.888 225.855 133.052C224.618 133.205 223.109 132.79 221.923 132.424C221.37 132.751 220.926 133.18 220.275 133.121C208.89 125.145 209.797 116.919 194.741 113.374L195.393 110.725Z" fill="#ECC0EF"/>
<path d="M8.94531 88.219C9.24131 88.007 9.37133 87.897 9.72733 87.734C10.9613 87.17 11.7243 87.584 12.9233 87.957C16.2253 88.168 19.4523 88.294 22.7653 88.181C24.8753 88.157 26.8373 88.173 28.9153 88.579C32.0313 88.909 34.4823 89.389 37.1713 91.067C37.9603 91.674 38.8823 92.267 39.5153 93.031C38.9773 94.453 38.9083 95.596 38.9333 97.108C39.3653 99.651 39.7053 102.199 40.7333 104.585L38.3973 104.031L38.0293 105.685L30.7713 102.578C26.8167 104.077 22.8527 105.551 18.8793 107L17.1803 105.51C12.0253 100.341 9.95831 95.334 8.94531 88.219Z" fill="#E3C6AE"/>
<path d="M12.9231 87.957C16.2251 88.168 19.4521 88.294 22.7651 88.181C22.9571 91.345 23.3841 94.292 24.0031 97.393C20.6761 95.239 14.1831 91.962 12.3491 88.514L12.9231 87.957Z" fill="#C3A561"/>
<path d="M8.94531 88.219C14.3843 92.687 20.4553 98.083 27.1123 100.587C27.4723 100.722 27.8273 100.864 28.1893 100.995C24.6323 103.135 21.1563 104.398 17.1803 105.51C12.0253 100.341 9.95831 95.334 8.94531 88.219Z" fill="#BEA158"/>
<path d="M25.8099 98.269C25.0149 95.578 23.3479 91.99 24.5499 89.32C26.0369 88.302 27.1579 88.586 28.9149 88.579C32.0309 88.909 34.4819 89.389 37.1709 91.067C37.9599 91.674 38.8819 92.267 39.5149 93.031C38.9769 94.453 38.9079 95.596 38.9329 97.108C39.3649 99.651 39.7049 102.199 40.7329 104.585L38.3969 104.031L38.1259 103.816C33.8939 102.402 29.7219 100.405 25.8099 98.269Z" fill="#C3A561"/>
<path d="M37.1709 91.067C37.9599 91.674 38.8819 92.267 39.5149 93.031C38.9769 94.453 38.9079 95.596 38.9329 97.108L37.4929 96.851C37.3469 94.925 37.2396 92.997 37.1709 91.067Z" fill="#E2C6AF"/>
<path d="M37.4932 96.851L38.9332 97.108C39.3652 99.651 39.7052 102.199 40.7332 104.585L38.3972 104.031L38.1262 103.816C38.6032 102.01 37.7522 98.768 37.4932 96.851Z" fill="#E3C79B"/>
<path d="M58.1323 51.423C58.1363 51.323 58.1433 51.222 58.1453 51.121C58.1833 48.098 54.0223 43.563 56.4373 41.134C58.9293 38.63 64.6133 38.352 67.9103 38.624C70.7263 38.857 73.4363 39.793 75.2493 42.094C77.4803 44.925 77.5193 47.952 76.9823 51.35C76.8337 52.2793 76.676 53.2073 76.5093 54.134C74.9143 63.049 77.0143 65.646 77.1313 73.543C75.8233 73.17 74.3933 71.365 73.2603 70.537C70.8883 68.802 68.9023 69.126 66.1903 69.533C64.5763 69.65 63.0723 69.766 61.5203 69.173C58.4013 67.98 57.0173 65.523 55.6583 62.69C55.4883 61.621 54.9743 60.689 54.5163 59.72C54.4813 58.146 55.0023 56.642 55.4103 55.135C56.4343 53.996 57.2633 52.682 58.1323 51.423Z" fill="#D07D94"/>
<path d="M55.4103 55.135C56.4343 53.996 57.2633 52.682 58.1323 51.423C57.5703 55.276 55.8933 58.784 55.6583 62.69C55.4883 61.621 54.9743 60.689 54.5163 59.72C54.4813 58.146 55.0023 56.642 55.4103 55.135Z" fill="#ECC0EF"/>
<path d="M148.773 94.288C156.723 98.861 164.18 103.109 172.997 105.762C176.084 106.362 185.248 107.486 187.246 109.587L187.57 112.334C188.674 112.512 189.888 112.608 190.897 113.098C191.541 113.099 192.221 112.96 192.862 112.88C192.891 117.457 194.345 121.518 195.741 125.818C197.443 129.185 196.591 131.974 195.921 135.477C194.952 131.456 193.824 127.766 191.698 124.193C191.341 123.098 191.125 122.539 190.212 121.815C188.933 122.377 187.786 122.741 186.41 122.981L184.978 123.419C184.031 123.758 182.798 124.044 182.103 124.782L179.466 124.416L175.016 122.564L173.266 123.543C168.939 122.738 164.968 119.481 160.566 118.99L160.017 118.475L160.782 116.788L159.419 115.927C158.372 115.381 157.415 114.63 156.452 113.949C155.167 113.205 153.976 112.23 152.778 111.352C153.111 109.774 153.189 109.441 154.265 108.262C152.343 103.645 150.589 98.948 148.773 94.288Z" fill="#ECC0EF"/>
<path d="M157.831 112.513C159.04 113.088 160.281 113.785 161.568 114.15C160.908 114.804 160.285 115.553 159.419 115.927C158.372 115.381 157.415 114.63 156.452 113.949C156.951 113.538 157.388 112.988 157.831 112.513Z" fill="#BEA158"/>
<path d="M152.778 111.352C153.111 109.774 153.189 109.441 154.265 108.262C155.417 109.702 156.529 111.206 157.831 112.513C157.388 112.988 156.951 113.538 156.452 113.949C155.167 113.205 153.976 112.23 152.778 111.352Z" fill="#BEA158"/>
<path d="M178.461 112.541L175.009 115.233L176.047 116.57C174.19 117.891 172.234 119.162 170.608 120.766L175.016 122.564L173.266 123.543C168.939 122.738 164.968 119.481 160.566 118.99L160.017 118.475L160.782 116.788L159.419 115.927C160.285 115.553 160.908 114.804 161.568 114.15C167.3 114.271 172.814 113.401 178.461 112.541Z" fill="#C3A561"/>
<path d="M169.361 120.133C170.988 118.353 172.748 116.169 175.009 115.233L176.047 116.57C174.19 117.891 172.234 119.162 170.608 120.766L175.016 122.564L173.266 123.543C168.939 122.738 164.968 119.481 160.566 118.99L160.017 118.475L160.782 116.788C163.52 117.305 166.73 119.078 169.361 120.133Z" fill="#E3C79B"/>
<path d="M172.997 105.762C176.084 106.362 185.248 107.486 187.246 109.587L187.57 112.334C188.674 112.512 189.888 112.608 190.897 113.098C191.541 113.099 192.221 112.96 192.862 112.88C192.891 117.457 194.345 121.518 195.741 125.818C197.443 129.185 196.591 131.974 195.921 135.477C194.952 131.456 193.824 127.766 191.698 124.193C191.341 123.098 191.125 122.539 190.212 121.815C188.933 122.377 187.786 122.741 186.41 122.981L184.978 123.419C184.031 123.758 182.798 124.044 182.103 124.782L179.466 124.416L175.016 122.564L170.608 120.766C172.234 119.162 174.19 117.891 176.047 116.57L175.009 115.233L178.461 112.541C178.921 112.226 179.585 112.03 180.104 111.81L180.391 110.953C179.187 108.048 175.626 107.217 172.997 105.762Z" fill="#ECC0EF"/>
<path d="M180.266 109.621C182.614 109.716 184.901 109.769 187.246 109.587L187.57 112.334C184.932 111.888 182.663 110.749 180.266 109.621Z" fill="#BC9D72"/>
<path d="M190.897 113.098C191.541 113.099 192.221 112.96 192.862 112.88C192.891 117.457 194.345 121.518 195.741 125.818C193.001 122.635 190.924 117.313 190.897 113.098Z" fill="#B7997A"/>
<path d="M176.047 116.57C178.321 115.482 180.502 114.71 182.937 114.058C185.944 116.351 188.176 118.628 190.212 121.815C188.933 122.377 187.786 122.741 186.41 122.981L184.978 123.419C184.031 123.758 182.798 124.044 182.103 124.782L179.466 124.416L175.016 122.564L170.608 120.766C172.234 119.162 174.19 117.891 176.047 116.57Z" fill="#C3A561"/>
<path d="M162.043 41.239C161.849 37.254 162.755 31.866 165.486 28.85C169.233 24.712 175.319 23.815 180.588 23.639C183.069 23.557 185.797 23.695 188.232 23.204C191.544 22.537 197.32 18.613 200.242 21.335C201.834 22.818 210.362 39.61 210.356 41.968C210.346 45.906 208.47 49.863 205.603 52.508C205.006 53.059 204.561 53.355 203.795 53.595L202.966 53.498C202.245 50.956 201.514 48.704 199.678 46.734C195.85 42.625 191.315 41.489 185.894 41.288C186.103 39.416 189.729 37.277 190.02 34.09L189.404 33.415C187.867 33.453 186.598 34.176 185.227 34.808L186.067 35.259C179.491 39.74 172.274 36.035 165.476 39.492L164.476 38.782L162.043 41.239Z" fill="#D07D94"/>
<path d="M164.476 38.782C169.569 34.53 178.448 36.687 185.227 34.808L186.067 35.259C179.491 39.74 172.274 36.035 165.476 39.492L164.476 38.782Z" fill="#ECC0EF"/>
<path d="M53.7834 54.916L55.4104 55.135C55.0024 56.642 54.4814 58.146 54.5164 59.72C54.9744 60.689 55.4884 61.621 55.6584 62.69C57.0174 65.523 58.4014 67.98 61.5204 69.173C63.0724 69.766 64.5764 69.65 66.1904 69.533L66.5474 70.373C65.1064 70.906 62.5513 71.629 61.8904 73.147C61.3064 74.492 61.3784 75.478 61.9504 76.823C62.3564 77.776 62.8214 78.705 63.2884 79.63C62.2924 82.982 60.7304 86.829 62.5114 90.19C64.6304 94.191 70.2504 95.047 72.3654 99.668L71.3584 100.691C71.9044 102.024 72.7924 103.533 72.4864 104.988C71.7064 105.57 71.5644 105.595 70.5894 105.685L69.0574 105.449C62.0834 105.365 57.2524 103.259 51.7324 98.901C44.2674 93.009 46.8234 87.454 45.6864 79.327C45.1484 75.484 42.2194 73.848 39.4014 71.659L43.2774 66.863C45.2374 64.446 45.3424 60.806 47.9614 57.889C49.6844 56.545 51.7954 55.782 53.7834 54.916Z" fill="#D07D94"/>
<path d="M54.5162 59.72C54.9742 60.689 55.4882 61.621 55.6582 62.69C57.0172 65.523 58.4012 67.98 61.5202 69.173C63.0722 69.766 64.5762 69.65 66.1902 69.533L66.5472 70.373C65.1062 70.906 62.5512 71.629 61.8902 73.147C61.3062 74.492 61.3782 75.478 61.9502 76.823C62.3562 77.776 62.8212 78.705 63.2882 79.63C62.2922 82.982 60.7302 86.829 62.5112 90.19C64.6302 94.191 70.2502 95.047 72.3652 99.668L71.3582 100.691C71.3082 100.61 71.2602 100.528 71.2082 100.448C71.1222 100.316 71.0302 100.186 70.9432 100.055C68.4312 96.257 63.4842 95.05 61.5162 90.844C58.9532 85.365 61.7442 73.858 59.4562 69.804C58.9152 68.846 56.9992 67.633 56.1692 66.732C54.3362 64.742 54.3882 62.231 54.5162 59.72Z" fill="#ECC0EF"/>
<path d="M140.072 60.805C139.956 63.069 139.892 65.223 140.158 67.478C141.586 68.666 142.957 69.949 144.72 70.611C144.148 72.794 143.316 75.16 143.145 77.404L143.276 78.587C142.742 79.022 142.094 79.444 141.689 79.999C142.357 81.762 142.283 82.791 141.702 84.561C140.452 85.803 139.908 87.373 139.226 88.967L137.662 93.123L138.804 94.27C136.631 100.219 130.787 102.274 125.393 104.801C124.367 105.282 123.401 105.594 122.283 105.791L120.49 107.3C118.458 106.709 116.594 106.019 114.591 107.011C114.492 106.056 114.753 105.167 114.959 104.241L114.913 103.62C114.699 103.951 114.326 104.235 114.039 104.507C113.575 103.529 113.559 102.489 113.464 101.427L112.392 97.275C111.145 94.772 109.68 92.791 107.8 90.727L110.038 90.91C111.014 91.08 111.886 91.179 112.85 90.869C114.882 90.215 115.74 88.668 116.631 86.887L118.543 87.145C118.803 87.0137 119.059 86.8764 119.313 86.733C122.295 85.033 123.704 82.776 124.621 79.546C124.859 76.967 124.515 74.77 123.485 72.405L123.493 70.368L127.573 69.316C128.547 69.09 129.048 69.187 129.617 68.335C130.571 68.25 131.255 68.107 132.151 67.768C133.18 66.367 133.001 64.432 133.079 62.749L140.072 60.805Z" fill="#D07D94"/>
<path d="M112.392 97.275L113.949 95.817C114.884 98.534 115.203 100.746 114.913 103.62C114.699 103.951 114.326 104.235 114.039 104.507C113.575 103.529 113.559 102.489 113.464 101.427L112.392 97.275Z" fill="#DDC0DD"/>
<path d="M123.485 72.405L123.493 70.368C125.541 72.406 126.691 74.464 126.712 77.43C126.724 79.096 126.501 80.789 125.951 82.363C125.212 81.507 124.964 80.61 124.621 79.546C124.859 76.967 124.515 74.77 123.485 72.405Z" fill="#ECC0EF"/>
<path d="M118.543 87.145C118.803 87.0137 119.059 86.8763 119.313 86.733C122.295 85.033 123.704 82.776 124.621 79.546C124.964 80.61 125.212 81.507 125.951 82.363C123.621 87.492 116.89 90.067 112.25 92.915L113.949 95.817L112.392 97.275C111.145 94.772 109.68 92.791 107.8 90.727L110.038 90.91C111.014 91.08 111.886 91.179 112.85 90.869C114.882 90.215 115.74 88.668 116.631 86.887L118.543 87.145Z" fill="#ECC0EF"/>
<path d="M137.662 93.123L138.804 94.27C136.631 100.219 130.787 102.274 125.393 104.801C124.367 105.282 123.401 105.594 122.283 105.791L120.49 107.3C118.458 106.709 116.594 106.019 114.591 107.011C114.492 106.056 114.753 105.167 114.959 104.241C117.237 104.362 119.611 104.61 121.832 103.978C128.15 102.18 134.41 99.011 137.662 93.123Z" fill="#ECC0EF"/>
<path d="M140.072 60.805C139.956 63.069 139.892 65.223 140.158 67.478C141.586 68.666 142.957 69.949 144.72 70.611C144.148 72.794 143.316 75.16 143.145 77.404L143.276 78.587C142.742 79.022 142.094 79.444 141.689 79.999C138.754 78.664 136.865 74.663 134.93 72.269C133.022 69.909 130.371 69.64 127.573 69.316C128.547 69.09 129.048 69.187 129.617 68.335C130.571 68.25 131.255 68.107 132.151 67.768C133.18 66.367 133.001 64.432 133.079 62.749L140.072 60.805Z" fill="#ECC0EF"/>
<path d="M140.158 67.478C141.586 68.666 142.957 69.949 144.72 70.611C144.148 72.794 143.316 75.16 143.145 77.404C142.278 74.053 140.5 70.946 140.158 67.478Z" fill="#BC9D72"/>
<path d="M139.226 88.967C139.908 87.373 140.452 85.803 141.702 84.561C147.189 88.317 161.237 98.633 167.157 99.23C169.515 100.631 172.697 101.966 175.395 102.537C178.471 102.558 180.673 101.055 183.526 100.173L183.958 100.042L184.648 100.262L188.225 101.201C189.93 102.309 191.624 103.615 193.621 104.115C194.704 104.703 195.584 105.189 196.82 105.399C195.973 106.707 195.071 107.972 194.516 109.436C193.853 110.564 193.325 111.656 192.862 112.88C192.221 112.96 191.541 113.099 190.897 113.098C189.888 112.608 188.674 112.512 187.57 112.334L187.246 109.587C185.248 107.486 176.084 106.362 172.997 105.762C164.18 103.109 156.723 98.861 148.773 94.288C150.589 98.948 152.343 103.645 154.265 108.262C153.189 109.441 153.111 109.774 152.778 111.352L152.773 111.79C152.71 125.308 157.094 132.328 147.988 145.367C147.066 146.787 145.746 146.758 144.965 148.079C145.324 145.061 146.492 138.357 144.683 135.768L143.81 136.612L142.112 139.608L140.38 138.606C139.094 137.968 137.931 137.679 136.521 137.432C133.638 137.153 129.481 138.314 126.922 137.494C128.135 135.451 129.403 133.513 130.809 131.598C131.594 129.987 132.728 128.546 133.76 127.085C134.12 126.188 134.434 125.823 135.123 125.187C139.962 121.271 144.831 117.621 148.629 112.628L150.255 109.574C149.982 106.418 149.05 103.407 147.919 100.466C146.514 99.547 145.283 98.696 143.617 98.312C142.467 97.048 140.524 94.471 138.804 94.27L137.662 93.123L139.226 88.967Z" fill="#C3A561"/>
<path d="M183.958 100.042L184.648 100.262C185.93 101.425 187.049 102.088 187.575 103.771C186.426 104.602 185.666 104.521 184.267 104.314C181.303 103.873 178.33 103.149 175.395 102.537C178.471 102.558 180.673 101.055 183.526 100.173L183.958 100.042Z" fill="#ECC0EF"/>
<path d="M150.255 109.574C151.015 116.634 149.198 122.487 147.213 129.152C146.869 128.382 146.279 127.898 145.677 127.332C147.499 123.02 149.211 117.324 148.629 112.628L150.255 109.574Z" fill="#E3C79B"/>
<path d="M139.226 88.967C143.088 92.369 145.842 95.72 147.919 100.466C146.514 99.547 145.283 98.696 143.617 98.312C142.467 97.048 140.524 94.471 138.804 94.27L137.662 93.123L139.226 88.967Z" fill="#ECC0EF"/>
<path d="M133.76 127.085C134.12 126.188 134.434 125.823 135.123 125.187C138.55 126.471 142.226 125.708 145.677 127.332C146.279 127.898 146.869 128.382 147.213 129.152C146.722 130.271 146.078 131.572 146.025 132.808C145.9 135.771 146.659 142.123 147.739 144.825C147.812 145.01 147.905 145.186 147.988 145.367C147.066 146.787 145.746 146.758 144.965 148.079C145.324 145.061 146.492 138.357 144.683 135.768L143.81 136.612L142.225 135.475L143.106 133.861L143.417 133.101C143.137 131.631 142.956 131.441 141.925 130.337L138.518 127.602L134.588 127.682L133.76 127.085Z" fill="#E3C6AE"/>
<path d="M138.518 127.602C140.479 127.777 142.714 127.695 144.378 128.831C144.804 129.899 144.787 130.334 144.339 131.428C144.102 132.008 143.741 132.565 143.417 133.101C143.137 131.631 142.956 131.441 141.925 130.337L138.518 127.602Z" fill="#C3A561"/>
<path d="M148.629 112.628C149.211 117.324 147.499 123.02 145.677 127.332C142.226 125.708 138.55 126.471 135.123 125.187C139.962 121.271 144.831 117.621 148.629 112.628Z" fill="#C3A561"/>
<path d="M134.588 127.682L138.518 127.602L141.925 130.337C142.956 131.441 143.137 131.631 143.417 133.101L143.106 133.861L142.225 135.475L143.81 136.612L142.112 139.608L140.38 138.606C139.094 137.968 137.931 137.679 136.521 137.432C133.638 137.153 129.481 138.314 126.922 137.494C128.135 135.451 129.403 133.513 130.809 131.598C131.594 129.987 132.728 128.546 133.76 127.085L134.588 127.682Z" fill="#BEA158"/>
<path d="M142.225 135.475L143.81 136.612L142.112 139.608L140.38 138.606L142.225 135.475Z" fill="#E3C6AE"/>
<path d="M134.588 127.682L138.518 127.602L141.925 130.337C142.956 131.441 143.137 131.631 143.417 133.101L143.106 133.861L142.533 132.189C140.565 130.504 138.017 130.072 135.505 130.017C133.352 129.97 132.463 130.353 130.809 131.598C131.594 129.987 132.728 128.546 133.76 127.085L134.588 127.682Z" fill="#C3A561"/>
<path d="M134.588 127.682L138.518 127.602L141.925 130.337C139.333 129.687 137.021 128.781 134.588 127.682Z" fill="#C3A561"/>
<path d="M18.879 107C22.8523 105.551 26.8163 104.077 30.771 102.578L38.029 105.685L38.397 104.031L40.733 104.585C43.608 107.876 50.393 110.212 54.434 111.85L55.948 112.092L58.62 112.659C58.884 113.071 59.185 113.406 59.247 113.899C56.307 116.165 53.207 118.02 50.014 119.898C47.3 121.599 41.086 124.432 40.252 127.463L40.724 129.311L39.69 131.251C39.843 133.878 39.927 136.465 39.861 139.097C38.899 142.836 36.926 145.547 33.577 147.548C30.662 149.29 27.255 150.212 23.872 150.335C23.638 150.108 23.523 150.018 23.335 149.718C22.649 148.621 23.023 147.61 23.217 146.431L22.384 145.344C23.589 143.403 24.437 141.416 25.175 139.253C25.774 137.498 26.172 136.03 25.327 134.276C23.975 133.821 23.17 134.449 21.9 134.968L21.214 133.981L21.831 133.5C18.058 131.113 14.045 129.772 9.58699 129.626L8.68799 129.29C11.76 126.237 14.673 124.415 18.621 122.639C19.121 121.667 19.594 121.044 20.38 120.287L25.071 118.349C26.472 116.464 29.057 117.023 30.44 115.134C30.252 114.693 29.848 114.861 29.422 114.813C27.512 114.598 26.096 114.417 24.598 113.095C24.517 113.023 24.439 112.949 24.36 112.877C23.16 112.372 21.9543 111.881 20.743 111.404C19.938 110.113 21.228 110.093 21.038 108.584L18.879 107Z" fill="#BC9E68"/>
<path d="M48.2191 118.964C49.1621 119.042 49.2341 119.494 50.0141 119.898C47.3001 121.599 41.0861 124.432 40.2521 127.463L40.7241 129.311L39.6901 131.251C39.4181 129.861 39.4941 128.89 38.3641 127.943C34.7321 128.003 31.0281 131.02 27.7381 132.502C26.8541 137.515 25.4171 141.838 23.2171 146.431L22.3841 145.344C23.5891 143.403 24.4371 141.416 25.1751 139.253C25.7741 137.498 26.1721 136.03 25.3271 134.276C23.9751 133.821 23.1701 134.449 21.9001 134.968L21.2141 133.981L21.8311 133.5C24.6371 132.217 32.1341 129.695 33.2861 127.083C33.0721 126.772 32.9871 126.608 32.7291 126.359C29.8821 123.604 22.4931 122.389 18.6211 122.639C19.1211 121.667 19.5941 121.044 20.3801 120.287C26.2221 123.074 28.9571 122.242 35.4501 126.758C37.7448 125.753 39.9611 124.599 42.0991 123.294C44.2364 121.989 46.2764 120.545 48.2191 118.964Z" fill="#E2C6AF"/>
<path d="M52.1243 112.972C52.8543 112.538 53.6643 112.21 54.4343 111.85L55.9483 112.092L58.6203 112.659C58.8843 113.071 59.1854 113.406 59.2474 113.899C56.3074 116.165 53.2074 118.02 50.0144 119.898C49.2344 119.494 49.1623 119.042 48.2193 118.964C40.2153 119.32 33.0893 116.731 25.0714 118.349C26.4724 116.464 29.0574 117.023 30.4404 115.134C30.2524 114.693 29.8483 114.861 29.4223 114.813C27.5123 114.598 26.0963 114.417 24.5983 113.095C24.5173 113.023 24.4394 112.949 24.3604 112.877C27.4514 113.656 29.5553 113.821 32.6423 112.861L32.3004 114.898L32.3434 115.263C38.3014 117.45 46.3953 115.038 52.1243 112.972Z" fill="#DFC4C3"/>
<path d="M38.3968 104.031L40.7328 104.585C43.6078 107.876 50.3928 110.212 54.4338 111.85C53.6638 112.21 52.8538 112.538 52.1238 112.972C46.3948 115.038 38.3008 117.45 32.3428 115.263L32.2998 114.898L32.6418 112.861C34.9768 111.663 39.2758 110.05 40.4388 107.653C39.9208 106.284 39.3138 106.303 38.0288 105.685L38.3968 104.031Z" fill="#C3A561"/>
<path d="M38.3968 104.031L40.7328 104.585C43.6078 107.876 50.3928 110.212 54.4338 111.85C53.6638 112.21 52.8538 112.538 52.1238 112.972C49.1268 111.195 46.0018 109.692 42.8748 108.16C39.5328 110.852 36.1828 113.035 32.2998 114.898L32.6418 112.861C34.9768 111.663 39.2758 110.05 40.4388 107.653C39.9208 106.284 39.3138 106.303 38.0288 105.685L38.3968 104.031Z" fill="#E3C6AE"/>
<path d="M18.8789 107C22.8522 105.551 26.8162 104.077 30.7709 102.578L38.0289 105.685C39.3139 106.303 39.9209 106.284 40.4389 107.653C39.2759 110.05 34.9769 111.663 32.6419 112.861C29.5549 113.821 27.4509 113.656 24.3599 112.877C23.1599 112.372 21.9542 111.881 20.7429 111.404C19.9379 110.113 21.2279 110.093 21.0379 108.584L18.8789 107Z" fill="#BEA158"/>
<path d="M18.621 122.639C22.493 122.389 29.882 123.604 32.729 126.359C32.987 126.608 33.072 126.772 33.286 127.083C32.134 129.695 24.637 132.217 21.831 133.5C18.058 131.113 14.045 129.772 9.58699 129.626L8.68799 129.29C11.76 126.237 14.673 124.415 18.621 122.639Z" fill="#BEA158"/>
<path d="M27.738 132.502C31.028 131.02 34.732 128.003 38.364 127.943C39.494 128.89 39.418 129.861 39.69 131.251C39.843 133.878 39.927 136.465 39.861 139.097C38.899 142.836 36.926 145.547 33.577 147.548C30.662 149.29 27.255 150.212 23.872 150.335C23.638 150.108 23.523 150.018 23.335 149.718C22.649 148.621 23.023 147.61 23.217 146.431C25.417 141.838 26.854 137.515 27.738 132.502Z" fill="#BEA158"/>
<path d="M185.227 34.808C186.598 34.176 187.867 33.453 189.404 33.415L190.02 34.09C189.729 37.277 186.103 39.416 185.894 41.288C191.315 41.489 195.85 42.625 199.678 46.734C201.514 48.704 202.245 50.956 202.966 53.498C202.386 53.48 201.763 53.412 201.21 53.607C201.234 53.751 201.255 53.896 201.282 54.039C201.969 57.659 206.839 60.71 204.512 64.237C203.66 65.529 202.048 66.542 200.786 67.422L200.476 68.655L199.791 68.872L201.338 69.559C199.318 70.2337 197.305 70.9263 195.299 71.637L193.574 70.522C192.669 70.709 192.249 70.725 191.376 70.412L192.331 69.636L192.051 68.561C187.278 70.855 182.796 71.618 177.622 72.398L174.957 71.644L173.386 73.401C170.682 71.495 167.973 69.837 164.88 68.645L166.21 67.737C163.436 66.001 162.037 63.963 160.307 61.26L159.229 62.099C156.26 53.849 158.823 50.956 159.453 43.05L159.489 42.554L159.897 42.622C159.895 43.524 159.77 44.429 160.288 45.212C160.813 44.068 160.777 42.37 161.036 41.107L162.043 41.239L164.476 38.782L165.476 39.492C172.274 36.035 179.491 39.74 186.067 35.259L185.227 34.808Z" fill="#ECC0EF"/>
<path d="M184.579 58.416C186.433 56.468 188.254 54.287 190.513 52.806C190.053 55.831 189.19 56.657 189.117 60.423C189.046 60.951 188.978 61.467 188.851 61.985C188.649 62.804 188.696 62.85 188.002 63.271C186.343 62.725 185.237 60.617 184.234 59.246L184.579 58.416Z" fill="#D07D94"/>
<path d="M191.35 52.896C191.538 55.259 191.398 58.538 192.643 60.589L193.436 60.476C194.792 57.686 192.856 53.772 194.046 51.371C195.852 53.185 196.792 55.775 196.77 58.318C196.751 60.472 196.429 62.758 194.781 64.314C194.247 64.818 193.576 65.077 192.895 65.317C192.218 65.168 191.629 65.088 191.048 64.69L190.082 61.159C190.357 58.359 190.79 55.652 191.35 52.896Z" fill="#D07D94"/>
<path d="M192.331 69.636C203.153 60.488 195.32 54.891 196.849 50.386C198.001 50.061 198.66 50.054 199.809 50.392C200.832 51.408 200.956 52.215 201.21 53.607C201.234 53.751 201.255 53.896 201.282 54.039C201.969 57.659 206.839 60.71 204.512 64.237C203.66 65.529 202.048 66.542 200.786 67.422L200.476 68.655L199.791 68.872L201.338 69.559C199.319 70.2336 197.306 70.9263 195.299 71.637L193.574 70.522C192.669 70.709 192.249 70.725 191.376 70.412L192.331 69.636Z" fill="#D07D94"/>
<path d="M193.574 70.522C195.686 69.122 198.42 68.336 200.786 67.422L200.476 68.655L199.791 68.872L201.338 69.559C199.319 70.2336 197.306 70.9263 195.299 71.637L193.574 70.522Z" fill="#ECC0EF"/>
<path d="M172.846 56.524C174.922 52.245 178.655 45.953 183.294 44.192C186.528 42.964 194.138 45.191 197.221 46.712C197.583 46.89 197.82 47.119 198.109 47.393C197.05 49.44 190.906 50.285 188.742 51.705C186.989 52.856 185.478 54.925 184.303 56.637L181.311 57.255C179.985 57.83 178.619 57.581 177.414 58.399L174.082 58.315L173.718 56.891L172.846 56.524Z" fill="#D07D94"/>
<path d="M173.718 56.891C176.3 56.849 178.751 56.9 181.311 57.255C179.985 57.83 178.619 57.581 177.414 58.399L174.082 58.315L173.718 56.891Z" fill="#ECC0EF"/>
<path d="M171.826 55.233L172.846 56.524L173.718 56.891L174.082 58.315L177.414 58.399C178.619 57.581 179.985 57.83 181.311 57.255L184.303 56.637L184.579 58.416L184.234 59.246C185.237 60.617 186.343 62.725 188.002 63.271C188.696 62.85 188.649 62.804 188.851 61.985C188.978 61.467 189.046 60.951 189.117 60.423L190.082 61.159L191.048 64.69L190.614 66.655C191.542 67.37 191.768 67.382 192.051 68.561C187.278 70.855 182.796 71.618 177.622 72.398L174.957 71.644L173.386 73.401C170.682 71.495 167.973 69.837 164.88 68.645L166.21 67.737C167.703 66.825 167.884 64.397 168.338 62.701C169.106 60.085 170.57 57.643 171.826 55.233Z" fill="#D07D94"/>
<path d="M171.826 55.233L172.846 56.524L173.718 56.891L174.082 58.315C171.354 59.991 170.307 61.889 169.323 64.857L168.338 62.701C169.106 60.085 170.57 57.643 171.826 55.233Z" fill="#ECC0EF"/>
<path d="M168.338 62.701L169.323 64.857C169.369 66.601 169.409 67.989 170.738 69.285C171.869 70.388 173.53 71.011 174.957 71.644L173.386 73.401C170.682 71.495 167.973 69.837 164.88 68.645L166.21 67.737C167.703 66.825 167.884 64.397 168.338 62.701Z" fill="#ECC0EF"/>
<path d="M181.311 57.255L184.303 56.637L184.579 58.416L184.234 59.246C185.237 60.617 186.343 62.725 188.002 63.271C188.696 62.85 188.649 62.804 188.851 61.985C188.978 61.467 189.046 60.951 189.117 60.423L190.082 61.159L191.048 64.69L190.614 66.655C185.045 64.264 185.001 60.131 177.414 58.399C178.619 57.581 179.985 57.83 181.311 57.255Z" fill="#ECC0EF"/>
<path d="M186.067 35.259L187.223 35.22L187.359 35.927C185.638 38.004 183.613 39.704 181.79 41.674C179.895 43.752 178.115 45.924 176.45 48.19C174.784 50.456 173.243 52.8037 171.826 55.233C170.57 57.643 169.106 60.085 168.338 62.701C167.884 64.397 167.703 66.825 166.21 67.737C163.436 66.001 162.037 63.963 160.307 61.26L159.229 62.099C156.26 53.849 158.823 50.956 159.453 43.05L159.489 42.554L159.897 42.622C159.895 43.524 159.77 44.429 160.288 45.212C160.813 44.068 160.777 42.37 161.036 41.107L162.043 41.239L164.476 38.782L165.476 39.492C172.274 36.035 179.491 39.74 186.067 35.259Z" fill="#D07D94"/>
<path d="M164.476 38.782L165.476 39.492C161.264 43.283 159.439 48.196 159.14 53.813C158.996 56.509 159.497 58.704 160.307 61.26L159.229 62.099C156.26 53.849 158.823 50.956 159.453 43.05L159.489 42.554L159.897 42.622C159.895 43.524 159.77 44.429 160.288 45.212C160.813 44.068 160.777 42.37 161.036 41.107L162.043 41.239L164.476 38.782Z" fill="#ECC0EF"/>
<path d="M142.543 52.984C142.677 48.202 140.672 42.603 142.329 38.031C142.969 36.265 144.029 34.731 145.822 34.012C148.106 33.096 150.835 33.751 152.966 34.8C156.536 36.559 158.251 38.812 159.489 42.554L159.453 43.05C158.823 50.956 156.26 53.849 159.229 62.099L160.307 61.26C162.037 63.963 163.436 66.001 166.21 67.737L164.88 68.645C167.973 69.837 170.682 71.495 173.386 73.401L174.957 71.644L177.622 72.398C182.796 71.618 187.278 70.855 192.051 68.561L192.331 69.636L191.376 70.412C192.249 70.725 192.669 70.709 193.574 70.522L195.299 71.637C197.306 70.9263 199.319 70.2337 201.338 69.559C202.659 70.33 202.948 70.462 203.651 71.797C203.519 73.6 202.741 74.554 201.42 75.704C199.457 77.415 197.226 78.692 194.973 79.975L195.688 80.944C196.902 80.249 197.44 79.649 198.884 79.932C200.054 81.385 200.099 82.862 199.887 84.655C199.518 87.782 198.011 91.721 195.418 93.654C191.852 96.314 185.869 96.683 181.698 98.553C182.442 99.069 183.168 99.599 183.958 100.042L183.526 100.173C180.673 101.055 178.471 102.558 175.395 102.537C172.697 101.966 169.515 100.631 167.157 99.23C161.237 98.633 147.189 88.317 141.702 84.561C142.283 82.791 142.357 81.762 141.689 79.999C142.094 79.444 142.742 79.022 143.276 78.587L143.145 77.404C143.316 75.16 144.148 72.794 144.72 70.611C142.957 69.949 141.586 68.666 140.158 67.478C139.892 65.223 139.956 63.069 140.072 60.805C140.416 59.413 140.912 58.056 141.367 56.697L142.543 52.984Z" fill="#D07D94"/>
<path d="M160.307 61.26C162.037 63.963 163.436 66.001 166.21 67.737L164.88 68.645L163.743 68.632C163.115 71.046 163.774 74.212 163.948 76.721C167.004 80.465 170.191 83.209 174.458 85.487L173.152 86.597C169.972 85.652 166.969 83.857 164.211 82.051C164.178 85.695 163.473 90.095 166.27 92.874C167.663 94.258 169.637 95.318 171.319 96.323C171.79 96.604 171.614 96.462 171.932 96.781C175.406 98.129 177.886 99.315 181.698 98.553C182.442 99.069 183.168 99.599 183.958 100.042L183.526 100.173C180.673 101.055 178.471 102.558 175.395 102.537C172.697 101.966 169.515 100.631 167.157 99.2299C161.237 98.6329 147.189 88.317 141.702 84.561C142.283 82.791 142.357 81.762 141.689 79.999C142.094 79.444 142.742 79.022 143.276 78.587L143.145 77.404C143.316 75.16 144.148 72.794 144.72 70.611L145.151 70.928C150.1 74.612 152.224 87.17 157.976 86.127C159.497 85.851 160.874 84.303 161.602 83.016C161.88 82.523 162.071 81.98 162.244 81.443C161.917 74.808 161.62 68.351 159.229 62.099L160.307 61.26Z" fill="#ECC0EF"/>
<path d="M171.932 96.781C175.406 98.129 177.886 99.315 181.698 98.553C182.442 99.069 183.168 99.599 183.958 100.042L183.526 100.173C180.673 101.055 178.471 102.558 175.395 102.537C172.697 101.966 169.515 100.631 167.157 99.2299C170.745 99.1549 174.744 102.284 178.224 101.427C179.218 101.183 179.649 100.838 180.138 99.992C179.545 99.965 178.956 99.917 178.364 99.873C178.228 99.863 178.091 99.859 177.955 99.846C176.122 99.681 173.253 98.457 172.097 97.008C172.039 96.935 171.987 96.857 171.932 96.781Z" fill="#ECC0EF"/>
<path d="M160.307 61.26C162.037 63.963 163.436 66.001 166.21 67.737L164.88 68.645L163.743 68.632C163.115 71.046 163.774 74.212 163.948 76.721C167.004 80.465 170.191 83.209 174.458 85.487L173.152 86.597C169.972 85.652 166.969 83.857 164.211 82.051L163.707 81.603L164.611 81.395C166.222 82.345 167.92 83.075 169.627 83.829C166.097 81.757 162.475 76.768 162.512 72.516C162.529 70.546 163.351 68.316 162.739 66.429L162.218 66.274C161.143 71.39 163.481 76.98 162.7 82.164L162.244 81.443C161.917 74.808 161.62 68.351 159.229 62.099L160.307 61.26Z" fill="#E8BCEE"/>
<path d="M195.688 80.944C196.902 80.249 197.44 79.649 198.884 79.932C200.054 81.385 200.099 82.862 199.887 84.655C199.518 87.782 198.011 91.721 195.418 93.654C191.852 96.314 185.869 96.683 181.698 98.553C177.886 99.315 175.406 98.129 171.932 96.781C171.614 96.462 171.79 96.604 171.319 96.323C169.637 95.318 167.663 94.258 166.27 92.874C163.473 90.095 164.178 85.695 164.211 82.051C166.969 83.857 169.972 85.652 173.152 86.597L174.458 85.487C182.697 86.703 187.975 83.863 194.973 79.975L195.688 80.944Z" fill="#D07D94"/>
<path d="M194.973 79.975L195.688 80.944C189.912 85.007 184.002 88.804 176.573 87.437C175.424 87.226 174.262 86.961 173.152 86.597L174.458 85.487C182.697 86.703 187.975 83.863 194.973 79.975Z" fill="#ECC0EF"/>
<path d="M163.948 76.721C163.774 74.212 163.115 71.046 163.743 68.632L164.88 68.645C167.973 69.837 170.682 71.495 173.386 73.401L174.957 71.644L177.622 72.398C182.796 71.618 187.278 70.855 192.051 68.561L192.331 69.636L191.376 70.412C192.249 70.725 192.669 70.709 193.574 70.522L195.299 71.637C197.306 70.9263 199.319 70.2337 201.338 69.559C202.659 70.33 202.948 70.462 203.651 71.797C203.519 73.6 202.741 74.554 201.42 75.704C199.457 77.415 197.226 78.692 194.973 79.975C187.975 83.863 182.697 86.703 174.458 85.487C170.191 83.209 167.004 80.465 163.948 76.721Z" fill="#D07D94"/>
<path d="M192.051 68.561L192.331 69.636L191.376 70.412C192.249 70.725 192.669 70.709 193.574 70.522L195.299 71.637C189.365 73.548 180.992 75.559 174.912 73.603L173.386 73.401L174.957 71.644L177.622 72.398C182.796 71.618 187.278 70.855 192.051 68.561Z" fill="#ECC0EF"/>
<path d="M174.957 71.644L177.622 72.398L181.065 73.086L181.131 73.404C179.002 73.859 176.992 73.25 174.912 73.603L173.386 73.401L174.957 71.644Z" fill="#ECC0EF"/>
<path d="M66.1903 69.533C68.9023 69.126 70.8883 68.802 73.2603 70.537C74.3933 71.365 75.8233 73.17 77.1313 73.543L78.7843 73.957C78.1213 76.947 77.4283 80.134 79.2023 82.914C80.7963 85.412 83.5233 87.134 85.3113 89.511C87.3223 92.183 88.2402 95.458 90.0112 98.248C90.4963 99.012 91.1073 99.712 91.7033 100.39C93.0953 101.173 94.5893 102.095 96.1603 102.441C98.9593 103.058 109.249 101.679 110.193 104.899C110.435 105.723 110.281 106.744 110.226 107.594L110.959 107.92C112.04 107.314 112.398 106.618 112.774 105.42C113.165 104.173 113.264 102.718 113.464 101.427C113.559 102.489 113.575 103.529 114.039 104.507C114.326 104.235 114.699 103.951 114.913 103.62L114.959 104.241C114.753 105.167 114.492 106.056 114.591 107.011C116.594 106.019 118.458 106.709 120.49 107.3C123.39 109.165 124.427 110.688 125.15 114.041C125.244 114.476 125.326 114.914 125.396 115.354C125.414 118.798 125.607 122.205 124.481 125.511C122.586 131.072 117.621 133.602 112.645 136.009L106.044 134.988C104.17 136.097 101.501 138.095 99.3212 138.19C96.8022 138.301 94.2313 134.466 92.5573 132.797C89.8053 132.995 87.0553 133.451 84.3223 133.824C81.6653 129.841 79.0303 126.857 75.4383 123.67C74.7723 120.908 74.1343 118.027 73.7643 115.211C73.4583 112.888 73.1593 110.684 74.6623 108.71L75.5393 107.265C73.9383 104.867 73.0023 102.467 72.3653 99.668C70.2503 95.047 64.6303 94.191 62.5113 90.19C60.7303 86.829 62.2923 82.982 63.2883 79.63C62.8213 78.705 62.3563 77.776 61.9503 76.823C61.3783 75.478 61.3062 74.492 61.8902 73.147C62.5512 71.629 65.1063 70.906 66.5473 70.373L66.1903 69.533Z" fill="#D07D94"/>
<path d="M91.7031 100.39C93.0951 101.173 94.5891 102.095 96.1601 102.441C98.9591 103.058 109.249 101.679 110.193 104.899C110.435 105.723 110.281 106.744 110.226 107.594L110.959 107.92C112.04 107.314 112.398 106.618 112.774 105.42C113.165 104.173 113.264 102.718 113.464 101.427C113.559 102.489 113.575 103.529 114.039 104.507C114.326 104.235 114.699 103.951 114.913 103.62L114.959 104.241C114.753 105.167 114.492 106.056 114.591 107.011C113.799 108.333 113.175 109.241 111.881 110.102C110.807 110.276 110.21 110.452 109.294 109.644C106.66 107.321 108.532 104.147 103.983 103.894C102.672 103.821 100.812 103.924 99.7841 104.72C100.424 105.939 101.268 106.941 100.833 108.379C99.9641 111.253 97.2791 114.02 94.6021 115.287C93.0601 116.017 90.8881 116.545 89.2261 115.983C87.7481 115.484 87.0501 113.9 86.3251 112.632C81.9561 112.29 78.0071 112.53 74.8601 108.942C74.7931 108.865 74.7281 108.787 74.6621 108.71L75.5391 107.265C79.4441 109.918 82.6611 109.734 87.1601 109.592C87.6921 110.838 88.2701 112.64 89.4081 113.444C90.4891 114.209 91.8741 114.332 93.1481 114.079C94.7291 113.765 96.1281 112.613 96.9791 111.273C97.7291 110.09 98.2041 108.465 97.8161 107.076C97.1131 104.557 93.0451 102.853 90.9481 101.507L91.7031 100.39Z" fill="#ECC0EF"/>
<path d="M66.1903 69.533C68.9023 69.126 70.8883 68.802 73.2603 70.537C74.3933 71.365 75.8233 73.17 77.1313 73.543L78.7843 73.957C78.1213 76.947 77.4283 80.134 79.2023 82.914C80.7963 85.412 83.5233 87.134 85.3113 89.511C87.3223 92.183 88.2402 95.458 90.0112 98.248C90.4963 99.012 91.1073 99.712 91.7033 100.39L90.9483 101.507C93.0453 102.853 97.1133 104.557 97.8163 107.076C98.2043 108.465 97.7293 110.09 96.9793 111.273C96.1283 112.613 94.7293 113.765 93.1483 114.079C91.8743 114.332 90.4893 114.209 89.4083 113.444C88.2703 112.64 87.6923 110.838 87.1603 109.592C82.6613 109.734 79.4443 109.918 75.5393 107.265C73.9383 104.867 73.0023 102.467 72.3653 99.668C70.2503 95.047 64.6303 94.191 62.5113 90.19C60.7303 86.829 62.2923 82.982 63.2883 79.63C62.8213 78.705 62.3563 77.776 61.9503 76.823C61.3783 75.478 61.3062 74.492 61.8902 73.147C62.5512 71.629 65.1063 70.906 66.5473 70.373L66.1903 69.533Z" fill="#D07D94"/>
<path d="M66.1904 69.533C68.9024 69.126 70.8884 68.802 73.2604 70.537C74.3934 71.365 75.8234 73.17 77.1314 73.543L78.7844 73.957C78.1214 76.947 77.4284 80.134 79.2024 82.914C80.7964 85.412 83.5234 87.134 85.3114 89.511C87.3224 92.183 88.2404 95.458 90.0114 98.248C90.4964 99.012 91.1074 99.712 91.7034 100.39L90.9484 101.507C89.9464 100.588 78.4704 84.043 77.8024 82.697C76.4414 79.956 76.2514 76.172 74.4564 73.731C72.5504 71.139 69.5014 70.707 66.5474 70.373L66.1904 69.533Z" fill="#ECC0EF"/>
<path d="M79.1418 52.856C81.6018 48.227 80.0217 42.016 82.4807 37.46C83.9267 34.78 98.0568 28.803 101.531 27.751C102.271 27.526 103.374 27.234 104.133 27.249C105.593 27.279 117.564 33.58 119.693 34.753C120.946 37.279 122.501 39.805 123.602 42.382C124.847 45.297 124.21 47.104 123.098 49.868C120.923 52.912 118.646 55.241 114.928 56.28C115.714 56.574 116.375 56.814 117.032 57.359C118.555 57.626 119.673 57.981 121.017 58.75C121.784 60.953 122.402 63.476 124.027 65.199C124.13 65.308 124.228 65.422 124.332 65.529C124.395 65.593 124.464 65.652 124.53 65.714C124.385 67.195 124.351 67.925 123.098 68.925C122.475 69.423 121.81 69.876 121.155 70.33L121.64 70.673L123.485 72.405C124.515 74.77 124.859 76.967 124.621 79.546C123.704 82.776 122.295 85.033 119.313 86.733C119.059 86.8763 118.803 87.0137 118.543 87.145L116.631 86.887C115.74 88.668 114.882 90.215 112.85 90.869C111.886 91.179 111.014 91.08 110.038 90.91L107.8 90.727C109.68 92.791 111.145 94.772 112.392 97.275L113.464 101.427C113.264 102.718 113.165 104.173 112.774 105.42C112.398 106.618 112.04 107.314 110.959 107.92L110.226 107.594C110.281 106.744 110.435 105.723 110.193 104.899C109.249 101.679 98.9588 103.058 96.1598 102.441C94.5888 102.095 93.0948 101.173 91.7028 100.39C91.1068 99.712 90.4957 99.012 90.0107 98.248C88.2397 95.458 87.3218 92.183 85.3108 89.511C83.5228 87.134 80.7958 85.412 79.2018 82.914C77.4278 80.134 78.1208 76.947 78.7838 73.957L77.1308 73.543C77.0138 65.646 74.9138 63.049 76.5088 54.134L77.2177 54.461C76.7057 58.081 76.5288 61.622 76.4278 65.27L76.7948 65.64C77.0448 61.182 77.2347 56.792 78.4117 52.459L78.8838 52.381L79.1418 52.856Z" fill="#D07D94"/>
<path d="M96.5664 46.521C96.8764 46.239 96.8854 46.208 97.3084 45.959C99.8734 44.451 102.428 44.951 105.149 45.507L105.143 47.876C102.543 47.22 100.788 47.165 98.1604 47.959L96.5664 46.521Z" fill="#ECC0EF"/>
<path d="M96.566 46.521L98.16 47.959L95.675 49.904C93.878 52.614 92.881 55.821 91.067 58.424L89.812 56.959C91.185 52.966 92.713 49.297 96.179 46.709L96.566 46.521Z" fill="#ECC0EF"/>
<path d="M96.5658 46.521L98.1598 47.959L95.6748 49.904L96.1788 46.709L96.5658 46.521Z" fill="#ECC0EF"/>
<path d="M105.149 45.507C108.33 49.429 110.934 53.115 114.928 56.28C115.714 56.574 116.375 56.814 117.032 57.359L113.634 58.138L112.646 56.734C109.292 53.971 107.295 51.68 105.143 47.876L105.149 45.507Z" fill="#ECC0EF"/>
<path d="M98.315 47.5853C100.943 46.7913 102.698 46.8463 105.298 47.5023C107.45 51.3063 109.447 53.5973 112.801 56.3603C107.51 58.1043 102.569 51.3933 94.713 56.6803C92.407 58.4823 90.167 60.2993 88 62.2713C89.043 60.8573 90.044 59.3533 91.222 58.0503C93.036 55.4473 94.033 52.2403 95.83 49.5303L98.315 47.5853Z" fill="#D07D94"/>
<path d="M76.5088 54.134L77.2177 54.461C76.7057 58.081 76.5288 61.622 76.4278 65.27L76.7948 65.64C77.0448 61.182 77.2347 56.792 78.4117 52.459L78.8838 52.381L79.1418 52.856C77.6728 59.15 77.7768 64.374 78.8538 70.707C80.9778 66.241 82.0788 62.604 86.1768 59.6049C87.3848 58.721 88.9088 58.165 89.8118 56.959L91.0667 58.424C89.8887 59.727 88.8878 61.231 87.8448 62.645C90.0118 60.673 92.2517 58.856 94.5577 57.054L94.4738 59.144C92.4978 60.75 90.2818 62.363 89.7618 65.008C90.0018 66.297 90.4557 67.261 91.5887 68.007C93.0397 68.963 94.9088 69.641 96.4698 70.453C96.1948 71.119 96.1238 71.466 95.5438 71.92C93.1188 70.947 89.0127 69.885 87.9717 67.323C87.2257 65.488 87.4637 63.113 85.9887 61.692C85.5517 61.9 85.3678 61.848 85.2028 62.331C83.9018 66.137 84.6368 70.21 86.4398 73.713C87.0838 74.966 87.8197 76.178 88.5497 77.382L86.8848 77.863C84.7798 74.881 83.5808 71.741 82.5138 68.271C81.0848 70.023 79.9608 72.031 78.7838 73.957L77.1308 73.543C77.0138 65.646 74.9138 63.049 76.5088 54.134Z" fill="#ECC0EF"/>
<path d="M88.5503 77.382C87.8203 76.178 87.0843 74.966 86.4403 73.713C84.6373 70.21 83.9023 66.137 85.2033 62.331C85.3683 61.848 85.5523 61.9 85.9893 61.692C87.4643 63.113 87.2263 65.488 87.9723 67.323C89.0133 69.885 93.1193 70.947 95.5443 71.92C98.2653 74.014 100.218 75.933 100.67 79.529C100.881 81.212 101.011 82.926 100.927 84.622C95.5923 83.494 92.3553 81.221 88.5503 77.382Z" fill="#D07D94"/>
<path d="M82.5139 68.271C83.5809 71.741 84.7799 74.881 86.8849 77.863L88.5499 77.382C92.3549 81.221 95.5919 83.494 100.927 84.622L100.995 85.589L99.7409 86.109C103.458 86.786 104.728 89.238 107.8 90.727C109.68 92.791 111.145 94.772 112.392 97.275L113.464 101.427C113.264 102.718 113.165 104.173 112.774 105.42C112.398 106.618 112.04 107.314 110.959 107.92L110.226 107.594C110.281 106.744 110.435 105.723 110.193 104.899C109.249 101.679 98.9589 103.058 96.1599 102.441C94.5889 102.095 93.0949 101.173 91.7029 100.39C91.1069 99.712 90.4959 99.012 90.0109 98.248C88.2399 95.458 87.3219 92.183 85.3109 89.511C83.5229 87.134 80.7959 85.412 79.2019 82.914C77.4279 80.134 78.1209 76.947 78.7839 73.957C79.9609 72.031 81.0849 70.023 82.5139 68.271Z" fill="#D07D94"/>
<path d="M88.5497 77.382C92.3547 81.221 95.5918 83.494 100.927 84.622L100.995 85.589L99.7408 86.109C94.2218 85.219 90.2408 82.205 86.8848 77.863L88.5497 77.382Z" fill="#ECC0EF"/>
<path d="M94.5582 57.054C102.414 51.767 107.355 58.478 112.646 56.734L113.634 58.138L117.032 57.359C118.555 57.626 119.673 57.981 121.017 58.75C121.784 60.953 122.402 63.476 124.027 65.199C124.13 65.308 124.228 65.422 124.332 65.529C124.395 65.593 124.464 65.652 124.53 65.714C124.385 67.195 124.351 67.925 123.098 68.925C122.475 69.423 121.81 69.876 121.155 70.33L121.64 70.673L123.485 72.405C124.515 74.77 124.859 76.967 124.621 79.546C123.704 82.776 122.295 85.033 119.313 86.733C119.06 86.8763 118.803 87.0136 118.543 87.145L116.631 86.887C115.74 88.668 114.882 90.215 112.85 90.869C111.886 91.179 111.014 91.08 110.038 90.91L107.8 90.727C104.728 89.238 103.458 86.786 99.7412 86.109L100.995 85.589L100.927 84.622C101.011 82.926 100.881 81.212 100.67 79.529C100.218 75.933 98.2652 74.014 95.5442 71.92C96.1242 71.466 96.1952 71.119 96.4702 70.453C94.9092 69.641 93.0402 68.963 91.5892 68.007C90.4562 67.261 90.0022 66.297 89.7622 65.008C90.2822 62.363 92.4982 60.75 94.4742 59.144L94.5582 57.054Z" fill="#ECC0EF"/>
<path d="M112.117 73.32L112.339 72.08C113.288 71.579 113.653 71.889 114.665 72.159C116.112 73.55 116.291 76.086 116.496 78.023C116.332 79.071 115.841 80.494 116.575 81.391C116.703 81.547 116.895 81.639 117.055 81.762C115.765 81.913 114.953 82.115 113.871 82.847C113.898 80.563 113.578 78.246 113.297 75.982L112.117 73.32Z" fill="#ECC0EF"/>
<path d="M112.117 73.32L112.339 72.08C113.288 71.579 113.653 71.889 114.665 72.159C114.457 73.643 114.566 74.773 113.443 75.877C113.4 75.919 113.346 75.947 113.297 75.982L112.117 73.32Z" fill="#ECC0EF"/>
<path d="M110.135 75.96C110.445 75.613 110.516 75.196 110.66 74.761C109.594 73.259 108.136 73.414 106.987 72.078L107.556 71.623C109.534 71.652 110.538 72.273 112.117 73.32L113.297 75.982C113.578 78.246 113.898 80.563 113.871 82.847C112.425 84.499 111.033 86.047 108.732 86.412L109.21 83.983C109.326 83.714 109.437 83.442 109.568 83.18C110.986 80.345 110.926 78.943 110.135 75.96Z" fill="#ECC0EF"/>
<path d="M105.434 78.053C105.674 77.339 105.999 76.675 106.314 75.993C107.759 75.328 108.63 75.702 110.135 75.96C110.926 78.943 110.986 80.345 109.568 83.18C109.437 83.442 109.326 83.714 109.21 83.983L106.828 84.918L106.586 84.361L105.647 84.756L104.967 84.435C104.972 82.848 104.891 81.286 104.78 79.703L104.924 78.332L105.434 78.053Z" fill="#D07D94"/>
<path d="M104.924 78.332L105.434 78.053L106.286 79.808C107.204 79.538 108.128 79.2897 109.058 79.063L109.634 80.003C108.737 81.671 107.958 83.026 106.586 84.361L105.647 84.756L104.967 84.435C104.972 82.848 104.891 81.286 104.78 79.703L104.924 78.332Z" fill="#ECC0EF"/>
<path d="M117.055 81.762L118.373 82.569L116.923 83.335C116.84 84.518 116.787 85.711 116.631 86.887C115.74 88.668 114.882 90.215 112.85 90.869C111.886 91.179 111.014 91.08 110.038 90.91C108.756 89.808 107.03 88.72 106.527 87.104L107.606 87.613L108.732 86.412C111.033 86.047 112.425 84.499 113.871 82.847C114.953 82.115 115.765 81.913 117.055 81.762Z" fill="#D07D94"/>
<path d="M117.055 81.762L118.373 82.569L116.923 83.335C113.899 85.771 111.666 87.66 107.606 87.613L108.732 86.412C111.033 86.047 112.425 84.499 113.871 82.847C114.953 82.115 115.765 81.913 117.055 81.762Z" fill="#ECC0EF"/>
<path d="M96.4699 70.453C102.6 74.428 102.373 82.797 103.97 83.147C104.424 82.014 104.592 80.905 104.78 79.703C104.891 81.286 104.972 82.848 104.967 84.435L105.647 84.756L106.586 84.361L106.828 84.918L109.21 83.983L108.732 86.412L107.606 87.613L106.527 87.104C107.03 88.72 108.756 89.808 110.038 90.91L107.8 90.727C104.728 89.238 103.458 86.786 99.7409 86.109L100.995 85.589L100.927 84.622C101.011 82.926 100.881 81.212 100.67 79.529C100.218 75.933 98.2649 74.014 95.5439 71.92C96.1239 71.466 96.1949 71.119 96.4699 70.453Z" fill="#ECC0EF"/>
<path d="M106.828 84.918L109.21 83.983L108.732 86.412L107.606 87.613L106.527 87.104L105.83 86.238L106.828 84.918Z" fill="#ECC0EF"/>
<path d="M121.64 70.673L123.485 72.405C124.515 74.77 124.859 76.967 124.621 79.546C123.704 82.776 122.295 85.033 119.313 86.733C119.059 86.8763 118.803 87.0137 118.543 87.145L116.631 86.887C116.787 85.711 116.84 84.518 116.923 83.335L118.373 82.569L117.055 81.762C116.895 81.639 116.703 81.547 116.575 81.391C115.841 80.494 116.332 79.071 116.496 78.023C116.888 76.684 117.268 75.31 117.839 74.034C118.698 72.113 119.716 71.417 121.64 70.673Z" fill="#D07D94"/>
<path d="M118.373 82.569C118.717 84.231 118.739 85.468 118.543 87.145L116.631 86.887C116.787 85.711 116.84 84.518 116.923 83.335L118.373 82.569Z" fill="#ECC0EF"/>
<path d="M117.187 56.9853C118.71 57.2523 119.828 57.6073 121.172 58.3763C121.939 60.5793 122.557 63.1023 124.182 64.8253C124.285 64.9343 124.383 65.0483 124.487 65.1553C124.55 65.2193 124.619 65.2783 124.685 65.3403C124.54 66.8213 124.506 67.5513 123.253 68.5513C122.63 69.0493 121.965 69.5023 121.31 69.9563C116.737 70.0363 118.418 65.5843 114.387 64.9193C110.797 64.3263 106.383 67.3073 103.212 66.3443L103.293 66.0653C103.633 64.9243 103.913 63.6633 104.42 62.5873C105.862 59.5283 110.865 58.9043 113.789 57.7643L117.187 56.9853Z" fill="#D07D94"/>
<path d="M94.713 56.6803C102.569 51.3933 107.51 58.1043 112.801 56.3603L113.789 57.7643C110.865 58.9043 105.862 59.5283 104.42 62.5873C103.913 63.6633 103.633 64.9243 103.293 66.0653L103.212 66.3443C103.038 67.5873 103.769 68.0563 103.572 69.1843C103.956 70.1163 104.448 71.0103 104.462 72.0283C104.709 73.9793 105.073 75.9923 105.079 77.9583L104.935 79.3293C104.747 80.5313 104.579 81.6403 104.125 82.7733C102.528 82.4233 102.755 74.0543 96.625 70.0793C95.064 69.2673 93.195 68.5893 91.744 67.6333C90.611 66.8873 90.157 65.9233 89.917 64.6343C90.437 61.9893 92.653 60.3763 94.629 58.7703L94.713 56.6803Z" fill="#ECC0EF"/>
<path d="M104.307 72.402C101.511 71.279 98.8413 69.366 97.4743 66.604C96.2863 64.205 96.4173 62.404 97.2033 59.958L98.4583 60.949C98.3463 64.02 98.8164 66.0809 100.95 68.3979C101.3 68.7769 101.638 69.065 102.044 69.383L103.417 69.558C103.801 70.49 104.293 71.384 104.307 72.402Z" fill="#ECC0EF"/>
<path d="M94.5581 57.054C102.414 51.767 107.355 58.478 112.646 56.734L113.634 58.138C110.71 59.278 105.707 59.902 104.265 62.961C103.758 64.037 103.478 65.298 103.138 66.439L103.057 66.718C102.883 67.961 103.614 68.43 103.417 69.558L102.044 69.383C101.638 69.065 101.3 68.777 100.95 68.398C98.8161 66.081 98.3461 64.02 98.4581 60.949L97.2031 59.958C97.8541 59.171 98.2021 58.592 98.5751 57.642C97.1291 57.545 95.7751 58.517 94.4741 59.144L94.5581 57.054Z" fill="#ECC0EF"/>
<path d="M98.613 60.5753C100.352 58.3963 102.142 56.7633 104.976 56.2373C105.814 56.4113 106.292 56.4353 106.882 57.1083C104.475 59.9533 101.131 60.3083 101.508 64.8713C101.622 66.2553 101.964 67.6403 102.199 69.0093C101.793 68.6913 101.455 68.4033 101.105 68.0243C98.971 65.7073 98.501 63.6463 98.613 60.5753Z" fill="#D07D94"/>
</svg>
