<svg width="119" height="120" viewBox="0 0 119 120" fill="none" xmlns="http://www.w3.org/2000/svg">
<path d="M9.33691 113.867C10.2317 112.465 10.9112 110.723 12.4609 109.992C13.982 110.902 14.6715 112.646 15.6452 114.087C14.5388 115.992 14.2841 117.75 13.4233 119.671L12.9269 119.675L10.7126 117.755C10.389 116.342 10.1084 115.122 9.33691 113.867Z" fill="#E2C5BC"/>
<path d="M76.5625 4.3412C77.6195 3.0246 81.2925 2.8255 82.9395 2.5647C81.7265 3.5481 80.4295 4.8583 79.0185 5.5088L78.0555 5.1445L78.5875 4.8722L77.8835 4.5647L77.2905 4.82809L76.5625 4.3412Z" fill="#B29187"/>
<path d="M55.6855 36.0865C57.1185 37.1775 58.5735 38.4405 60.1145 39.3625C60.3625 39.6885 60.5305 40.1225 60.7145 40.4905C59.1325 41.0295 56.6435 40.2335 54.9885 39.9245C55.6135 39.5015 56.1325 38.9895 56.6755 38.4705L55.6855 36.0865Z" fill="#BC9D72"/>
<path d="M25.3071 0C26.2694 0.2448 26.9919 0.851998 27.4726 1.7185C29.2954 5.0048 28.4949 9.9013 27.5126 13.3329C26.4495 11.1497 25.5894 8.4141 24.97 6.0643C24.3566 3.7373 24.0413 2.1819 25.3071 0Z" fill="#FFFEFF"/>
<path d="M112.961 9.6712C115.241 10.3459 117.633 10.8621 118.894 13.086L118.463 13.9441L115.24 14.994L114.858 15.7495C113.156 14.2628 111.15 13.7658 109.008 13.2636C109.441 12.8291 109.9 12.2942 110.395 11.9368C111.301 11.2823 111.898 10.846 112.664 10.0021L112.961 9.6712Z" fill="#E2C5BC"/>
<path d="M1.35419 24.4905C3.71129 24.7189 10.2321 26.4203 11.7174 28.1021L10.6443 28.8358C8.55109 29.0768 6.51289 29.144 4.40699 29.0096C2.67829 28.8992 1.20599 28.7209 0.00818712 27.3569C-0.0675129 25.798 0.381788 25.655 1.35419 24.4905Z" fill="#FFFEFF"/>
<path d="M5.36431 43.2185C4.45191 43.0485 3.9859 42.7545 3.2302 42.2525C2.8811 41.5825 2.5067 41.1555 2.5801 40.3745C2.7789 38.2635 5.2182 35.8785 6.7726 34.5845C9.7222 32.1305 13.8131 29.5075 17.8009 29.8425C12.3054 33.9585 9.87461 38.4025 5.36431 43.2185Z" fill="#FFFEFF"/>
<path d="M29.065 18.7954C29.0442 18.5072 29.0236 18.2185 29.0203 17.9295C28.9756 14.0233 32.0685 8.8622 34.7355 6.1499C36.0505 4.8128 37.8595 3.47101 39.8245 3.57591C41.2885 3.65401 42.1205 4.40571 43.0915 5.41531C40.5755 8.52031 36.8585 10.6382 33.8755 13.2934C32.0245 14.9408 30.6965 16.953 29.065 18.7954Z" fill="#FFFEFF"/>
<path d="M43.0916 5.41528L43.7206 6.26088C40.1296 9.93928 33.3596 13.3823 30.8266 17.6608L31.2536 18.9897C31.2896 18.9698 31.3256 18.9493 31.3626 18.9299C31.4736 18.8712 31.5856 18.8158 31.6956 18.7552C35.4696 16.6665 38.5636 11.2941 42.4216 9.96449L42.9026 10.3267C38.0436 14.957 33.2476 18.9674 29.0551 24.2876C28.311 24.2149 27.6678 24.0865 26.9661 24.4175C26.6695 25.6806 26.7963 25.9709 25.6966 26.7348L23.473 26.658L23.276 27.655C19.3285 28.1014 13.8078 34.0475 11.3623 37.1105C9.71026 39.1795 7.32326 41.7315 6.71026 44.3025C6.20826 43.9975 5.90816 43.6335 5.47246 43.2625C5.44286 43.2375 5.40036 43.2335 5.36426 43.2185C9.87456 38.4025 12.3054 33.9585 17.8009 29.8425C19.2924 28.6402 20.7282 27.4079 22.0096 25.9792L21.9421 25.1868L19.9993 25.4253C21.8789 23.935 23.3422 22.5898 24.6934 20.5993L24.4815 22.4192C24.8221 23.0547 24.9871 22.9316 25.6469 23.1327C27.3908 22.123 28.4416 20.7041 29.0651 18.7954C30.6966 16.953 32.0246 14.9408 33.8756 13.2934C36.8586 10.6382 40.5756 8.52028 43.0916 5.41528Z" fill="#DDC2D4"/>
<path d="M23.4729 26.658C23.4317 25.9087 23.6442 25.3278 23.8572 24.6185C25.0994 24.0557 25.6347 24.2569 26.966 24.4175C26.6694 25.6806 26.7962 25.9709 25.6965 26.7348L23.4729 26.658Z" fill="#642B2C" fill-opacity="0.83"/>
<path d="M106.76 7.6446C107.457 7.493 107.712 7.4187 108.423 7.59C109.389 8.7863 109.808 9.3243 111.42 9.5295C111.931 9.5944 112.447 9.6318 112.96 9.6712L112.663 10.0021C111.897 10.846 111.3 11.2823 110.394 11.9368C109.899 12.2942 109.44 12.8291 109.007 13.2636C111.149 13.7658 113.155 14.2628 114.857 15.7495C113.996 16.1555 112.932 16.5359 112.201 17.1326C110.787 17.9808 109.691 18.6166 108.01 18.8224C105.361 17.4427 102.908 16.3798 100.441 14.6254L99.5735 13.2582C101.402 10.8236 104.232 9.26191 106.76 7.6446Z" fill="#E2C5BC"/>
<path d="M106.76 7.6446C107.457 7.493 107.712 7.4187 108.423 7.59C107.995 9.2212 107.705 9.6044 106.182 10.4994C104.178 11.6766 101.744 12.4428 99.5735 13.2582C101.402 10.8236 104.232 9.26191 106.76 7.6446Z" fill="#B7997A"/>
<path d="M100.441 14.6254C104.913 14.5031 108.212 14.9834 112.201 17.1326C110.787 17.9808 109.691 18.6166 108.01 18.8224C105.361 17.4427 102.908 16.3798 100.441 14.6254Z" fill="#BC9D72"/>
<path d="M99.1615 5.80319C101.661 6.38109 104.232 7.32479 106.76 7.64459C104.232 9.26189 101.402 10.8236 99.5735 13.2582L100.441 14.6254C102.908 16.3798 105.361 17.4427 108.01 18.8224C107.377 19.4404 106.9 19.8867 106.589 20.7438C104.509 22.4232 102.912 23.2176 100.166 23.3851C96.9555 20.8241 92.8465 19.1975 89.0085 17.8489C88.4005 17.0369 88.4045 16.6178 88.3655 15.6448C92.3035 13.0366 96.1525 9.44699 99.1615 5.80319Z" fill="url(#paint0_linear_29_1114)"/>
<path d="M89.0085 17.8489C92.8815 16.1134 96.3326 15.7216 100.394 17.2794C102.5 18.0872 104.934 19.2014 106.59 20.7438C104.51 22.4232 102.913 23.2176 100.167 23.3851C96.9555 20.8241 92.8465 19.1975 89.0085 17.8489Z" fill="#BC9E68"/>
<path d="M19.4729 2.37619C20.6369 8.68079 24.2345 14.227 24.6933 20.5993C23.3421 22.5898 21.8788 23.935 19.9992 25.4253C19.5139 25.3615 19.0378 25.2806 18.5545 25.2061C12.7905 24.3171 7.73749 21.055 1.91479 20.0982C3.48319 18.117 5.18759 16.273 6.89729 14.4144C6.64189 11.9539 6.7216 9.45209 6.7254 6.98019C9.06439 7.04959 11.357 7.30309 13.6791 7.58289L19.4729 2.37619Z" fill="#642B2C"/>
<path d="M15.2897 76.5695C16.7173 74.7555 18.1341 72.9905 19.7543 71.3445L20.2729 71.4765L19.9412 73.1925L21.2627 74.9075C20.8343 81.9125 25.9356 87.6975 29.5756 93.3035C28.7697 93.7565 28.0218 94.2065 27.2874 94.7685C26.3243 96.6705 25.3698 98.5445 24.2214 100.343C23.7768 101.014 23.3866 101.689 22.8029 102.248L20.1077 107.574C19.602 108.505 19.2202 109.316 18.348 109.964L16.8067 112.259C16.2961 112.877 15.7832 113.284 15.6454 114.087C14.6717 112.646 13.9822 110.902 12.4611 109.992C10.9114 110.723 10.2319 112.465 9.33706 113.867C8.72936 111.94 7.85676 110.525 6.72056 108.868C6.59326 106.757 5.84646 105.177 6.00516 102.904C4.55566 101.042 4.83676 97.9575 3.97046 95.6715L4.02456 92.2365L5.05636 90.4745C8.27836 85.6205 11.4591 80.9735 15.2897 76.5695Z" fill="#E3C6AE"/>
<path d="M5.05636 90.4745L6.54816 91.7675C5.74546 93.1245 4.96416 94.4395 3.97046 95.6715L4.02456 92.2365L5.05636 90.4745Z" fill="#BC9D72"/>
<path d="M19.5128 80.1905C20.4004 81.4675 21.0919 82.8465 21.8173 84.2195C20.8619 85.7435 20.0855 86.8055 18.6286 87.9065C18.5566 85.3395 19.1162 82.7235 19.5128 80.1905Z" fill="#BC9E68"/>
<path d="M21.8174 84.2195L24.5159 87.8665C22.9193 88.0865 20.3968 88.6315 19.1089 89.6255L18.6287 87.9065C20.0856 86.8055 20.862 85.7435 21.8174 84.2195Z" fill="#BC9E68"/>
<path d="M17.3322 81.1295C16.471 85.1615 15.4984 88.6185 12.8852 91.8945C12.594 90.4375 12.3062 89.1535 11.6479 87.8025C13.5543 85.5925 15.5096 83.4095 17.3322 81.1295Z" fill="#B7997A"/>
<path d="M11.648 87.8025C12.3063 89.1535 12.5941 90.4375 12.8853 91.8945C10.0938 95.1055 6.90004 98.0065 3.84424 100.965C6.01024 96.3755 8.34774 91.6835 11.648 87.8025Z" fill="#BC9E68"/>
<path d="M19.1089 89.6255C20.3968 88.6315 22.9193 88.0865 24.5159 87.8665C26.0941 90.1945 26.9181 91.9275 27.2874 94.7685C26.3243 96.6705 25.3698 98.5445 24.2214 100.344C22.1865 96.8295 20.513 93.4305 19.1089 89.6255Z" fill="#C3A561"/>
<path d="M15.7468 93.5685L16.8625 90.5605L17.2872 90.3805C19.1153 94.0995 21.7206 98.2825 22.8027 102.249L20.1075 107.574C17.2284 103.322 15.6165 98.7365 15.7468 93.5685Z" fill="#C3A561"/>
<path d="M15.2897 76.5695C16.7173 74.7555 18.1341 72.9905 19.7543 71.3445L20.2729 71.4765L19.9412 73.1925C16.9913 80.2535 11.8691 86.3315 6.54819 91.7675L5.0564 90.4745C8.2784 85.6205 11.4591 80.9735 15.2897 76.5695Z" fill="#BC9E68"/>
<path d="M6.00518 102.904C8.88038 103.434 10.8963 95.4215 14.1193 94.2075C14.6658 94.0015 15.2028 93.7805 15.747 93.5685C15.6167 98.7365 17.2286 103.322 20.1077 107.574C19.602 108.505 19.2202 109.316 18.348 109.964C18.2226 107.018 16.392 104.246 14.8366 101.848L14.0307 102.282C12.6942 101.877 12.6258 101.725 11.7757 100.597C9.97658 102.721 7.54718 106.222 6.72058 108.868C6.59328 106.757 5.84648 105.177 6.00518 102.904Z" fill="#E2C5BC"/>
<path d="M6.72046 108.868C7.54706 106.222 9.97646 102.722 11.7756 100.598C12.6257 101.726 12.6941 101.878 14.0306 102.283L14.8365 101.848C16.3919 104.246 18.2225 107.018 18.3479 109.964L16.8066 112.259C16.296 112.877 15.7831 113.284 15.6453 114.087C14.6716 112.646 13.9821 110.902 12.461 109.992C10.9113 110.723 10.2318 112.465 9.33696 113.867C8.72926 111.94 7.85666 110.525 6.72046 108.868Z" fill="#E2C6AF"/>
<path d="M14.0305 102.283L14.8364 101.849C16.3918 104.247 18.2224 107.019 18.3478 109.965L16.8065 112.26C14.7671 108.601 14.0899 106.518 14.0305 102.283Z" fill="#BC9E68"/>
<path d="M82.9396 2.5647L82.7226 4.983C84.8576 4.0679 86.8136 3.5266 89.1346 3.4155C89.4936 4.0583 89.6896 4.5479 90.3066 4.979L93.3576 4.47449L94.4506 4.219C95.1799 4.8124 95.9179 5.39513 96.6646 5.9672L99.1616 5.8032C96.1526 9.447 92.3036 13.0366 88.3656 15.6448C88.4046 16.6178 88.4006 17.0369 89.0086 17.8489C92.8466 19.1975 96.9556 20.8241 100.167 23.3851L99.6246 25.0779C97.7036 26.0471 95.7906 27.0856 93.8306 27.9721C93.3266 28.7185 93.0336 29.4365 92.5956 30.1995C92.5616 30.2575 92.4966 30.2905 92.4476 30.3365L85.6106 33.4245C84.8836 33.7945 84.6186 33.8615 84.1886 34.5395C82.1486 35.8935 80.8186 35.7725 78.4616 35.4615L77.3856 37.5585C77.2426 38.1035 76.9176 38.1815 76.4776 38.5075C73.5796 38.9915 71.3836 37.9885 68.9626 36.5205C66.1616 33.1185 58.0116 28.931 54.0036 26.8388C52.7606 26.3703 51.6896 25.6159 50.5766 24.9022L50.5486 24.6687C53.8096 22.5735 56.9006 20.5527 59.9636 18.1724C64.5176 13.497 69.6926 9.0762 74.9046 5.157L76.5626 4.3412L77.2906 4.82809L77.8836 4.5647L78.5876 4.8722L78.0556 5.1445L79.0186 5.5088C80.4296 4.8583 81.7266 3.5481 82.9396 2.5647Z" fill="#E2C5BC"/>
<path d="M58.3274 23.7034C62.6754 21.6629 65.9284 18.8203 69.7384 15.983C69.1564 16.9038 68.6294 17.7956 68.1724 18.7857L68.9174 19.3105C66.7774 21.9511 61.5444 23.0363 58.3274 23.7034Z" fill="#B7997A"/>
<path d="M50.5766 24.9022L50.5486 24.6687C53.8096 22.5735 56.9006 20.5527 59.9636 18.1724C61.0276 18.4662 62.0926 18.8046 63.1796 18.9987C59.2736 21.179 54.9996 24.1042 50.5766 24.9022Z" fill="#B7997A"/>
<path d="M96.6646 5.96719L99.1616 5.80319C96.1526 9.44699 92.3036 13.0366 88.3656 15.6448L83.4126 17.5216L81.1326 17.4433C86.1446 13.3576 90.8116 8.84859 96.6646 5.96719Z" fill="#BC9D72"/>
<path d="M82.7226 4.983C84.8576 4.0679 86.8136 3.5266 89.1346 3.4155C84.8426 7.5317 73.7276 16.7723 68.9176 19.3105L68.1726 18.7857C68.6296 17.7956 69.1566 16.9038 69.7386 15.983C72.0276 12.3392 79.1186 7.6102 82.7226 4.983Z" fill="#BC9D72"/>
<path d="M76.5626 4.34119L77.2906 4.82808L77.8836 4.56468L78.5876 4.87218L78.0556 5.14449L79.0186 5.50878C74.0196 10.0654 68.9496 15.4304 63.1796 18.9987C62.0926 18.8046 61.0276 18.4662 59.9636 18.1724C64.5176 13.497 69.6926 9.07618 74.9046 5.15698L76.5626 4.34119Z" fill="#BC9D72"/>
<path d="M93.3576 4.47449L94.0316 4.93129C93.9846 5.06799 93.9446 5.20699 93.8916 5.34129C93.4916 6.35219 78.7666 17.3787 77.0856 18.3581C74.7706 19.7064 72.2316 20.6135 69.7266 21.5388C75.6636 15.1383 83.2746 10.0971 90.3066 4.97899L93.3576 4.47449Z" fill="#BC9D72"/>
<path d="M78.4616 35.4615C75.7826 34.1025 65.2216 27.7339 64.1536 25.236C64.5136 25.0063 64.8066 24.8119 65.2366 24.7366C71.9256 23.5644 79.4116 30.7225 84.1886 34.5395C82.1486 35.8935 80.8186 35.7725 78.4616 35.4615Z" fill="#BC9E68"/>
<path d="M54.0034 26.8388C58.0164 25.5659 60.7224 26.1872 64.3714 28.1142C68.3874 30.2355 74.4754 34.1615 77.3854 37.5585C77.2424 38.1035 76.9174 38.1815 76.4774 38.5075C73.5794 38.9915 71.3834 37.9885 68.9624 36.5205C66.1614 33.1185 58.0114 28.931 54.0034 26.8388Z" fill="#BC9E68"/>
<path d="M85.6104 33.4245C83.2544 32.3475 72.9284 24.8994 72.1074 22.6989C72.3604 22.3106 72.4314 21.9368 72.9084 21.8455C79.7454 20.5383 87.2874 26.7581 92.4474 30.3365L85.6104 33.4245Z" fill="#BC9E68"/>
<path d="M83.4125 17.5216L88.3655 15.6448C88.4045 16.6178 88.4005 17.0369 89.0085 17.8489C92.8465 19.1975 96.9555 20.8241 100.167 23.3851L99.6245 25.0779C97.7035 26.0471 95.7905 27.0856 93.8305 27.9721C93.6415 27.9463 93.4535 27.9187 93.2655 27.8949C88.7605 27.3259 84.5725 23.1576 81.0835 20.4704C80.8415 19.7844 80.6355 19.0836 80.4165 18.3898L81.1325 17.4433L83.4125 17.5216Z" fill="#BC9E68"/>
<path d="M81.0835 20.4704C80.8415 19.7844 80.6355 19.0836 80.4165 18.3898L81.1325 17.4433L83.4125 17.5216C84.5735 18.8168 85.5465 18.8088 87.1975 19.2C85.4745 19.2328 82.6615 18.9328 81.3265 20.1864C81.2355 20.2717 81.1645 20.3757 81.0835 20.4704Z" fill="#E2C6AF"/>
<path d="M83.4126 17.5216L88.3656 15.6448C88.4046 16.6178 88.4006 17.0369 89.0086 17.8489C92.8466 19.1975 96.9556 20.8241 100.167 23.3851L99.6246 25.0779C95.8276 22.1509 91.7406 20.5616 87.1976 19.2C85.5466 18.8088 84.5736 18.8168 83.4126 17.5216Z" fill="#E3C6AE"/>
<path d="M67.1905 2.62391L68.0755 2.743L68.4025 4.0255C70.3785 3.152 72.5545 2.1029 74.6965 2.7877C74.6305 3.6695 74.2655 3.9402 73.7315 4.6274L74.9045 5.157C69.6925 9.0762 64.5175 13.497 59.9635 18.1724C56.9005 20.5527 53.8095 22.5735 50.5485 24.6687L50.5765 24.9022C51.6895 25.6159 52.7605 26.3703 54.0035 26.8388C58.0115 28.931 66.1615 33.1185 68.9625 36.5205L67.8145 37.4005C69.1965 38.3915 70.5635 39.4185 71.9805 40.3585C67.7585 40.4395 64.7985 40.5205 60.9625 38.4705L60.1145 39.3625C58.5735 38.4405 57.1185 37.1775 55.6855 36.0865L56.6755 38.4705C56.1325 38.9895 55.6135 39.5015 54.9885 39.9245L49.8575 37.5645L48.1085 38.9095L47.1695 38.5815C45.2375 37.9295 43.3345 37.1485 41.4275 36.4255L40.8885 36.3665C39.3315 36.6255 38.5695 36.7335 37.5315 38.0775C36.5505 39.3475 36.2555 40.8105 36.2755 42.3725L37.8665 47.5035C38.5945 49.1155 38.3515 50.9045 38.2985 52.6365C39.1255 55.5195 39.8415 58.3145 40.0825 61.3145L38.6385 62.7725C39.6945 65.4515 40.6505 68.2565 39.2995 71.0575C39.2595 71.1405 39.2055 71.2165 39.1585 71.2965L37.4275 71.5915C38.0505 74.0965 38.3645 75.9015 37.1565 78.3285C35.9775 79.5575 35.5415 80.2505 35.3405 81.9335L34.2155 84.7085L32.6465 86.8965C31.6765 89.0605 30.7345 91.2315 29.5755 93.3035C25.9355 87.6975 20.8342 81.9125 21.2626 74.9075L19.9411 73.1925L20.2728 71.4765L19.7542 71.3445C18.134 72.9905 16.7172 74.7555 15.2896 76.5695C11.459 80.9735 8.27834 85.6205 5.05634 90.4745L4.02455 92.2365C3.84935 90.9705 3.71914 90.7275 2.94004 89.7085C2.21044 86.9255 1.67634 84.3025 2.06124 81.4215C2.36984 79.9895 2.88994 78.5905 3.34464 77.1985L1.93274 75.4245C1.87984 75.3315 1.80204 75.2495 1.77414 75.1465C1.21384 73.0775 2.70904 70.4095 3.69624 68.6635L1.90054 68.2345C2.79774 62.6405 3.75594 58.6165 7.12024 53.9965L5.46494 52.8245C5.77054 51.0495 6.44614 49.3705 7.05804 47.6825C7.02654 47.1615 7.00934 46.6235 7.11524 46.1075C7.96654 41.9615 19.6596 31.3385 23.276 28.6511C23.3813 28.5728 23.4884 28.4968 23.5946 28.4196L23.2759 27.655L23.4729 26.658L25.6965 26.7348C26.7962 25.9709 26.6694 25.6806 26.966 24.4175C27.6677 24.0865 28.3109 24.2149 29.055 24.2876C33.2475 18.9674 38.0435 14.957 42.9025 10.3267C45.8515 8.5569 48.7475 6.7673 52.2125 6.3138L53.2385 7.8136C57.4385 4.6361 62.0195 3.27981 67.1905 2.62391Z" fill="#DFC4C3"/>
<path d="M41.4275 36.4255L42.1275 34.2235C43.5515 35.2125 46.7095 36.8955 47.1695 38.5815C45.2375 37.9295 43.3345 37.1485 41.4275 36.4255Z" fill="#BC9E68"/>
<path d="M34.3186 25.5965L40.3316 20.7325L39.5866 22.9248C40.4566 23.4819 41.2496 23.5151 42.2466 23.612C39.8266 25.0204 37.0396 25.2547 34.3186 25.5965Z" fill="#BC9E68"/>
<path d="M40.8885 36.3665C38.4805 35.2305 36.0245 33.7745 33.8155 32.2835C32.2345 31.2155 30.2435 29.8775 29.8635 27.8951L30.6305 27.3123C35.1375 27.5048 38.9995 31.3215 42.1275 34.2235L41.4275 36.4255L40.8885 36.3665Z" fill="#BC9E68"/>
<path d="M37.8666 47.5035L37.0356 47.1785C33.7266 43.0885 26.6141 36.0225 26.6434 30.6755L27.2979 30.4635C31.5476 32.5955 34.2696 38.2525 36.2756 42.3725L37.8666 47.5035Z" fill="#BC9E68"/>
<path d="M49.8576 37.5645C46.6566 35.6015 38.8516 31.0005 37.9016 27.2438L38.6426 26.9744C45.1746 27.8741 50.6786 32.0945 55.6856 36.0865L56.6756 38.4705C56.1326 38.9895 55.6136 39.5015 54.9886 39.9245L49.8576 37.5645Z" fill="#BC9E68"/>
<path d="M26.0453 62.8465C25.2895 60.5995 25.0899 58.3685 25.7434 56.0625C26.8896 56.2625 27.5445 57.1985 28.2171 58.1215C31.2154 62.2345 33.8104 68.1415 37.4274 71.5915C38.0504 74.0965 38.3644 75.9015 37.1564 78.3285C33.9944 73.9285 30.7224 69.6135 27.608 65.1775L26.0453 62.8465Z" fill="#BC9E68"/>
<path d="M47.2585 27.7293C56.1465 28.1877 60.9365 32.3855 67.8145 37.4005C69.1965 38.3915 70.5635 39.4185 71.9805 40.3585C67.7585 40.4395 64.7986 40.5205 60.9626 38.4705C56.4966 34.7605 51.7615 31.3965 47.2585 27.7293Z" fill="#BC9E68"/>
<path d="M27.1042 47.8675C31.0114 52.7845 34.9875 57.6615 38.6385 62.7725C39.6945 65.4515 40.6504 68.2565 39.2994 71.0575C39.2594 71.1405 39.2054 71.2165 39.1584 71.2965C32.9634 64.2725 27.8154 57.4475 27.1042 47.8675Z" fill="#BC9E68"/>
<path d="M40.0826 61.3145L39.3966 61.0945C35.1536 56.2015 30.7366 51.0255 28.1763 45.0045C27.5418 43.5125 26.5052 41.0485 27.1298 39.4695L28.0733 39.4805C32.6166 42.3625 35.8076 47.9725 38.2986 52.6365C39.1256 55.5195 39.8416 58.3145 40.0826 61.3145Z" fill="#BC9E68"/>
<path d="M52.2124 6.31378C49.2284 11.3546 36.5204 23.3925 30.9934 24.522C30.2584 24.6722 29.7474 24.5191 29.0549 24.2876C33.2474 18.9674 38.0434 14.957 42.9024 10.3267C45.8514 8.55688 48.7474 6.76728 52.2124 6.31378Z" fill="#BC9E68"/>
<path d="M7.05794 47.6825C11.6361 40.8165 17.8086 33.2275 24.8457 28.7504C22.1269 37.4455 16.8438 43.0905 10.208 49.0295C8.96514 50.1425 7.27824 52.0285 5.78654 52.7125C5.68324 52.7595 5.57204 52.7875 5.46484 52.8245C5.77044 51.0495 6.44604 49.3705 7.05794 47.6825Z" fill="#BC9E68"/>
<path d="M68.4026 4.0255C70.3786 3.152 72.5546 2.1029 74.6966 2.7877C74.6306 3.6695 74.2656 3.9402 73.7316 4.6274C66.5906 6.6088 58.3596 22.2904 42.5166 25.2045C48.1186 21.9365 52.4736 16.6718 57.3426 12.4209C60.8366 9.3713 64.6926 6.7971 68.4026 4.0255Z" fill="#BC9E68"/>
<path d="M67.1904 2.6239C66.5354 4.6373 62.5194 6.5992 60.8144 7.7947C54.1384 12.4753 49.0424 19.2227 42.2464 23.612C41.2494 23.5151 40.4564 23.4819 39.5864 22.9248L40.3314 20.7325C44.5734 16.3713 48.7634 11.9376 53.2384 7.8136C57.4384 4.6361 62.0194 3.2798 67.1904 2.6239Z" fill="#BC9E68"/>
<path d="M3.69624 68.6635C6.16904 65.4065 8.22414 61.6105 10.8839 58.5565C15.6021 53.1385 21.0056 48.4535 25.5102 42.8125C24.3372 45.8095 23.2184 48.9255 21.663 51.7475C17.5401 59.2285 8.43084 69.8305 1.93274 75.4245C1.87984 75.3315 1.80204 75.2495 1.77414 75.1465C1.21384 73.0775 2.70904 70.4095 3.69624 68.6635Z" fill="#BC9E68"/>
<path d="M25.7564 34.5595C24.8796 37.4735 24.1087 40.8875 22.4827 43.4695C19.0167 48.9755 13.7671 53.3585 9.65929 58.3875C7.43919 61.1055 4.70379 66.5355 1.90039 68.2345C2.79759 62.6405 3.75579 58.6165 7.12009 53.9965C13.2166 47.4035 19.6128 41.1045 25.7564 34.5595Z" fill="#BC9E68"/>
<path d="M3.34456 77.1985C4.32266 75.4895 23.9089 52.0285 24.2412 51.8575C23.9769 53.1085 23.623 54.2885 23.2098 55.4975C22.0304 57.0695 20.9806 58.5135 20.1988 60.3305L21.1766 62.4035C19.6682 65.1445 17.6969 67.4815 15.7293 69.8955L17.5134 69.6235L18.0135 70.1995C16.9005 72.2425 15.8178 74.0255 14.2595 75.7585L15.2896 76.5695C11.459 80.9735 8.27826 85.6205 5.05626 90.4745L4.02446 92.2365C3.84926 90.9705 3.71906 90.7275 2.93996 89.7085C2.21036 86.9255 1.67626 84.3025 2.06116 81.4215C2.36976 79.9895 2.88986 78.5905 3.34456 77.1985Z" fill="#BC9E68"/>
<path d="M2.06116 81.4215C2.34266 82.1205 2.13115 81.8135 2.70885 82.3345C8.84835 75.2175 15.5998 68.5865 20.1988 60.3305L21.1766 62.4035C19.6682 65.1445 17.6969 67.4815 15.7293 69.8955C10.9822 74.2245 3.18855 82.0825 2.93355 88.8025C2.92205 89.1045 2.93046 89.4065 2.93996 89.7085C2.21036 86.9255 1.67626 84.3025 2.06116 81.4215Z" fill="#E2C6AF"/>
<path d="M15.7292 69.8955L17.5134 69.6235L18.0134 70.1995C16.9004 72.2425 15.8177 74.0255 14.2594 75.7585L15.2895 76.5695C11.459 80.9735 8.27825 85.6205 5.05625 90.4745L4.02445 92.2365C3.84925 90.9705 3.71905 90.7275 2.93995 89.7085C2.93045 89.4065 2.92205 89.1045 2.93355 88.8025C3.18855 82.0825 10.9821 74.2245 15.7292 69.8955Z" fill="#BC9E68"/>
<path d="M2.93994 89.7085C6.12594 85.1445 10.1276 79.4795 14.2594 75.7585L15.2895 76.5695C11.4589 80.9735 8.27824 85.6205 5.05624 90.4745L4.02444 92.2365C3.84924 90.9705 3.71904 90.7275 2.93994 89.7085Z" fill="#E3C79B"/>
<path d="M20.1988 60.3305C20.9806 58.5135 22.0304 57.0695 23.2098 55.4975C23.0386 56.3895 22.541 58.0035 22.8839 58.8385C23.5074 60.3565 23.4489 61.8075 24.7611 62.9645L26.0454 62.8465L27.6081 65.1775C30.7225 69.6135 33.9945 73.9285 37.1565 78.3285C35.9775 79.5575 35.5415 80.2505 35.3405 81.9335L34.2155 84.7085L32.6465 86.8965C31.6765 89.0605 30.7345 91.2315 29.5755 93.3035C25.9355 87.6975 20.8342 81.9125 21.2626 74.9075L19.9411 73.1925L20.2728 71.4765L19.7542 71.3445C18.134 72.9905 16.7172 74.7555 15.2896 76.5695L14.2595 75.7585C15.8178 74.0255 16.9005 72.2425 18.0135 70.1995L17.5134 69.6235L15.7293 69.8955C17.6969 67.4815 19.6682 65.1445 21.1766 62.4035L20.1988 60.3305Z" fill="#E2C6AF"/>
<path d="M21.1766 62.4035L22.2674 60.8225L22.6743 61.3525C22.1389 63.9955 20.5149 68.2485 18.3969 69.9735C18.2818 70.0675 18.1413 70.1245 18.0135 70.1995L17.5134 69.6235L15.7292 69.8955C17.6968 67.4815 19.6682 65.1445 21.1766 62.4035Z" fill="#B7997A"/>
<path d="M21.2626 74.9075L22.4495 72.4375L22.9829 72.4165C25.9306 76.9095 30.8595 81.9295 32.6465 86.8965C31.6765 89.0605 30.7345 91.2315 29.5755 93.3035C25.9355 87.6975 20.8342 81.9125 21.2626 74.9075Z" fill="#C3A561"/>
<path d="M34.2155 84.7085C31.5725 81.6625 28.5861 78.5905 26.5552 75.0915C24.8057 72.0775 23.5632 68.1045 24.4789 64.6335L25.0911 64.4985L26.2551 65.5905L27.6081 65.1775C30.7225 69.6135 33.9945 73.9285 37.1565 78.3285C35.9775 79.5575 35.5415 80.2505 35.3405 81.9335L34.2155 84.7085Z" fill="#BC9E68"/>
<path d="M27.6081 65.1775C30.7225 69.6135 33.9945 73.9285 37.1565 78.3285C35.9775 79.5575 35.5415 80.2505 35.3405 81.9335C34.4825 75.2725 28.5634 71.5085 26.2551 65.5905L27.6081 65.1775Z" fill="#E3C79B"/>
<defs>
<linearGradient id="paint0_linear_29_1114" x1="99.301" y1="17.9267" x2="90.8364" y2="12.5384" gradientUnits="userSpaceOnUse">
<stop stop-color="#E1C2AE"/>
<stop offset="1" stop-color="#E4C8C6"/>
</linearGradient>
</defs>
</svg>
