<svg width="244" height="114" viewBox="0 0 244 114" fill="none" xmlns="http://www.w3.org/2000/svg">
<path d="M105.309 8.45508C106.932 8.80008 107.795 9.11308 108.764 10.5151C108.633 11.6101 108.571 11.6651 107.829 12.4901C107.239 13.1731 107.078 13.187 106.201 13.449L105.288 12.676C104.76 10.759 104.789 10.3801 105.309 8.45508Z" fill="#BC9D72"/>
<path d="M136.475 8.56396L138.226 8.89099C138.737 9.29299 139.142 9.56597 139.391 10.186C139.761 11.108 139.748 11.212 139.325 12.096L138.151 12.501C137.6 12.786 137.324 12.919 136.683 12.906C135.99 12.891 135.881 12.528 135.421 12.061C135.426 10.37 135.612 10.039 136.475 8.56396Z" fill="#BC9D72"/>
<path d="M22.7981 73.4511L22.8171 72.644L21.3081 71.1901C21.2891 70.0441 21.4891 70.0171 22.2021 69.1741C23.3061 68.9431 23.7871 68.892 24.7431 69.592C25.7491 70.329 26.1291 71.3581 26.3381 72.5341C25.8961 73.6191 25.9031 73.7561 24.8391 74.2091C24.3011 74.4381 23.8931 74.3851 23.3321 74.3051L22.7981 73.4511Z" fill="#EFB3BD"/>
<path d="M221.344 74.286C221.256 74.327 221.172 74.376 221.082 74.408C219.918 74.827 219.004 74.666 217.909 74.18C217.376 73.203 217.169 72.936 217.377 71.781C217.54 70.878 218.138 69.881 218.902 69.359C219.757 68.776 220.04 68.904 221.004 69.037C221.891 69.885 222.172 69.91 222.265 71.175L220.522 72.93L220.616 73.608L222.319 73.42L221.344 74.286Z" fill="#EFB3BD"/>
<path d="M217.549 17.1801C218.478 19.0621 218.802 20.053 218.127 22.09C217.798 23.084 217.394 23.7741 216.666 24.5131C215.436 24.8871 214.94 24.9701 213.727 24.3021C213.366 24.1031 213.069 23.7641 212.787 23.4741C212.628 22.2741 212.608 21.6641 213.128 20.5571C214.728 20.2891 216.05 21.791 217.271 21.038C217.265 20.057 217.257 19.1721 217.015 18.2111L217.549 17.1801Z" fill="#EFB3BD"/>
<path d="M185.364 70.9171L186.456 71.5051C187.812 70.5841 187.989 70.4871 189.62 70.4851L190.636 71.2231C190.664 72.4811 190.626 73.2341 189.707 74.2451C188.887 75.1471 188.107 75.3181 186.961 75.4571C185.72 74.7691 184.721 73.7601 184.39 72.2951C184.322 71.9901 184.321 71.6511 184.305 71.3451L185.364 70.9171Z" fill="#EFB3BD"/>
<path d="M57.9502 68.9021L58.5592 71.4141L59.3002 71.0401C59.2562 72.5191 58.6542 73.5971 57.7982 74.7611C56.7952 75.1871 56.2172 75.4961 55.0972 75.0961C53.9332 74.6801 53.3142 73.7601 52.7632 72.7221C52.8152 71.4491 52.7482 71.5211 53.6752 70.6561C55.3662 70.3571 55.8962 70.8751 57.3722 71.6451C58.0902 70.7851 57.9012 70.0021 57.9502 68.9021Z" fill="#EFB3BD"/>
<path d="M120.974 7.79401C120.645 5.26501 119.463 3.72098 120.792 1.09998L120.859 1.14001L122.129 0C123.39 0.899 124.287 2.13901 124.46 3.73401C124.593 4.95401 123.595 5.88099 122.865 6.74799C122.257 7.10799 121.637 7.55201 120.974 7.79401Z" fill="#C3A561"/>
<path d="M23.3322 74.3051C21.9342 74.7941 21.2552 75.1231 19.7802 74.6211C18.2692 74.1061 17.0032 72.6911 16.3792 71.2591C15.4222 69.0601 15.4002 66.3001 16.4092 64.1161C17.0912 62.6401 18.2102 61.5091 19.7622 60.9771C23.0752 59.8421 26.6752 61.3171 29.5842 62.8411L29.0532 63.3231C25.4632 62.5381 22.3222 61.9981 19.0832 64.1831C17.7922 65.0531 16.8572 66.2511 16.5962 67.8141C16.3872 69.0691 16.7162 70.5531 17.4742 71.5821C18.2062 72.5741 19.7642 73.7352 21.0542 73.7492C21.6332 73.7552 22.2402 73.5941 22.7982 73.4511L23.3322 74.3051Z" fill="#EFB3BD"/>
<path d="M4.28511 45.0371C4.39511 45.1101 4.50512 45.185 4.61612 45.256C6.07512 46.191 7.90311 47.035 9.67511 46.587C11.1331 46.218 11.8721 45.46 12.6521 44.225L12.6471 43.4351C10.7671 42.8131 8.57711 43.5651 7.00911 42.3261C6.87411 41.0001 7.02712 40.781 7.57712 39.621C8.59712 39.089 9.31711 38.538 10.5241 38.939C11.9181 39.402 13.4401 40.6261 13.9411 42.0391C14.0278 42.2811 14.0891 42.5297 14.1251 42.785C14.1604 43.0397 14.1694 43.2954 14.1521 43.5521C14.1348 43.8094 14.0914 44.0618 14.0221 44.3091C13.9534 44.5571 13.8598 44.7954 13.7411 45.0241C13.0181 46.4461 11.6341 47.5051 10.1001 47.9161C8.30211 48.3971 6.53212 47.8501 5.01212 46.8701C4.44512 46.5041 4.09812 46.132 3.69312 45.603L4.28511 45.0371Z" fill="#EFB3BD"/>
<path d="M214.015 62.8291C216.977 61.3201 220.44 59.8231 223.796 61.0071C225.443 61.5891 226.587 62.8011 227.263 64.3941C228.137 66.4561 228.143 69.0631 227.254 71.1201C226.618 72.5921 225.45 73.8751 223.923 74.4341C223.065 74.7471 222.18 74.6001 221.344 74.2861L222.319 73.4201C222.495 73.4281 222.671 73.4451 222.848 73.4431C223.911 73.4351 225.227 72.4981 225.914 71.7361C226.732 70.8301 227.033 69.6131 226.864 68.4171C226.592 66.4971 225.305 65.0241 223.721 64.0031C220.672 62.0391 217.885 62.6321 214.561 63.2581L214.015 62.8291Z" fill="#EFB3BD"/>
<path d="M184.305 71.3451C184.256 69.5821 184.756 68.2651 185.977 66.9621C187.46 65.3781 189.66 64.6351 191.795 64.6201C193.934 64.6041 196.127 65.3521 197.605 66.9421C198.988 68.4301 199.512 70.3471 199.335 72.3421C199.201 73.8591 198.859 75.2631 198.36 76.7011L197.485 78.2921C197.248 77.9781 197.095 77.8041 196.993 77.4181C197.153 77.0911 197.187 77.0421 197.319 76.6441C198.035 74.4741 198.39 72.2441 197.194 70.1581C196.096 68.2421 194.093 66.9071 191.941 66.4871C190.373 66.1811 188.574 66.3711 187.259 67.3431C185.997 68.2761 185.561 69.4141 185.364 70.9171L184.305 71.3451Z" fill="#EFB3BD"/>
<path d="M202.401 73.864C202.754 74.466 203.135 75.021 203.327 75.696C200.335 82.27 186.759 87.457 180.285 89.89C177.865 90.799 175.592 91.066 173.027 91.205L173.148 90.818C181.476 87.473 192.77 86.508 196.993 77.418C197.095 77.804 197.248 77.978 197.485 78.292L198.36 76.701C198.641 77.468 198.417 77.141 199.034 77.68C200.59 76.777 201.412 75.318 202.401 73.864Z" fill="#EFB3BD"/>
<path d="M87.0501 65.5592C89.6101 65.0062 92.9671 64.5741 95.2751 66.1481C96.1781 66.7641 96.7121 67.6861 96.8031 68.7731C96.9101 70.0451 96.4101 71.6271 95.5651 72.5871C94.8531 73.3951 94.3261 73.4081 93.3481 73.6441C91.9091 73.1111 91.8901 73.0531 91.1141 71.7201C89.9161 71.0631 89.3301 70.2951 88.5931 69.1801C88.5051 69.0471 88.4201 68.9121 88.3331 68.7771C87.1721 69.4811 86.7401 69.9211 85.3611 69.9091C86.1551 68.7881 86.8631 67.5911 87.6011 66.4321L87.0501 65.5592Z" fill="#BC9E68"/>
<path d="M87.6011 66.432C89.4541 66.082 90.7121 65.951 92.5811 66.394L93.6131 67.23L93.6981 68.225C92.5251 69.233 91.3521 69.802 91.1101 71.417C91.0951 71.517 91.1131 71.619 91.1141 71.72C89.9161 71.063 89.3301 70.295 88.5931 69.18C88.5051 69.047 88.4201 68.912 88.3331 68.777C87.1721 69.481 86.7401 69.921 85.3611 69.909C86.1551 68.788 86.8631 67.591 87.6011 66.432Z" fill="#DFC4C3"/>
<path d="M43.1752 38.375C48.4352 39.784 54.9161 40.821 57.8311 46.08C57.9798 46.3547 58.1138 46.6363 58.2331 46.925C58.3518 47.213 58.4551 47.507 58.5431 47.807C58.6311 48.1063 58.7032 48.4093 58.7592 48.716C58.8152 49.0233 58.8548 49.3326 58.8781 49.644C58.9008 49.9553 58.9075 50.267 58.8982 50.579C58.8882 50.891 58.8618 51.2017 58.8191 51.511C58.7771 51.8203 58.7185 52.1263 58.6432 52.429C58.5685 52.7323 58.4778 53.0306 58.3712 53.324C57.5361 55.7 55.6852 57.866 53.3762 58.925C51.7092 59.689 49.8021 59.847 48.0731 59.185C46.1331 58.442 44.1232 56.82 43.4132 54.815C43.0302 53.737 42.9762 52.52 43.4842 51.475C43.8632 50.695 44.4632 50.241 45.1692 49.778C46.4622 49.558 46.5311 49.611 47.6421 50.15C48.3131 51.196 48.6342 51.445 48.5922 52.716C47.6352 53.599 46.6622 54.039 45.4812 54.567L45.2362 55.341C46.0832 56.698 47.2801 57.951 48.8901 58.347C50.6221 58.774 53.0721 57.963 54.5471 57.056C56.1741 56.056 57.5721 53.086 57.9871 51.256C58.3471 49.662 58.0112 48.146 57.1222 46.788C54.0742 42.135 48.8922 41.994 44.6482 39.457C44.1062 39.204 43.6412 38.75 43.1752 38.375Z" fill="#EFB3BD"/>
<path d="M200.515 39.6241C197.391 41.1401 193.954 41.1281 190.677 43.0091C188.398 44.3171 185.946 46.2211 185.347 48.9231C184.896 50.9531 185.743 53.0451 186.82 54.7391C187.993 56.5851 189.488 57.6401 191.631 58.0701C193.714 58.4871 195.496 58.3451 197.292 57.1331C197.984 56.0071 198.073 55.7741 198.095 54.4561C196.977 53.8701 195.68 53.3041 194.78 52.4041C194.191 51.8151 194.346 51.8641 194.342 51.1071C195.335 50.2941 196.43 49.7651 197.746 49.7141C198.881 49.6701 199.262 50.1901 199.964 50.9711C200.429 52.7661 200.196 54.2001 199.328 55.8441C198.503 57.4061 197.362 58.5271 195.65 59.0441C193.368 59.7341 190.775 59.5881 188.72 58.3071C188.458 58.1418 188.206 57.9634 187.963 57.7721C187.721 57.5801 187.489 57.3761 187.267 57.1601C187.046 56.9434 186.837 56.7161 186.639 56.4781C186.442 56.2394 186.258 55.9911 186.086 55.7331C185.916 55.4751 185.759 55.2088 185.615 54.9341C185.473 54.6601 185.345 54.3788 185.231 54.0901C185.119 53.8021 185.021 53.5091 184.939 53.2111C184.857 52.9125 184.79 52.6104 184.74 52.3051C184.334 49.8021 185.033 47.2471 186.512 45.2111C189.709 40.8101 194.94 39.4151 200.031 38.6301L200.515 39.6241Z" fill="#EFB3BD"/>
<path d="M211.751 42.228C210.229 39.496 208.473 36.872 207.063 34.082C205.089 30.175 203.645 25.4851 205.231 21.1721C205.881 19.4071 206.963 17.8201 208.783 17.1251C211.59 16.0531 214.809 16.0401 217.549 17.1801L217.015 18.2111C215.065 17.2691 213.533 17.0091 211.409 17.7051C210.112 18.1301 209.219 18.9911 208.675 20.2381C205.528 27.4481 211.285 35.3601 212.682 42.2231L211.751 42.228Z" fill="#EFB3BD"/>
<path d="M45.6672 78.3911C45.1572 77.0831 44.6532 75.689 44.3812 74.311C43.9032 71.883 44.0462 69.4331 45.5492 67.3591C46.8022 65.6301 48.8602 64.6671 50.9522 64.4821C53.1822 64.2861 55.4632 64.9421 57.1372 66.4531C58.5692 67.7461 59.1532 69.15 59.3002 71.04L58.5592 71.4141L57.9502 68.902C56.1682 67.281 54.6852 66.3711 52.1522 66.4761C50.2472 66.5561 48.4762 67.352 47.2282 68.803C45.8842 70.365 45.3952 72.3611 45.5872 74.3901C45.9182 77.8821 48.0252 80.728 50.7452 82.806C56.7612 87.403 69.7632 89.699 71.2172 90.866C70.1852 91.611 68.9772 91.3321 67.7432 91.1301C60.6862 89.9781 45.1092 83.127 41.2682 77.202C41.0372 76.845 40.9532 76.601 40.7742 76.196L41.0592 75.5361L42.2802 75.274C43.1332 76.755 43.9682 77.8991 45.6672 78.3911Z" fill="#EFB3BD"/>
<path d="M29.9811 43.7301C31.9921 38.2621 37.5711 27.5801 35.1811 22.0181C34.3331 20.0461 32.6451 18.0791 30.5661 17.3551C29.2591 16.8991 28.6511 17.1071 27.4331 17.5531C26.6331 18.4611 26.0601 19.5981 26.1771 20.8571C26.2181 21.2881 26.2801 21.3511 26.4471 21.6871C27.9091 21.1731 28.7061 20.1301 30.2581 20.5621C30.8271 21.6201 31.0411 22.1601 30.9291 23.3681C30.0241 24.2181 29.5991 24.5471 28.2991 24.4281C27.2011 24.3271 25.9741 23.6471 25.3741 22.7131C24.8161 21.8451 24.7051 20.8411 24.9511 19.8481C25.2771 18.5271 26.1311 17.1541 27.3261 16.4631C28.7741 15.6251 30.4241 15.8101 31.9571 16.2951C34.7231 17.1721 37.3301 19.5111 38.5521 22.1331C39.8801 24.9841 39.1561 28.18 38.0181 30.978C35.9041 36.175 32.4411 40.4911 30.5261 45.9041L29.1501 46.5221L29.0591 45.6221C29.7571 44.9501 29.7521 44.6501 29.9811 43.7301Z" fill="#EFB3BD"/>
<path d="M3.69306 45.603C2.40206 45.14 1.50405 43.995 0.847054 42.815C-0.268946 40.807 -0.170938 38.504 0.499062 36.371C0.633062 35.9436 0.788399 35.524 0.965066 35.112C1.14107 34.7 1.33739 34.2976 1.55406 33.905C1.77139 33.513 2.0074 33.1326 2.26206 32.764C2.5174 32.396 2.79006 32.0413 3.08006 31.7C3.37139 31.3593 3.67872 31.034 4.00205 30.724C4.32539 30.4133 4.66339 30.12 5.01606 29.844C5.36873 29.568 5.73472 29.3103 6.11405 29.071C6.49272 28.8316 6.88239 28.612 7.28306 28.412C7.65639 28.232 8.03772 28.0706 8.42706 27.928C8.81639 27.786 9.21205 27.6633 9.61405 27.56C10.0154 27.4567 10.4207 27.3733 10.8301 27.31C11.2401 27.2473 11.6521 27.2047 12.0661 27.182C12.4801 27.1593 12.8941 27.1573 13.3081 27.176C13.7221 27.194 14.1344 27.2327 14.5451 27.292C14.9551 27.3513 15.3614 27.4306 15.7641 27.53C16.1667 27.6293 16.5634 27.7484 16.9541 27.887C25.1531 30.738 26.1051 37.079 29.3671 44.032L29.9811 43.73C29.7521 44.65 29.7571 44.95 29.0591 45.622C26.4071 42.27 26.4761 38.069 22.6711 34.791C22.2877 34.4563 21.8881 34.142 21.4721 33.848C21.0561 33.554 20.6264 33.282 20.1831 33.032C19.7397 32.782 19.2847 32.5553 18.8181 32.352C18.3514 32.148 17.8757 31.9686 17.3911 31.814C16.9057 31.6586 16.4141 31.5287 15.9161 31.424C15.4181 31.3193 14.9157 31.2403 14.4091 31.187C13.9031 31.1337 13.3954 31.1063 12.8861 31.105C12.3774 31.103 11.8697 31.1273 11.3631 31.178C7.89006 31.515 4.22706 33.049 2.05206 35.874C1.07506 37.143 0.511063 38.672 0.803063 40.282C1.17006 42.312 2.67506 43.884 4.28506 45.037L3.69306 45.603Z" fill="#EFB3BD"/>
<path d="M200.031 38.6301C203.734 39.6411 207.444 40.5331 209.591 44.0331C210.661 45.7781 211.367 47.9871 212.108 49.8951L212.387 49.5171L212.393 50.2541L213.082 47.6431L214.163 47.6441C214.076 50.6561 214.017 53.7031 213.588 56.6891C213.355 58.3071 211.864 62.3781 212.417 63.6601C212.964 63.4011 213.511 63.1671 214.015 62.8291L214.561 63.2581C211.461 66.1531 206.591 74.6221 203.327 75.6961C203.135 75.0211 202.754 74.4661 202.401 73.8641C203.415 72.9731 204.245 71.6691 204.984 70.5431C208.964 64.4801 211.564 55.7531 210.023 48.5121C208.572 41.6951 205.269 43.0281 201.035 40.0141C200.858 39.8891 200.688 39.7541 200.515 39.6241L200.031 38.6301Z" fill="#EFB3BD"/>
<path d="M30.5262 45.904C30.5512 47.458 30.3742 49.541 31.2622 50.803C31.6022 49.448 31.9692 48.061 32.5402 46.783C34.9272 41.443 38.0932 40.343 43.1752 38.375C43.6412 38.75 44.1062 39.204 44.6482 39.457C44.5532 39.504 44.4582 39.553 44.3632 39.599C39.9292 41.722 36.0792 41.151 34.0082 46.691C31.6902 52.893 33.5852 60.983 36.3092 66.751C37.6132 69.515 39.8082 73.398 42.2802 75.274L41.0592 75.536L40.7742 76.196C37.9982 75.359 31.5782 66.097 29.0532 63.323L29.5842 62.841C30.2992 63.425 30.4992 63.783 31.4422 63.799C30.0802 57.86 29.3792 52.611 29.1502 46.522L30.5262 45.904Z" fill="#EFB3BD"/>
<path d="M93.7422 88.8651C93.8482 85.2641 94.2192 82.0361 96.8992 79.3311C97.6462 78.5771 98.3172 78.393 99.3422 78.285C101.104 78.663 103.09 80.0631 103.999 81.6581C104.547 82.6211 104.547 83.726 104.209 84.761C103.38 87.298 98.6712 91.4801 98.9932 93.3771C99.5692 93.7051 100.15 94.135 100.806 94.248L99.7342 94.7601L98.6922 94.7261C95.1122 92.7141 91.1942 89.9101 89.6152 85.9641L90.1202 85.228C91.2022 86.807 92.0792 87.8411 93.7422 88.8651Z" fill="#BEA158"/>
<path d="M84.1412 69.317C81.0842 67.845 78.6242 65.83 76.7552 62.973C75.8112 61.53 74.9192 59.577 75.4372 57.83C75.8902 56.301 77.7502 54.872 79.0972 54.103C79.9432 53.62 80.8422 53.403 81.7902 53.687C86.2492 55.026 85.7612 63.314 86.8292 65.197C86.8992 65.32 86.9772 65.438 87.0502 65.559L87.6012 66.432C86.8632 67.591 86.1552 68.788 85.3612 69.909C84.7012 72.864 84.4262 74.953 85.5702 77.877L84.8132 79.253L83.6992 78.721C84.0592 78.062 83.9002 70.902 84.1412 69.317Z" fill="#BEA158"/>
<path d="M89.6153 85.964C88.8743 85.84 88.2692 85.346 87.6642 84.915L87.2152 84.592C82.6432 86.187 75.9623 87.4241 71.4413 85.0961C69.3893 84.0401 68.4683 82.458 67.8643 80.305C68.1463 78.811 68.4472 78.375 69.6842 77.36C74.4892 73.417 78.3703 78.391 83.1003 78.696C83.2993 78.709 83.4992 78.7131 83.6992 78.7211L84.8133 79.253L85.5703 77.8771C86.4533 80.6451 88.2512 83.032 90.1202 85.228L89.6153 85.964Z" fill="#BEA158"/>
<path d="M212.682 42.2231C213.033 43.2041 213.072 43.8301 213.939 44.4381C216.821 37.8131 217.892 31.5221 225.307 28.5621C228.889 27.1321 233.079 26.7741 236.637 28.4721C239.504 29.8401 242.213 32.8381 243.102 35.9091C243.838 38.4521 243.359 41.0461 242.001 43.2781C240.64 45.5171 238.376 47.2821 235.814 47.8951C234.31 48.2551 232.691 48.1251 231.389 47.2251C230.221 46.4181 229.654 45.2951 229.167 44.0061C229.153 42.6161 229.46 41.6771 230.455 40.6641C231.352 39.7501 232.788 38.8581 234.103 38.7961C234.54 38.7761 234.93 38.9061 235.342 39.0291C236.254 40.1421 236.269 40.4431 236.461 41.8891C236.084 42.5721 236.158 42.8481 235.36 43.0681C233.718 43.5201 231.888 42.4231 230.671 43.6241C230.883 44.7751 231.19 45.2741 232.223 45.9301C233.519 46.7531 235.404 46.7191 236.814 46.2611C238.964 45.5621 241.232 43.6601 242.13 41.5821C242.775 40.0901 242.751 38.5781 242.087 37.0981C240.79 34.2051 237.722 32.4471 234.829 31.5141C231.364 30.3951 227.772 30.5241 224.533 32.2611C217.404 36.0831 217.114 41.2221 214.163 47.6441L213.082 47.6431C213.031 45.9481 212.212 43.8841 211.751 42.2281L212.682 42.2231Z" fill="#EFB3BD"/>
<path d="M99.7341 94.7601L100.806 94.248C102.574 96.041 113.597 100.788 113.722 102.017C111.157 101.31 107.737 100.306 105.945 98.2471C104.985 103.513 102.729 108.639 98.1771 111.782C96.7101 112.794 94.9621 113.505 93.1641 113.076C91.3711 112.647 89.7661 111.081 88.8521 109.53C88.0911 108.237 87.7971 106.782 88.2641 105.331C89.1901 102.453 92.3931 100.389 95.0061 99.191C97.1651 98.202 99.4031 97.6051 101.71 97.0781C101.133 96.2101 100.458 95.5061 99.7341 94.7601Z" fill="#BEA158"/>
<path d="M121.575 75.8651C123.282 75.1381 124.705 72.8051 126.222 71.6561C127.554 70.6461 129.538 70.243 131.175 70.506C132.507 70.72 133.596 71.426 134.308 72.577C135.602 74.669 135.504 77.5431 135.03 79.8771C134.423 82.8691 132.697 86.9171 130.079 88.6431C129.966 88.8891 129.835 89.2 129.686 89.438C128.282 91.675 124.092 95.8001 121.537 96.3651C119.327 95.9641 115.518 92.2941 114.002 90.6241C110.543 86.8121 107.472 81.5011 107.826 76.1791C108.025 73.1851 109.49 71.8161 111.629 70.0081C112.203 70.1481 112.774 70.3061 113.349 70.4421C117.125 71.3321 118.45 73.4981 121.34 75.6901L121.575 75.8651Z" fill="#602A2B"/>
<path d="M156.918 62.943C157.116 60.45 157.364 57.419 159.332 55.615C160.294 54.733 161.549 54.275 162.853 54.415C163.041 54.4363 163.228 54.4677 163.413 54.509C163.598 54.5503 163.78 54.6013 163.959 54.662C164.138 54.7227 164.314 54.793 164.486 54.873C164.658 54.9523 164.825 55.0407 164.987 55.138C165.15 55.236 165.306 55.3423 165.457 55.457C165.608 55.571 165.753 55.693 165.89 55.823C166.028 55.9537 166.159 56.0907 166.282 56.234C166.405 56.3787 166.52 56.529 166.627 56.685C167.527 57.993 167.799 59.715 167.489 61.26C166.857 64.413 163.345 67.004 160.664 68.473C160.251 68.7 159.878 68.826 159.431 68.969C159.852 72.531 160.243 75.42 159.009 78.895L159.365 78.812C163.623 77.782 169.499 74.607 173.764 77.065C174.354 77.405 175.08 78.175 175.227 78.859C175.527 80.25 175.285 81.342 174.49 82.528C173.066 84.653 170.689 85.964 168.196 86.369C164.939 86.897 159.257 86.439 156.578 84.309C156.321 84.105 156.271 84.031 156.028 83.773C153.717 88.235 147.244 94.518 142.357 96.073C141.88 96.225 141.465 96.228 140.97 96.228C141.048 96.287 141.125 96.349 141.205 96.406C145.164 99.201 154.3 99.769 155.417 106.072C155.697 107.651 154.896 109.183 153.976 110.402C152.89 111.842 151.304 113.111 149.445 113.25C147.113 113.425 144.895 111.834 143.303 110.274C139.851 106.893 138.208 102.729 137.549 98.023C137.478 98.11 137.41 98.199 137.335 98.282C135.722 100.088 131.675 102.008 129.272 102.324L129.195 101.794C134.559 99.024 141.719 96.429 146.051 92.239C144.253 91.934 141.899 90.295 140.855 88.798C139.686 87.121 139.378 85.04 139.853 83.068C140.236 81.481 141.147 79.993 142.563 79.132C143.336 78.662 144.096 78.583 144.98 78.559C146.863 79.161 147.723 80.162 148.597 81.885C149.883 84.418 149.183 86.639 149.906 89.058C153.849 86.223 157.525 80.722 158.301 75.91C158.871 72.368 157.861 70.0961 156.488 66.8871C157.146 65.4741 157.081 64.47 156.918 62.943Z" fill="#BEA158"/>
<path d="M120.974 7.79407C121.637 7.55207 122.257 7.10805 122.865 6.74805C123.21 9.91705 123.768 14.3651 126.368 16.5361C127.208 17.2371 128.132 17.551 129.223 17.41C131.458 17.121 133.183 15.196 134.41 13.439C134.923 12.704 135.372 11.9231 135.814 11.1451C134.892 13.7081 132.408 18.4781 132.316 21.0671C133.767 21.5301 135.412 21.674 136.792 22.248C138.724 23.053 140.216 24.868 141.91 26.05C145.563 28.598 150.205 29.222 152.505 33.535C153.713 35.8 153.608 38.1811 152.772 40.5341C150.809 46.0591 144.258 54.259 138.972 56.845C138.742 56.958 138.412 57.052 138.181 57.126C137.613 58.873 137.128 61.0841 136.201 62.6451C132.715 63.3591 128.122 61.0261 124.422 60.9061C118.698 60.7201 113.33 62.8091 107.808 62.8561C107.095 61.3551 106.707 59.29 105.673 58.014C100.743 51.932 87.5822 43.993 90.7632 34.371C91.2812 32.807 92.3082 31.518 93.5412 30.452C94.7792 29.382 105.936 22.94 107.558 22.215C108.241 21.909 108.927 21.765 109.653 21.613C110.47 21.442 111.147 21.3541 111.803 20.7961C110.974 18.6481 110.16 16.488 108.995 14.496L109.358 14.0341C112.049 15.3871 112.697 18.3221 116.305 17.6191C118.959 16.0591 119.773 12.9741 120.483 10.1451C120.674 9.36708 120.837 8.5834 120.974 7.79407Z" fill="#BEA158"/>
<path d="M100.485 33.649C100.589 33.749 100.702 33.841 100.797 33.951C102.855 36.323 103.576 40.7931 105.323 43.5521C106.388 45.2341 110.927 49.367 110.897 50.926C109.781 51.384 109.129 51.368 107.942 51.212L106.444 52.433L105.311 52.2231C101.651 49.3391 98.7053 44.608 98.1193 39.925C97.7773 37.192 98.9173 35.689 100.485 33.649Z" fill="#FDFEF0"/>
<path d="M142.583 33.6121C143.963 34.4031 145.168 35.8951 145.548 37.4501C146.344 40.7141 144.476 44.8711 142.687 47.5311C141.597 49.1511 139.804 51.8531 137.78 52.2651L136.524 51.3851C136.425 51.4181 136.329 51.4621 136.227 51.4841C134.873 51.7861 133.414 51.384 132.275 50.662C137.491 46.273 140.512 39.9521 142.583 33.6121Z" fill="#FDFEF0"/>
<path d="M112.358 27.656C114.4 27.837 116.979 27.672 118.76 28.73C119.157 30.913 119.324 48.632 118.447 49.978C117.149 50.243 116.426 49.818 115.26 49.265C115.02 49.182 114.876 49.154 114.671 48.958C111.548 45.972 108.759 38.572 108.587 34.294C108.467 31.305 110.477 29.695 112.358 27.656Z" fill="#FFFEFF"/>
<path d="M126.016 27.576C128.485 28.316 131.143 27.285 133.16 29.412C134.704 31.041 135.031 33.579 134.89 35.733C134.677 38.966 133.108 43.9531 130.653 46.1121C130.51 46.5294 130.342 46.9367 130.151 47.334C129.959 47.7314 129.744 48.1157 129.506 48.4871C129.268 48.8584 129.009 49.2141 128.728 49.5541C128.447 49.8947 128.147 50.2171 127.828 50.5211C127.286 50.5441 126.584 50.742 126.181 50.324C124.292 48.367 124.697 42.4831 124.674 39.8721C124.651 37.4071 123.906 30.801 124.867 28.746C125.02 28.419 125.736 27.861 126.016 27.576Z" fill="#FFFEFF"/>
</svg>
