<svg width="582" height="926" viewBox="0 0 582 926" fill="none" xmlns="http://www.w3.org/2000/svg">
<path d="M187.93 918.874C188.641 919.034 189.451 919.192 190.099 919.534C191.219 920.125 191.726 921.227 191.962 922.403C191.489 923.281 191.236 923.391 190.416 923.909C189.383 924.77 189.385 924.973 187.984 924.919C187.116 923.968 186.829 923.523 186.72 922.214C186.604 920.804 187.041 919.917 187.93 918.874Z" fill="#EFB3BD"/>
<path d="M476.328 0.265747C476.926 0.380647 477.618 0.478348 478.176 0.726048C479.295 1.22365 479.442 1.90055 479.784 2.94605C479.508 4.55945 478.766 5.33965 477.706 6.49425L475.781 5.86305C475.1 5.06135 474.37 4.16865 474.512 3.03955C474.704 1.49785 475.184 1.14325 476.328 0.265747Z" fill="#EFB3BD"/>
<path d="M542.953 918.965C544.86 919.165 545.698 919.372 546.919 920.831C546.983 922.061 546.772 922.711 546.251 923.819C545.406 924.334 544.713 924.503 543.762 924.684C542.885 924.32 542.481 924.338 542.133 923.382C541.59 921.894 542.308 920.288 542.953 918.965Z" fill="#EFB3BD"/>
<path d="M577.135 612.861C577.878 612.943 578.732 612.99 579.441 613.227C580.505 613.582 580.823 614.279 581.277 615.215C581.241 616.597 580.846 617.355 580.116 618.511C579.728 618.501 579.337 618.491 578.951 618.449C577.469 618.287 576.865 617.87 575.983 616.777C575.757 615.171 576.39 614.206 577.135 612.861Z" fill="#EFB3BD"/>
<path d="M1.81217 702.586C2.51657 702.85 3.28286 703.113 3.92426 703.51C4.89826 704.111 5.40137 704.931 5.66387 706.01C5.11197 707.116 5.04376 707.167 3.95566 707.758C3.09826 708.547 2.88616 708.599 1.80116 708.85C0.932963 708.253 0.711664 707.893 0.503064 706.843C0.163964 705.136 0.960765 703.962 1.81217 702.586Z" fill="#EFB3BD"/>
<path d="M2.21204 684.521C2.27894 684.546 2.34754 684.568 2.41264 684.597C3.81564 685.231 4.83864 685.752 5.33564 687.326C5.66724 688.376 5.56044 688.498 5.08434 689.5L3.96194 689.71C3.58574 689.877 3.40764 689.97 2.98224 690.081C1.88734 690.365 1.46844 690.228 0.523544 689.676L0.179443 688.339C0.455343 686.551 0.932544 685.788 2.21204 684.521Z" fill="#EFB3BD"/>
<path d="M542.956 0.18103C543.552 0.19603 544.235 0.183431 544.811 0.340031C546.101 0.690631 546.406 1.34923 547.025 2.41263C547.091 3.86283 546.861 4.91483 546.398 6.28553C544.535 6.03173 543.416 5.65153 542.199 4.24243C541.905 2.63573 542.359 1.62573 542.956 0.18103Z" fill="#EFB3BD"/>
<path d="M577.234 540.612C577.503 540.625 577.844 540.633 578.12 540.674C579.605 540.894 580.18 541.466 581.016 542.589C581.263 544.134 580.824 545.056 580.174 546.441C579.529 546.421 578.827 546.426 578.195 546.29C576.923 546.016 576.611 545.562 575.915 544.568C575.838 542.946 576.461 541.963 577.234 540.612Z" fill="#EFB3BD"/>
<path d="M1.69849 666.994C2.38049 667.129 3.16899 667.267 3.78399 667.602C4.91899 668.219 5.50619 669.244 5.73659 670.46C5.26619 671.31 5.11409 671.385 4.26139 671.873C3.93999 672.11 3.56449 672.427 3.17819 672.565C2.08279 672.956 1.65389 672.753 0.710387 672.185C0.533587 671.775 0.37349 671.41 0.30199 670.967C0.0387897 669.337 0.816489 668.257 1.69849 666.994Z" fill="#EFB3BD"/>
<path d="M102.991 0.0390015C103.409 0.127401 103.835 0.215203 104.244 0.339603C105.679 0.775403 106.112 1.4559 106.751 2.6924C106.723 4.1961 106.367 4.9415 105.519 6.1691L103.267 6.1087C102.137 5.2928 102.06 5.1572 101.591 3.8407C101.743 2.2449 102.079 1.3563 102.991 0.0390015Z" fill="#EFB3BD"/>
<path d="M577.936 684.553C578.705 684.899 579.443 685.322 580.187 685.718C581.058 686.948 581.445 687.634 581.359 689.162C580.644 689.766 580.361 689.612 579.448 689.6C578.111 690.152 577.504 690.335 576.154 689.8L575.824 688.813C576.079 686.828 576.657 686.01 577.936 684.553Z" fill="#EFB3BD"/>
<path d="M577.315 233.944C577.996 234.032 578.789 234.092 579.432 234.333C580.514 234.739 580.789 235.383 581.217 236.372C581.119 238.165 580.23 239.046 579.116 240.329C578.921 240.263 578.725 240.2 578.53 240.132C577.009 239.594 576.604 238.915 575.98 237.531C576.051 235.974 576.41 235.201 577.315 233.944Z" fill="#EFB3BD"/>
<path d="M424.795 0.134399C425.392 0.208099 426.065 0.266798 426.63 0.475998C427.829 0.919998 428.177 1.4102 428.707 2.5132C428.63 4.1918 427.923 5.0326 426.94 6.2954C426.554 6.3069 426.068 6.3541 425.687 6.2351C424.49 5.861 424.188 5.1578 423.623 4.1487C423.666 2.2321 423.836 1.8053 424.795 0.134399Z" fill="#EFB3BD"/>
<path d="M475.632 918.986C476.46 919.087 477.274 919.275 478.09 919.443C479.2 920.485 479.539 920.73 479.957 922.169C479.688 922.978 479.419 923.281 478.778 923.838C477.846 924.435 477.22 924.616 476.126 924.753C475.257 924.29 474.989 924.26 474.714 923.237C474.331 921.813 474.889 920.195 475.632 918.986Z" fill="#EFB3BD"/>
<path d="M407.973 0.146484C409.697 0.563584 410.526 0.981182 411.573 2.38838C411.791 3.98878 411.248 4.93808 410.586 6.33938L408.095 6.06758C407.082 5.14209 406.905 4.93158 406.498 3.62838C406.737 2.14778 406.986 1.29358 407.973 0.146484Z" fill="#EFB3BD"/>
<path d="M577.614 666.986C578.643 667.151 579.699 667.417 580.406 668.258C581.309 669.33 581.354 669.956 581.238 671.244C580.374 672.139 580.192 672.201 579.054 672.515C578.935 672.561 578.821 672.626 578.696 672.654C577.727 672.867 577.163 672.618 576.391 672.098C576.221 671.635 576.045 671.191 576 670.695C575.857 669.133 576.668 668.116 577.614 666.986Z" fill="#EFB3BD"/>
<path d="M86.1843 918.936C87.1393 919.072 87.7783 919.251 88.6493 919.663C89.5713 920.778 90.0733 921.438 90.1203 922.913C89.5113 923.749 89.3843 923.765 88.4003 924.119C87.4353 924.804 87.2363 924.746 86.0963 924.777C85.3483 924.117 85.0773 923.692 84.9453 922.676C84.7453 921.145 85.3323 920.142 86.1843 918.936Z" fill="#EFB3BD"/>
<path d="M35.8355 0.041748C36.3361 0.116948 36.9261 0.188449 37.384 0.410149C38.5758 0.986949 38.8317 1.62605 39.2557 2.77005C39.1318 4.48235 38.3839 5.28625 37.3229 6.52395C36.8719 6.43245 36.3364 6.35625 35.9163 6.14685C34.6875 5.53405 34.4669 4.96165 34.019 3.76555C34.203 2.12905 34.8383 1.28505 35.8355 0.041748Z" fill="#EFB3BD"/>
<path d="M323.496 0.105591C323.946 0.169691 324.484 0.21359 324.911 0.39769C326.165 0.93939 326.423 1.56039 326.959 2.71559C326.919 4.29479 326.636 5.16719 325.811 6.51179C325.189 6.44489 324.481 6.40039 323.888 6.19589C322.647 5.76749 322.395 5.15599 321.871 4.06879C321.939 2.40829 322.619 1.44049 323.496 0.105591Z" fill="#EFB3BD"/>
<path d="M84.7123 0.721985C85.0016 0.690518 85.2913 0.665116 85.5813 0.645783C87.4053 0.524283 88.3793 0.789982 89.7053 1.95038C89.9673 3.59948 89.7173 4.04399 89.1013 5.62679C88.6593 5.83389 88.1393 6.10439 87.6543 6.17439C86.5523 6.33339 86.0673 5.92778 85.2913 5.24518C84.6143 3.68298 84.6643 2.37719 84.7123 0.721985Z" fill="#EFB3BD"/>
<path d="M0.378643 487.129C2.40484 487.074 3.76824 487.145 5.31784 488.468C5.58574 490.087 5.41924 490.483 4.84544 492.043C4.59844 492.129 4.29084 492.245 4.02854 492.312C2.74924 492.639 2.02344 492.519 0.908443 491.889C0.0542433 490.313 0.283343 488.856 0.378643 487.129Z" fill="#EFB3BD"/>
<path d="M375.027 918.835C375.779 919.164 376.455 919.64 377.145 920.081C377.837 921.304 378.161 921.932 378.015 923.349C377.165 924.291 377.153 924.282 375.899 924.487C375.102 924.781 374.685 924.657 373.883 924.489C373.148 923.636 372.697 923.176 372.852 921.935C373.064 920.225 373.767 919.831 375.027 918.835Z" fill="#EFB3BD"/>
<path d="M577.117 739.292C578.097 739.387 578.876 739.546 579.813 739.853C580.923 741.006 581.208 741.212 581.511 742.758C581.083 743.563 580.681 743.785 579.93 744.249C579.294 744.52 578.66 744.674 577.994 744.848C576.795 744.459 576.773 744.509 576.062 743.365C575.872 741.614 576.219 740.784 577.117 739.292Z" fill="#EFB3BD"/>
<path d="M577.574 486.975C578.16 487.016 578.839 487.036 579.397 487.225C580.568 487.622 580.894 488.153 581.388 489.214C581.093 490.956 580.542 491.422 579.417 492.723C578.988 492.686 578.852 492.694 578.39 492.542C577.031 492.096 576.397 491.636 575.676 490.45C575.95 488.742 576.491 488.265 577.574 486.975Z" fill="#EFB3BD"/>
<path d="M2.16559 558.599C2.28519 558.643 2.40749 558.679 2.52439 558.73C3.87069 559.312 5.03249 559.991 5.57039 561.392C5.25949 563.114 4.6361 563.685 3.5481 565.003C2.9196 564.877 2.1612 564.766 1.5864 564.48C0.480295 563.93 0.369095 563.214 0.129395 562.139C0.473795 560.552 1.06419 559.771 2.16559 558.599Z" fill="#EFB3BD"/>
<path d="M1.0616 540.743C1.6136 540.719 2.2052 540.677 2.7532 540.753C4.0958 540.939 4.4353 541.287 5.2738 542.251C5.5988 543.773 5.2337 544.789 4.7942 546.228C4.0403 546.252 3.2103 546.319 2.4643 546.207C1.3157 546.035 0.913795 545.495 0.254795 544.62C0.0759949 543.096 0.500396 542.109 1.0616 540.743Z" fill="#EFB3BD"/>
<path d="M1.82868 377.986C1.93098 378.009 2.03478 378.026 2.13558 378.054C3.63578 378.478 4.57588 378.991 5.35138 380.364C5.56928 381.904 5.16848 382.722 4.51938 384.108C3.77908 384.095 2.94288 384.123 2.22058 383.959C0.948577 383.67 0.702178 383.087 0.169678 382.037C0.280178 380.332 0.923378 379.361 1.82868 377.986Z" fill="#EFB3BD"/>
<path d="M577.257 342.319C577.889 342.385 578.609 342.428 579.212 342.633C580.466 343.058 580.667 343.618 581.129 344.733C581.004 346.309 580.428 347.303 579.68 348.649C579.41 348.621 579.086 348.601 578.815 348.536C577.361 348.19 576.712 347.405 576.012 346.213C575.87 344.562 576.425 343.674 577.257 342.319Z" fill="#EFB3BD"/>
<path d="M1.21411 414.63C1.63231 414.646 2.05661 414.661 2.47191 414.713C3.89401 414.894 4.61331 415.349 5.42821 416.466C5.56991 418.225 4.69811 419.244 3.77761 420.647C3.66301 420.646 3.54781 420.655 3.43381 420.643C1.93491 420.491 1.16291 419.871 0.289408 418.765C-0.0627917 417.098 0.515406 416.083 1.21411 414.63Z" fill="#EFB3BD"/>
<path d="M390.806 918.873L393.213 919.422C394.413 920.467 394.742 921.153 395.044 922.707C394.484 923.592 394.441 923.632 393.471 924.025C393.215 924.272 393.102 924.403 392.776 924.601C391.971 925.091 391.465 925.046 390.614 924.784C390.405 924.482 390.289 924.355 390.153 924.035C389.406 922.271 390.077 920.488 390.806 918.873Z" fill="#EFB3BD"/>
<path d="M2.04978 793.414C2.92138 793.578 3.60068 793.786 4.41408 794.14C5.25188 795.379 5.55738 795.741 5.68408 797.207C5.04628 798.03 4.93058 798.114 3.95678 798.482C3.58298 798.662 3.40388 798.764 2.97818 798.888C1.78408 799.234 1.45118 799.056 0.465681 798.373C0.300681 797.944 0.0896821 797.482 0.111982 797.007C0.196482 795.21 0.85838 794.577 2.04978 793.414Z" fill="#EFB3BD"/>
<path d="M576.385 162.393C577.338 162.351 578.533 162.232 579.458 162.435C580.57 162.68 580.858 163.328 581.304 164.265C581.259 165.71 580.769 166.523 579.997 167.718C579.561 167.768 579.357 167.803 578.887 167.793C577.538 167.762 577.204 167.482 576.284 166.602C575.831 165.046 576.065 163.927 576.385 162.393Z" fill="#EFB3BD"/>
<path d="M1.23147 739.246C2.35677 739.343 3.58117 739.348 4.46507 740.142C5.37117 740.956 5.66207 741.686 5.67787 742.878C5.28607 743.439 4.93527 743.779 4.38617 744.186C4.03117 744.394 3.85567 744.515 3.44307 744.661C2.35957 745.046 1.84767 744.834 0.84947 744.372C0.60677 743.946 0.335469 743.515 0.236169 743.025C-0.0446306 741.639 0.56437 740.407 1.23147 739.246Z" fill="#EFB3BD"/>
<path d="M187.931 0.0205078C188.651 0.206108 189.512 0.379008 190.164 0.737808C191.259 1.34021 191.46 2.08151 191.716 3.20841C191.435 4.77201 190.671 5.45241 189.557 6.48851C189.015 6.36711 188.354 6.25191 187.867 5.98071C186.979 5.48551 186.427 4.52801 186.361 3.52891C186.272 2.17541 187.166 1.03641 187.931 0.0205078Z" fill="#EFB3BD"/>
<path d="M1.61107 234.007C1.99847 234.051 2.39097 234.095 2.77347 234.171C4.23037 234.461 4.74237 234.983 5.51197 236.142C5.61557 237.793 4.90727 238.703 4.03577 240.005C3.41827 239.985 2.66257 239.998 2.07597 239.798C0.926368 239.407 0.618868 238.698 0.193968 237.663C0.184668 236.077 0.716967 235.279 1.61107 234.007Z" fill="#EFB3BD"/>
<path d="M289.298 0.132812C290.918 0.268713 291.703 0.603516 292.8 1.72712C293.3 3.37082 292.712 4.82922 292.269 6.42812C291.599 6.38332 290.857 6.36811 290.207 6.19971C289.015 5.89141 288.676 5.26371 288.057 4.31921C287.955 2.60061 288.517 1.58911 289.298 0.132812Z" fill="#EFB3BD"/>
<path d="M18.0926 0.192017C18.5024 0.225217 18.9157 0.258218 19.3224 0.319218C20.7836 0.538618 21.4149 0.87522 22.2963 2.02092C22.4857 3.69332 21.7932 4.85552 21.0758 6.29882C20.5279 6.30842 19.8541 6.35302 19.327 6.19662C18.1621 5.85082 17.8172 5.01392 17.2929 4.04412C17.1788 2.46562 17.3697 1.59822 18.0926 0.192017Z" fill="#EFB3BD"/>
<path d="M340.197 0.0585938C340.825 0.182294 341.584 0.296494 342.153 0.593494C343.366 1.22649 343.589 2.02709 343.946 3.21909C343.753 4.79229 343.059 5.43019 341.941 6.49039L340.135 6.0074C339.293 5.0822 338.698 4.59219 338.633 3.26369C338.566 1.89219 339.312 0.997294 340.197 0.0585938Z" fill="#EFB3BD"/>
<path d="M577.568 648.934C577.806 648.973 578.045 649.016 578.279 649.074C579.584 649.401 580.425 649.652 581.015 650.988C581.47 652.02 581.51 652.777 581.01 653.73L579.941 653.986C579.56 654.169 579.13 654.406 578.71 654.497C577.556 654.748 577.217 654.569 576.306 653.884C576.157 653.419 575.994 652.963 575.978 652.469C575.931 650.994 576.644 649.991 577.568 648.934Z" fill="#EFB3BD"/>
<path d="M577.637 251.951C578.034 252.063 578.439 252.175 578.824 252.324C580.253 252.878 580.666 253.623 581.212 254.935C581.102 256.681 580.351 257.44 579.24 258.665C578.892 258.529 578.538 258.391 578.202 258.225C576.786 257.527 576.328 256.904 575.835 255.498C576.064 253.978 576.738 253.128 577.637 251.951Z" fill="#EFB3BD"/>
<path d="M578.293 558.718C578.812 558.872 579.48 559.092 579.896 559.441C580.706 560.119 581.302 561.307 581.169 562.381C580.967 564.006 579.967 564.322 578.705 565.079C577.105 564.252 576.169 563.626 575.596 561.886C576.006 560.38 577.139 559.668 578.293 558.718Z" fill="#EFB3BD"/>
<path d="M170.45 0.125366C170.847 0.156466 171.25 0.187166 171.643 0.253666C173.17 0.511866 173.724 1.05736 174.537 2.25286C174.732 3.89276 174.199 4.99346 173.563 6.45016C173.012 6.43536 172.377 6.44486 171.846 6.29406C170.632 5.94966 170.302 5.29727 169.691 4.30367C169.543 2.64837 169.802 1.64617 170.45 0.125366Z" fill="#EFB3BD"/>
<path d="M577.274 306.186C577.817 306.193 578.426 306.18 578.954 306.314C580.241 306.639 580.537 307.108 581.167 308.162C581.292 309.805 580.717 310.917 580.044 312.357C579.601 312.279 579.153 312.202 578.717 312.09C577.258 311.713 576.695 311.134 575.939 309.936C575.833 308.338 576.438 307.471 577.274 306.186Z" fill="#EFB3BD"/>
<path d="M577.987 71.4954C578.544 71.6654 579.181 71.8324 579.687 72.1254C580.816 72.7804 580.935 73.3434 581.209 74.5114C580.822 76.1524 580.022 76.9594 578.893 78.1204C577.574 77.4094 576.06 76.4884 575.602 75.0104C575.803 73.3764 576.869 72.5864 577.987 71.4954Z" fill="#EFB3BD"/>
<path d="M577.372 90.0474C578.044 90.1314 578.844 90.1864 579.474 90.4354C580.657 90.9024 580.881 91.6884 581.29 92.7594C581.094 94.3104 580.593 95.1254 579.649 96.3534C578.929 96.1614 578.133 95.9784 577.466 95.6414C576.459 95.1324 576.134 94.1884 575.869 93.1744C576.104 91.7814 576.411 91.0864 577.372 90.0474Z" fill="#EFB3BD"/>
<path d="M2.1205 252.089C2.8765 252.318 3.6036 252.641 4.336 252.937C4.9883 253.963 5.5469 254.623 5.3705 255.927C5.1837 257.308 4.3139 258.068 3.238 258.819C1.4916 257.915 0.675898 257.337 0.010498 255.498C0.283098 253.953 1.1005 253.199 2.1205 252.089Z" fill="#EFB3BD"/>
<path d="M1.34826 630.799L3.70776 631.227C5.16046 632.276 5.41656 633.079 5.87356 634.747C5.28246 635.457 4.79896 635.542 3.96016 635.844C3.60146 636.024 3.37786 636.151 2.98126 636.281C1.97906 636.611 1.52076 636.33 0.628361 635.878C0.415361 635.471 0.196061 635.087 0.121861 634.626C-0.116239 633.148 0.571363 631.981 1.34826 630.799Z" fill="#EFB3BD"/>
<path d="M577.965 702.585C578.611 702.838 579.331 703.113 579.869 703.56C580.882 704.4 581.253 705.413 581.423 706.666C580.688 707.713 580.573 707.733 579.44 708.157C578.362 708.446 577.711 708.509 576.628 708.188C576.119 708.038 575.985 707.414 575.745 706.961C576.11 704.774 576.619 704.282 577.965 702.585Z" fill="#EFB3BD"/>
<path d="M577.916 504.541C578.555 504.727 579.329 504.905 579.901 505.247C580.922 505.858 581.046 506.822 581.307 507.862C580.859 509.461 580.634 509.754 579.452 510.933L577.498 510.497C576.521 509.549 576.298 509.315 575.915 508.023C576.331 506.217 576.633 505.908 577.916 504.541Z" fill="#EFB3BD"/>
<path d="M69.0561 0.218994C69.4041 0.276094 69.7541 0.324496 70.0981 0.403496C71.6631 0.762896 72.1621 1.1824 72.9901 2.459C73.1001 4.1004 72.5861 5.163 71.9171 6.603C70.0701 6.0654 68.8491 5.58509 67.7311 4.02079C67.5951 2.47379 68.3121 1.50549 69.0561 0.218994Z" fill="#EFB3BD"/>
<path d="M137.102 918.862C137.837 918.978 138.728 919.087 139.339 919.551C140.571 920.488 140.796 921.738 140.875 923.142C140.247 924.03 140.18 924.091 139.163 924.473L137.844 924.803C136.39 924.287 136.32 924.349 135.606 923C135.709 921.045 136.096 920.472 137.102 918.862Z" fill="#EFB3BD"/>
<path d="M1.48511 396.017C1.98941 396.087 2.50751 396.165 2.99041 396.332C4.18031 396.743 4.76631 397.382 5.31961 398.477C5.50291 400.136 4.99011 401.012 4.17301 402.389C3.55851 402.337 2.83981 402.309 2.25761 402.101C0.969406 401.642 0.679208 400.928 0.139908 399.796C0.136708 398.198 0.635008 397.34 1.48511 396.017Z" fill="#EFB3BD"/>
<path d="M577.483 810.984C578.297 811.198 579.416 811.445 580.049 812.038C581.119 813.04 581.341 813.653 581.471 815.02C580.817 815.859 580.468 816.009 579.501 816.328C578.874 816.851 578.423 816.919 577.645 817.025C577.137 817.094 576.828 816.647 576.438 816.344C576.278 815.802 576.121 815.237 576.09 814.67C576.006 813.156 576.583 812.135 577.483 810.984Z" fill="#EFB3BD"/>
<path d="M1.7994 918.899C2.4888 918.928 3.4622 919.074 4.0322 919.501C5.1533 920.341 5.3954 921.114 5.6809 922.384C5.1068 923.389 4.983 923.471 3.9564 924.018C3.0587 924.813 2.9328 924.937 1.6907 925.149C0.817203 924.451 0.671005 924.053 0.494105 922.927C0.228005 921.234 0.855503 920.241 1.7994 918.899Z" fill="#EFB3BD"/>
<path d="M390.702 0.222107C391.441 0.253607 392.295 0.238607 393.01 0.425907C394.084 0.707507 394.36 1.50531 394.804 2.38761C394.773 3.77591 394.547 4.75691 394.011 6.03681C393.365 6.09021 392.625 6.18731 391.984 6.08651C390.696 5.88411 390.361 5.32561 389.725 4.32901C389.597 2.68281 390.041 1.67111 390.702 0.222107Z" fill="#EFB3BD"/>
<path d="M1.77914 468.324C2.39444 468.411 3.13564 468.474 3.70804 468.719C4.81864 469.193 5.05534 470.089 5.45424 471.101C5.26754 472.616 4.92454 473.366 3.94874 474.537C3.37944 474.465 2.73244 474.405 2.19704 474.194C0.935841 473.697 0.603239 473.16 0.0671387 472.023C0.126339 470.398 0.82644 469.538 1.77914 468.324Z" fill="#EFB3BD"/>
<path d="M18.6906 918.979C19.4956 919.048 20.2169 919.176 20.9106 919.625C22.1516 920.428 22.4675 921.513 22.6745 922.851C21.8199 923.83 21.7451 923.823 20.5525 924.09C19.8809 924.75 19.3779 924.782 18.487 924.947C17.5849 924.329 17.4295 924.002 17.279 922.889C17.0649 921.305 17.8392 920.213 18.6906 918.979Z" fill="#EFB3BD"/>
<path d="M1.49397 810.976L3.85247 811.67C4.96837 812.653 5.34817 813.277 5.65807 814.733C5.10847 815.667 5.01577 815.817 4.07097 816.329C3.18477 816.987 2.67287 816.999 1.62427 816.991C0.840866 816.36 0.607769 816.251 0.385069 815.224C0.0195691 813.538 0.603267 812.364 1.49397 810.976Z" fill="#EFB3BD"/>
<path d="M510.104 918.486C510.794 918.79 511.553 919.222 512.114 919.727C513.04 920.561 513.297 921.446 513.323 922.642C512.783 923.806 512.349 924.266 511.224 924.881C511.177 924.901 511.133 924.932 511.083 924.943C510.103 925.147 509.867 924.99 508.971 924.591C508.71 924.079 508.456 923.539 508.356 922.968C508.035 921.118 509.054 919.845 510.104 918.486Z" fill="#EFB3BD"/>
<path d="M356.93 0.297729C357.626 0.326129 358.407 0.32023 359.083 0.48843C360.35 0.80343 360.582 1.34063 361.113 2.40113C361.043 4.02893 360.57 5.04103 359.847 6.46313C359.671 6.43153 359.495 6.40353 359.319 6.36813C357.789 6.05933 356.824 5.50453 355.96 4.20993C355.699 2.56063 356.208 1.71623 356.93 0.297729Z" fill="#EFB3BD"/>
<path d="M0.553379 613.079C1.02078 613.028 1.49278 612.975 1.96268 612.957C3.50078 612.9 4.14058 613.291 5.21828 614.253C5.69828 615.634 5.50338 616.504 5.13608 617.893C4.87254 617.954 4.60811 618.011 4.34278 618.063C2.78858 618.371 1.84468 618.438 0.531978 617.551C-0.0953215 616.023 0.291579 614.651 0.553379 613.079Z" fill="#EFB3BD"/>
<path d="M0.366266 18.3903C0.882366 18.3587 1.40047 18.3254 1.91757 18.3167C3.51597 18.2898 4.06577 18.4479 5.18257 19.49C5.53007 21.0749 5.14387 22.2777 4.75167 23.8057C3.26957 23.8004 2.17877 23.8585 0.842966 23.1065C-0.0807337 21.7281 0.276966 19.9813 0.366266 18.3903Z" fill="#EFB3BD"/>
<path d="M204.987 0.128601L207.079 0.720604C207.886 1.5315 208.464 1.9489 208.443 3.2094C208.42 4.6222 207.366 5.7121 206.482 6.6931C206.15 6.5777 205.813 6.472 205.491 6.3318C204.084 5.7195 203.619 5.0971 203.051 3.7677C203.225 2.1229 203.959 1.3246 204.987 0.128601Z" fill="#EFB3BD"/>
<path d="M221.515 918.874C222.283 918.97 223.354 919.169 223.978 919.672C225.081 920.561 225.292 921.357 225.545 922.65C224.846 923.681 224.776 923.719 223.607 924.157C222.738 924.841 222.676 924.845 221.567 924.891C220.824 924.241 220.611 924.064 220.356 923.117C219.863 921.285 220.629 920.341 221.515 918.874Z" fill="#EFB3BD"/>
<path d="M577.924 630.394C578.339 630.583 578.754 630.776 579.146 631.01C580.446 631.785 581.226 632.836 581.562 634.291C580.879 635.337 580.781 635.305 579.663 635.698C578.555 636.436 578.431 636.513 577.108 636.482C576.373 635.704 576.07 635.246 576.039 634.132C575.991 632.405 576.916 631.637 577.924 630.394Z" fill="#EFB3BD"/>
<path d="M0.381257 162.411C2.09936 162.32 3.41996 162.221 4.92226 163.115C5.65336 164.694 5.15405 166.255 4.85306 167.9C3.17216 167.85 1.93086 167.845 0.631055 166.692C-0.012845 165.162 0.193557 164.004 0.381257 162.411Z" fill="#EFB3BD"/>
<path d="M492.377 918.861C493.099 918.997 494.065 919.13 494.729 919.478C495.963 920.124 496.578 921.102 496.982 922.39C496.405 923.258 496.202 923.339 495.254 923.803C494.374 924.737 494.183 924.805 493.012 925.146C492.205 924.611 492.061 924.48 491.725 923.572C491.039 921.718 491.599 920.526 492.377 918.861Z" fill="#EFB3BD"/>
<path d="M119.867 0.127014C120.218 0.155514 120.572 0.173412 120.92 0.228912C122.329 0.453212 122.966 0.890412 123.772 2.01061C124.014 3.68431 123.391 4.87441 122.738 6.36031C122.209 6.37241 121.605 6.40871 121.087 6.28891C119.876 6.00841 119.546 5.49141 118.921 4.52901C118.747 2.74251 119.157 1.70321 119.867 0.127014Z" fill="#EFB3BD"/>
<path d="M577.481 721.137L579.622 721.693C580.689 722.629 581.269 723.186 581.538 724.609C581.009 725.627 580.93 725.718 579.932 726.281C579.076 726.693 578.405 726.779 577.479 726.851C576.31 726.194 576.356 726.136 575.895 724.96C576.134 723.029 576.298 722.686 577.481 721.137Z" fill="#EFB3BD"/>
<path d="M289.518 918.986C290.456 919.057 291.402 919.225 292.129 919.884C293.136 920.798 293.332 921.35 293.439 922.66C292.877 923.485 292.596 923.818 291.666 924.273C291.008 924.786 290.692 924.902 289.861 924.964C288.864 924.387 288.425 924.114 288.208 922.915C287.877 921.084 288.571 920.386 289.518 918.986Z" fill="#EFB3BD"/>
<path d="M576.39 180.425C577.073 180.391 577.81 180.327 578.489 180.412C579.796 180.575 580.204 180.966 581.024 181.885C581.363 183.556 580.924 184.666 580.366 186.206C578.667 186.081 577.498 185.91 576.296 184.622C575.736 183.072 576.037 181.963 576.39 180.425Z" fill="#EFB3BD"/>
<path d="M374.177 0.0904541C374.58 0.153654 374.99 0.216854 375.385 0.318054C376.797 0.679754 377.368 1.28245 378.034 2.50695C378.069 4.21535 377.364 5.09455 376.419 6.41165L374.709 6.18305C373.732 5.43345 373.003 5.06275 372.781 3.74235C372.533 2.26555 373.338 1.20235 374.177 0.0904541Z" fill="#EFB3BD"/>
<path d="M1.47325 594.744C1.83385 594.778 2.19875 594.812 2.55555 594.875C3.99935 595.131 4.48445 595.621 5.29885 596.733C5.53485 598.315 4.92485 599.537 4.36715 600.983C3.65585 600.888 2.88785 600.817 2.20015 600.611C1.00795 600.255 0.734745 599.842 0.133545 598.799C0.146145 597.142 0.696348 596.142 1.47325 594.744Z" fill="#EFB3BD"/>
<path d="M577.665 522.466L579.799 523.061C580.816 524.075 581.011 524.29 581.366 525.669C580.841 527.234 580.595 527.522 579.368 528.64C578.765 528.574 578.028 528.532 577.466 528.301C576.345 527.841 576.171 527.021 575.841 526C576.032 524.403 576.621 523.655 577.665 522.466Z" fill="#EFB3BD"/>
<path d="M577.729 883.259C578.703 883.437 579.333 883.654 580.206 884.12C581.023 885.41 581.211 885.738 581.302 887.248C580.625 888.151 580.54 888.338 579.441 888.754L577.89 889.109C576.563 888.621 576.565 888.668 575.956 887.399C576.142 885.357 576.561 884.86 577.729 883.259Z" fill="#EFB3BD"/>
<path d="M0.80637 757.23C1.50567 757.294 2.21987 757.352 2.90997 757.49C4.31417 757.768 4.98577 758.315 5.72367 759.466C5.59507 760.581 5.37887 760.894 4.62877 761.727C4.01707 762.64 3.39277 762.857 2.42037 763.25C1.38117 762.9 1.25077 762.877 0.745671 761.905C-0.0790291 760.316 0.35667 758.841 0.80637 757.23Z" fill="#EFB3BD"/>
<path d="M441.757 918.873C442.485 919.05 443.379 919.219 444.03 919.592C445.177 920.25 445.431 921.175 445.756 922.331C445.356 923.394 445.123 923.776 444.234 924.481C443.845 924.644 443.778 924.693 443.314 924.772C442.604 924.893 441.752 924.749 441.162 924.338C440.585 923.935 440.388 923.361 440.289 922.677C440.086 921.26 441.028 919.993 441.757 918.873Z" fill="#EFB3BD"/>
<path d="M576.443 18.335C577.105 18.2857 577.823 18.2059 578.484 18.2797C579.842 18.4314 580.239 18.8079 581.066 19.7758C581.322 21.3583 580.991 22.4096 580.471 23.8809C580.209 23.8792 579.947 23.8722 579.685 23.8597C577.894 23.774 577.167 23.3698 576.02 22.0983C575.715 20.6109 575.922 19.7461 576.443 18.335Z" fill="#EFB3BD"/>
<path d="M577.466 215.821C577.638 215.851 577.811 215.877 577.982 215.911C579.54 216.218 580.457 216.983 581.272 218.248C581.202 219.951 580.749 220.538 579.884 221.957C579.286 221.936 578.616 221.94 578.036 221.791C576.858 221.488 576.537 221.042 575.948 220.041C575.794 218.302 576.596 217.229 577.466 215.821Z" fill="#EFB3BD"/>
<path d="M1.2712 342.575C2.1735 342.572 3.0774 342.633 3.9788 342.674C4.9934 343.43 5.0217 343.475 5.3901 344.686C5.1796 346.342 4.5267 347.403 3.6662 348.78C2.1563 348.266 1.1513 347.854 0.2001 346.54C-0.0885997 344.862 0.501102 343.996 1.2712 342.575Z" fill="#EFB3BD"/>
<path d="M577.575 324.207C578.048 324.28 578.524 324.341 578.975 324.513C580.181 324.974 580.719 325.599 581.258 326.732C581.101 328.498 580.695 329.024 579.73 330.451L577.548 330.123C576.418 329.245 576.276 329.137 575.845 327.782C576.063 326.222 576.596 325.42 577.575 324.207Z" fill="#EFB3BD"/>
<path d="M1.99979 71.3294C2.27209 71.3844 2.58029 71.4334 2.84649 71.5314C4.31299 72.0704 4.93519 73.0174 5.49629 74.3484C5.20339 76.0774 4.78669 76.4644 3.66989 77.7424C3.06119 77.6514 2.33929 77.5754 1.77519 77.3254C0.612992 76.8094 0.376291 76.1964 0.0336914 75.0584C0.249391 73.4284 1.00549 72.5544 1.99979 71.3294Z" fill="#EFB3BD"/>
<path d="M305.952 0.081543L308.495 0.571144C309.182 1.18614 309.76 1.52155 309.976 2.48085C310.315 3.98325 309.377 5.54205 308.581 6.73225C308.006 6.64475 307.365 6.55994 306.831 6.32294C306.017 5.96194 305.307 5.03104 305.061 4.18974C304.604 2.63154 305.138 1.38584 305.952 0.081543Z" fill="#EFB3BD"/>
<path d="M357.343 918.872C358.142 919.013 358.909 919.265 359.685 919.499C360.684 920.558 361.204 921.171 361.321 922.652C360.758 923.687 360.656 923.762 359.615 924.324C358.762 924.837 358.288 924.787 357.328 924.757C356.464 924.19 356.126 923.943 355.962 922.876C355.718 921.287 356.522 920.13 357.343 918.872Z" fill="#EFB3BD"/>
<path d="M1.29242 721.153C2.00542 721.238 2.78242 721.307 3.46522 721.535C4.54332 721.895 5.07292 722.7 5.54452 723.664C5.41382 724.758 5.30992 725.128 4.58612 725.958C3.55062 726.746 2.92862 726.99 1.62672 727.043C0.780022 726.48 0.591522 726.393 0.325922 725.408C-0.0997781 723.828 0.518521 722.494 1.29242 721.153Z" fill="#EFB3BD"/>
<path d="M576.988 918.884C577.846 919.095 578.683 919.328 579.527 919.592C580.566 920.747 581.002 921.413 581.128 922.978C580.617 923.803 580.281 923.983 579.442 924.388C578.576 924.798 578.171 924.765 577.254 924.67C576.309 924.044 575.868 923.794 575.663 922.565C575.415 921.085 576.17 920.026 576.988 918.884Z" fill="#EFB3BD"/>
<path d="M153.85 0.0788574C154.257 0.117657 154.669 0.155055 155.07 0.226555C156.422 0.466855 156.926 1.05526 157.654 2.11086C157.848 3.81816 157.286 4.92816 156.633 6.45496C155.888 6.36636 155.011 6.31466 154.306 6.05826C153.193 5.65356 152.95 4.80655 152.553 3.82875C152.607 2.28515 153.063 1.38846 153.85 0.0788574Z" fill="#EFB3BD"/>
<path d="M577.561 0.0317383L579.592 0.654537C580.356 1.50114 580.998 2.24544 580.926 3.45074C580.835 4.95694 580.342 5.84504 579.245 6.83674C578.603 6.60294 577.918 6.36714 577.33 6.01574C576.259 5.37654 575.879 4.45274 575.617 3.29264C576.057 1.59344 576.322 1.29824 577.561 0.0317383Z" fill="#EFB3BD"/>
<path d="M577.105 414.703C577.855 414.755 578.702 414.771 579.426 414.975C580.569 415.297 580.914 415.823 581.433 416.81C581.429 418.426 580.607 419.241 579.658 420.446L578.279 420.524C577.282 420.039 576.438 419.747 576.097 418.55C575.626 416.898 576.318 416.068 577.105 414.703Z" fill="#EFB3BD"/>
<path d="M577.168 594.789C577.744 594.835 578.414 594.868 578.956 595.076C580.276 595.581 580.711 596.271 581.355 597.418C581.227 599.121 580.963 599.358 579.907 600.734L577.966 600.737C576.804 600.086 576.638 599.974 576.018 598.804C575.935 597.112 576.316 596.234 577.168 594.789Z" fill="#EFB3BD"/>
<path d="M577.896 143.569C577.988 143.596 578.081 143.618 578.171 143.651C579.519 144.139 580.723 144.797 581.328 146.126C581.352 147.908 580.463 148.865 579.462 150.235C577.775 149.568 576.628 149.033 575.835 147.362C576.027 145.733 576.914 144.808 577.896 143.569Z" fill="#EFB3BD"/>
<path d="M2.41143 864.748L4.33594 865.822C5.13014 866.936 5.48164 867.62 5.53584 868.999C4.99314 869.966 5.00263 869.935 3.95763 870.315C2.83713 870.822 2.30544 870.913 1.08844 870.703C0.324336 869.791 0.0970369 869.466 0.224537 868.251C0.396837 866.609 1.21303 865.78 2.41143 864.748Z" fill="#EFB3BD"/>
<path d="M1.46541 774.82C2.11111 774.926 2.83231 775.039 3.42321 775.331C4.60251 775.913 5.40351 776.865 5.84141 778.073C5.49741 779.166 5.3185 779.214 4.4446 779.885C3.3374 780.794 3.20331 780.904 1.78591 781.022C0.904505 780.26 0.773705 780.056 0.491205 778.927C0.0769048 777.27 0.640506 776.234 1.46541 774.82Z" fill="#EFB3BD"/>
<path d="M102.51 918.867C103.236 918.992 104.285 919.1 104.954 919.442C106.289 920.125 106.576 920.753 107.069 922.056C106.633 923.012 106.317 923.359 105.484 923.999C104.664 924.774 104.552 924.833 103.444 925.043C102.344 924.369 102.095 924.103 101.709 922.857C101.236 921.329 101.839 920.203 102.51 918.867Z" fill="#EFB3BD"/>
<path d="M576.578 126.262C577.03 126.247 577.484 126.231 577.936 126.236C579.457 126.252 580.009 126.329 581.05 127.426C581.297 129.057 580.775 130.501 580.345 132.06C580.192 132.045 580.039 132.033 579.886 132.015C578.391 131.836 577.141 131.508 576.173 130.317C575.703 128.742 576.101 127.761 576.578 126.262Z" fill="#EFB3BD"/>
<path d="M1.45868 89.9204C1.88718 89.9784 2.32138 90.0354 2.74408 90.1264C4.21488 90.4444 4.66768 91.0094 5.39608 92.2064C5.50338 93.7244 5.01757 94.7404 4.39397 96.0804L2.00108 95.8964C0.807576 95.1084 0.690473 94.9994 0.155273 93.6774C0.230573 92.1384 0.675075 91.2314 1.45868 89.9204Z" fill="#EFB3BD"/>
<path d="M577.233 468.441C577.928 468.475 578.763 468.468 579.427 468.68C580.516 469.028 580.855 469.79 581.316 470.736C581.308 472.279 580.914 472.993 580.007 474.22C579.365 474.257 578.603 474.345 577.971 474.218C576.844 473.992 576.482 473.287 575.953 472.406C575.854 470.678 576.354 469.859 577.233 468.441Z" fill="#EFB3BD"/>
<path d="M441.477 0C441.84 0.0527 442.211 0.106499 442.567 0.197399C444.086 0.585399 444.635 1.2551 445.36 2.5216C445.529 4.1436 444.968 5.1978 444.294 6.6113C444.027 6.5597 443.76 6.503 443.495 6.4412C441.809 6.0479 441.182 5.5644 440.296 4.1642C440.138 2.4897 440.743 1.4346 441.477 0Z" fill="#EFB3BD"/>
<path d="M576.677 54.0233C577.411 53.9844 578.262 53.8927 578.985 54.0257C580.214 54.2518 580.605 54.9196 581.217 55.8703C581.377 57.3691 581.152 58.245 580.553 59.6191C580.438 59.6211 580.323 59.6242 580.207 59.6249C578.418 59.6363 577.445 59.5078 576.169 58.236C575.731 56.6812 576.223 55.5091 576.677 54.0233Z" fill="#EFB3BD"/>
<path d="M559.298 0.360596C561.064 0.383896 562.348 0.389595 563.759 1.50529C564.233 3.10469 563.645 4.5531 563.214 6.1077C562.846 6.1782 562.467 6.26559 562.089 6.25499C560.705 6.21619 560.366 5.989 559.396 5.1017C558.808 3.4136 559.045 2.0722 559.298 0.360596Z" fill="#EFB3BD"/>
<path d="M576.842 432.728C576.961 432.731 577.08 432.733 577.198 432.738C579.082 432.806 579.96 433.022 581.213 434.382C581.543 435.955 581.022 436.949 580.437 438.373C579.65 438.377 578.71 438.434 577.942 438.269C576.821 438.029 576.442 437.235 575.909 436.357C575.854 434.828 576.048 434.036 576.842 432.728Z" fill="#EFB3BD"/>
<path d="M577.867 756.906L580.21 757.963C581.019 759.132 581.135 760.051 581.243 761.449C580.517 762.201 580.474 762.214 579.442 762.389C578.207 762.812 578.016 762.763 576.8 762.495C576.068 761.643 575.822 761.261 575.883 760.105C575.96 758.648 576.855 757.834 577.867 756.906Z" fill="#EFB3BD"/>
<path d="M508.583 0.611518C509.431 0.595618 510.552 0.480518 511.376 0.675918C512.507 0.944518 512.869 1.49872 513.464 2.42472C513.601 3.96602 513.182 4.67862 512.416 5.99372C511.997 6.07322 511.533 6.18582 511.101 6.17082C509.772 6.12452 509.382 5.77222 508.457 4.92562C507.87 3.35222 508.219 2.17482 508.583 0.611518Z" fill="#EFB3BD"/>
<path d="M1.33737 847.11C2.09287 847.267 3.14687 847.407 3.82177 847.781C5.02847 848.449 5.35127 848.996 5.71517 850.265C5.19507 851.257 4.88928 851.627 3.95668 852.246C3.14948 852.961 3.00857 853.03 1.94857 853.224C0.996273 852.634 0.793773 852.542 0.426573 851.491C-0.200927 849.694 0.543774 848.626 1.33737 847.11Z" fill="#EFB3BD"/>
<path d="M272.931 0.175049C273.384 0.209349 273.926 0.217449 274.364 0.371349C275.527 0.779949 275.822 1.23485 276.325 2.30265C276.304 3.96215 275.553 5.04865 274.724 6.41505C274.094 6.32675 273.331 6.25635 272.749 5.99365C271.493 5.42675 271.291 4.66585 270.928 3.47755C271.335 1.82215 271.802 1.38605 272.931 0.175049Z" fill="#EFB3BD"/>
<path d="M1.52432 576.703C2.15252 576.767 2.89352 576.804 3.48752 577.02C4.63202 577.438 4.94792 578.3 5.44312 579.29C5.35102 580.617 5.27182 581.501 4.59172 582.66C3.71972 582.63 2.53482 582.696 1.70122 582.451C0.645321 582.141 0.44332 581.5 0.0283203 580.571C0.17912 578.974 0.660219 578.04 1.52432 576.703Z" fill="#EFB3BD"/>
<path d="M306.007 918.845L308.481 919.372C309.599 920.352 310.188 920.97 310.559 922.43C310.147 923.266 309.696 923.433 308.907 923.854C308.089 924.725 307.907 924.746 306.802 925.035C305.652 924.324 305.451 923.99 305.081 922.675C304.679 921.247 305.375 920.078 306.007 918.845Z" fill="#EFB3BD"/>
<path d="M492.905 0.172363C493.492 0.227863 494.204 0.261363 494.751 0.483063C495.909 0.951663 496.153 1.66576 496.547 2.72346C496.447 4.32106 495.89 5.24616 495.04 6.54996C494.408 6.42046 493.682 6.30326 493.096 6.02966C491.962 5.50076 491.622 4.87407 491.146 3.78207C491.203 2.13517 491.884 1.36986 492.905 0.172363Z" fill="#EFB3BD"/>
<path d="M577.117 576.824L579.418 577.146C580.555 578.023 580.801 578.222 581.337 579.539C581.239 580.737 581.148 581.509 580.518 582.545C579.735 582.569 578.673 582.692 577.913 582.51C576.717 582.222 576.438 581.574 575.884 580.61C575.894 579.015 576.28 578.167 577.117 576.824Z" fill="#EFB3BD"/>
<path d="M0.340915 54.0626C1.11951 54.0206 1.99581 53.9357 2.77371 54.0288C4.07651 54.1848 4.50962 54.6845 5.31462 55.5979C5.61702 56.9166 5.52092 57.766 5.17762 59.0675C3.60672 59.5062 2.25501 59.644 0.796614 58.9055C-0.0655856 57.3903 0.239415 55.7433 0.340915 54.0626Z" fill="#EFB3BD"/>
<path d="M526.484 0.123657C526.959 0.165457 527.505 0.183155 527.963 0.343655C529.313 0.816955 529.644 1.33756 530.301 2.50396C530.423 4.13276 529.74 5.08906 528.928 6.41236C528.301 6.34146 527.565 6.29306 526.975 6.06516C525.76 5.59536 525.484 4.88226 525.003 3.79306C525.009 2.19996 525.576 1.39136 526.484 0.123657Z" fill="#EFB3BD"/>
<path d="M272.725 918.891C273.49 919.01 274.516 919.222 275.113 919.767C276.2 920.76 276.425 921.493 276.585 922.857C275.989 923.747 275.726 923.959 274.723 924.333C273.402 924.72 273.081 924.773 271.744 924.478L271.093 923.372C271.228 921.251 271.626 920.631 272.725 918.891Z" fill="#EFB3BD"/>
<path d="M526.345 918.984C527.059 919.04 528.103 919.139 528.716 919.55C529.914 920.352 530.223 921.09 530.589 922.382C530.004 923.432 529.823 923.61 528.795 924.236C528.083 924.84 527.685 924.876 526.793 924.988C525.848 924.477 525.524 924.227 525.276 923.138C524.897 921.476 525.49 920.361 526.345 918.984Z" fill="#EFB3BD"/>
<path d="M577.191 450.277C577.842 450.36 578.571 450.422 579.19 450.64C580.401 451.065 580.72 451.562 581.258 452.664C581.235 454.224 580.538 455.162 579.744 456.44C579.17 456.422 578.51 456.429 577.956 456.274C576.702 455.921 576.45 455.321 575.897 454.264C575.932 452.638 576.412 451.657 577.191 450.277Z" fill="#EFB3BD"/>
<path d="M458.597 0.0245972C459.158 0.119197 459.771 0.206401 460.302 0.414101C461.607 0.924201 461.924 1.3526 462.515 2.5249C462.436 4.2487 461.599 5.061 460.551 6.3252L459.143 6.2919C458.178 5.6241 457.451 5.23 457.277 3.9418C457.049 2.2495 457.748 1.3727 458.597 0.0245972Z" fill="#EFB3BD"/>
<path d="M238.931 0.0749512C239.566 0.160951 240.332 0.223052 240.924 0.473152C242.051 0.949552 242.247 1.69805 242.598 2.74025C242.409 4.51645 241.719 5.27995 240.576 6.53495C238.758 5.89635 237.978 5.50245 237.146 3.77815C237.257 2.18615 238.023 1.31215 238.931 0.0749512Z" fill="#EFB3BD"/>
<path d="M155.185 918.606C155.882 919.057 156.834 919.704 157.311 920.39C158.047 921.448 158.067 922.139 157.826 923.335C156.954 924.051 156.561 924.157 155.439 924.276L154.391 924.777L153.193 924.34C152.686 923.411 152.532 922.809 152.699 921.741C152.974 919.991 153.832 919.524 155.185 918.606Z" fill="#EFB3BD"/>
<path d="M577.598 847.172C578.988 847.353 579.301 847.428 580.42 848.258C580.993 849.662 581.155 850.029 580.975 851.515C580.18 852.472 580.266 852.538 578.954 852.69L577.842 852.901C576.545 852.447 576.433 852.563 575.757 851.287C575.991 849.25 576.405 848.753 577.598 847.172Z" fill="#EFB3BD"/>
<path d="M578.293 270.104L580.221 270.743C580.859 271.496 581.246 271.76 581.285 272.826C581.348 274.519 579.963 275.799 578.889 276.933C577.258 275.737 576.173 274.831 575.734 272.843C576.268 271.382 577.02 270.938 578.293 270.104Z" fill="#EFB3BD"/>
<path d="M1.17606 108.11C2.07746 108.138 3.37766 108.068 4.17816 108.473C5.00876 108.892 5.11006 109.517 5.43406 110.306C5.28806 111.966 4.69566 113.009 3.87286 114.402C3.27176 114.278 2.62816 114.156 2.06456 113.908C0.95286 113.418 0.491759 112.563 0.130859 111.466C0.154559 110.048 0.41246 109.302 1.17606 108.11Z" fill="#EFB3BD"/>
<path d="M577.722 792.943C578.533 793.168 579.531 793.494 580.134 794.123C581.031 795.061 581.308 796.165 581.262 797.419C580.535 798.321 580.578 798.322 579.442 798.52C579.16 798.658 578.769 798.865 578.469 798.932C577.497 799.15 577.154 798.923 576.342 798.475C576.15 798.044 575.968 797.661 575.931 797.183C575.797 795.44 576.718 794.224 577.722 792.943Z" fill="#EFB3BD"/>
<path d="M255.172 0.117615C255.462 0.129215 255.85 0.135015 256.152 0.175415C257.573 0.366315 258.25 0.927215 259.105 1.96552C259.568 3.62692 259.164 4.71872 258.649 6.28362C257.885 6.26972 257.018 6.30281 256.273 6.13501C255.199 5.89301 254.844 5.24081 254.324 4.36451C254.164 2.71441 254.586 1.61291 255.172 0.117615Z" fill="#EFB3BD"/>
<path d="M0.399181 180.486C1.16348 180.415 1.99068 180.304 2.75598 180.367C4.08418 180.477 4.53298 180.845 5.38598 181.8C5.67608 183.347 5.17508 184.295 4.52288 185.653C4.13738 185.816 3.93678 185.917 3.50408 186.014C2.28188 186.289 1.85408 185.953 0.892883 185.31C0.100783 183.76 0.317781 182.164 0.399181 180.486Z" fill="#EFB3BD"/>
<path d="M322.503 918.819C323.198 918.934 323.899 919.053 324.578 919.248C326.048 919.672 326.864 920.676 327.594 921.949C327.003 923.105 327.085 923.335 325.816 923.792C324.571 924.638 324.054 924.775 322.628 924.514C322.333 924.167 322.067 923.87 321.914 923.432C321.344 921.801 321.91 920.323 322.503 918.819Z" fill="#EFB3BD"/>
<path d="M577.419 901.286L579.658 902.024C580.784 903.118 581.258 903.779 581.526 905.339C580.837 906.3 580.694 906.306 579.635 906.69C579.339 906.908 579.203 907.035 578.829 907.17C577.76 907.556 577.232 907.181 576.381 906.592C576.201 906.111 576.03 905.613 575.973 905.099C575.8 903.528 576.522 902.488 577.419 901.286Z" fill="#EFB3BD"/>
<path d="M1.16101 0.122314C1.55231 0.143714 1.74921 0.143712 2.11251 0.195312C3.55581 0.400212 4.34301 0.887014 5.22941 2.01651C5.76051 3.68911 5.18451 4.82872 4.57631 6.36752C4.19611 6.35912 3.81271 6.35131 3.43381 6.31751C1.91751 6.18241 1.42351 5.84722 0.485815 4.75232C0.130314 3.07852 0.670312 1.70081 1.16101 0.122314Z" fill="#EFB3BD"/>
<path d="M1.73983 522.45C2.04393 522.496 2.47512 522.549 2.79042 522.632C4.24562 523.013 4.81882 523.808 5.48162 525.027C5.61972 526.628 5.01443 527.47 4.16573 528.747C3.46593 528.669 2.66903 528.619 2.00153 528.393C0.764826 527.974 0.547324 527.385 0.0969238 526.29C0.231524 524.634 0.818926 523.775 1.73983 522.45Z" fill="#EFB3BD"/>
<path d="M578.12 864.734C578.965 865.094 579.92 865.466 580.458 866.255C581.021 867.082 581.423 868.439 581.215 869.43C581.053 870.205 580.862 870.143 580.258 870.571L578.955 870.187C577.684 870.494 577.502 870.587 576.216 870.129L575.819 868.922C576.078 866.924 576.792 866.114 578.12 864.734Z" fill="#EFB3BD"/>
<path d="M407.357 918.846L407.907 918.986C408.156 919.051 408.402 919.126 408.654 919.179C409.169 919.288 409.763 919.319 410.225 919.597C411.495 920.362 411.803 921.109 412.197 922.423C411.714 923.274 411.359 923.529 410.555 924.025C409.588 924.857 409.099 924.923 407.864 924.936L407.019 923.972C406.48 921.958 406.78 920.787 407.357 918.846Z" fill="#EFB3BD"/>
<path d="M2.23642 504.426L4.19542 505.257C4.91512 506.074 5.54912 506.933 5.46902 508.092C5.37012 509.525 4.88632 510.1 3.95292 511.059L1.57172 510.367C0.546716 509.311 0.353417 509.13 0.0576172 507.704C0.360717 506.126 1.06962 505.477 2.23642 504.426Z" fill="#EFB3BD"/>
<path d="M34.9459 918.9C35.7317 919.045 36.8392 919.165 37.5453 919.538C38.8523 920.228 39.1147 920.811 39.4833 922.119C39.1396 923.093 38.8592 923.509 38.1254 924.236C37.4301 924.784 36.7262 924.806 35.8808 924.911C35.0362 924.501 34.7422 924.458 34.3666 923.538C33.6942 921.892 34.2312 920.41 34.9459 918.9Z" fill="#EFB3BD"/>
<path d="M51.9562 0.0559082C52.4747 0.0785082 53.0131 0.106106 53.5171 0.238106C54.7485 0.560606 55.4048 1.20391 56.039 2.26401C56.1862 3.96741 55.9547 4.41361 55.2503 5.99921L52.9994 6.15091C51.749 5.56531 51.6529 5.49651 50.9871 4.29011C50.8145 2.63041 51.3183 1.53341 51.9562 0.0559082Z" fill="#EFB3BD"/>
<path d="M577.039 35.8236C577.743 35.8657 578.538 35.8741 579.22 36.0595C580.48 36.4022 580.722 36.9892 581.253 38.0519C581.208 39.61 580.781 40.6901 580.139 42.0791C579.691 41.9972 579.246 41.9019 578.803 41.793C577.379 41.4323 576.779 41.0338 576.018 39.7795C575.817 38.1542 576.328 37.2161 577.039 35.8236Z" fill="#EFB3BD"/>
<path d="M577.61 774.901C578.346 774.991 579.353 775.188 579.947 775.674C581.066 776.59 581.29 777.306 581.496 778.635C580.966 779.503 580.724 779.82 579.773 780.288C578.794 780.813 578.19 780.725 577.139 780.6C576.382 780.005 575.97 779.643 575.917 778.616C575.832 776.977 576.71 776.127 577.61 774.901Z" fill="#EFB3BD"/>
<path d="M0.618801 270.378C1.414 270.366 2.4716 270.269 3.24 270.469C4.5051 270.797 4.8572 271.269 5.5099 272.336C5.5817 273.967 4.9771 274.767 4.1041 276.043C3.6883 276.12 3.1609 276.255 2.7278 276.218C1.5532 276.115 1.1684 275.466 0.492599 274.641C0.0840993 273.02 0.264701 271.971 0.618801 270.378Z" fill="#EFB3BD"/>
<path d="M424.439 918.923C425.288 919.035 426.573 919.13 427.254 919.701C428.38 920.645 428.716 921.313 428.977 922.673C428.418 923.534 428.059 923.683 427.15 924.059C426.409 924.683 426.173 924.692 425.205 924.86C424.28 924.385 423.767 924.072 423.487 922.999C423.065 921.387 423.793 920.323 424.439 918.923Z" fill="#EFB3BD"/>
<path d="M1.79493 215.812C2.05463 215.845 2.39013 215.877 2.65543 215.939C4.05613 216.264 4.59093 216.924 5.31153 218.051C5.52633 219.674 5.01903 220.691 4.40273 222.144C3.56463 222.064 2.55393 222.053 1.74723 221.791C0.635427 221.431 0.460529 220.627 0.119629 219.663C0.293029 218.043 0.908726 217.113 1.79493 215.812Z" fill="#EFB3BD"/>
<path d="M68.8592 918.881C70.3352 919.166 71.3952 919.173 72.4522 920.384C73.0602 921.081 73.4632 921.867 73.4392 922.799C73.0172 923.458 72.4772 923.662 71.8042 924.015C70.9382 924.787 70.8492 924.804 69.6942 924.948C68.7512 924.33 68.5292 924.184 68.1302 923.134C67.4692 921.397 68.1012 920.408 68.8592 918.881Z" fill="#EFB3BD"/>
<path d="M2.1085 324.216L4.1035 324.767C4.8559 325.621 5.5094 326.192 5.5001 327.434C5.4891 328.894 4.6545 329.808 3.6238 330.708C2.8423 330.485 2.0725 330.206 1.3011 329.949C0.416998 328.883 0.264997 328.635 0.0292969 327.277C0.396797 325.77 0.915498 325.184 2.1085 324.216Z" fill="#EFB3BD"/>
<path d="M136.952 0.254664C137.583 0.259064 138.336 0.219765 138.947 0.380965C140.065 0.675965 140.336 1.53896 140.788 2.45986C140.777 4.08966 140.413 5.05566 139.646 6.48256L137.717 6.31896C136.549 5.51146 136.284 5.30876 135.668 4.04406C135.754 2.18916 135.945 1.83206 136.952 0.254664Z" fill="#EFB3BD"/>
<path d="M221.195 0.189941C221.928 0.243941 222.876 0.263542 223.577 0.509842C224.707 0.906642 225.014 1.67624 225.407 2.69544C225.371 4.33794 224.733 5.17334 223.784 6.43444C223.524 6.40314 223.221 6.37584 222.96 6.31694C221.491 5.98574 220.894 5.40544 220.105 4.23374C219.881 2.60454 220.483 1.58614 221.195 0.189941Z" fill="#EFB3BD"/>
<path d="M2.0687 197.714C2.6562 197.838 3.3675 197.954 3.8983 198.239C5.0387 198.85 5.2154 199.634 5.5351 200.765C5.3094 202.402 4.5474 203.071 3.3882 204.139C2.7331 204.061 2.0895 203.865 1.4494 203.706C0.710998 202.875 -0.00200069 202.251 0.0830993 201.019C0.196599 199.375 0.965799 198.768 2.0687 197.714Z" fill="#EFB3BD"/>
<path d="M52.4134 918.958C53.4249 919.082 54.4553 919.285 55.2194 920.028C56.1947 920.976 56.4455 921.563 56.5069 922.877C55.8254 923.753 55.4737 923.919 54.4155 924.254C54.1831 924.426 53.8923 924.663 53.618 924.753C52.6402 925.074 52.2897 924.82 51.4658 924.367C51.2672 923.893 51.0683 923.445 50.9835 922.935C50.7142 921.316 51.5286 920.202 52.4134 918.958Z" fill="#EFB3BD"/>
<path d="M1.9878 143.689C2.4428 143.756 3.0064 143.801 3.4324 144.004C4.6396 144.58 4.9382 145.3 5.4402 146.437C5.2343 148.234 4.9732 148.584 3.8891 150.058C3.2304 149.994 2.4183 149.958 1.8047 149.706C0.604403 149.212 0.3641 148.412 0 147.309C0.1239 145.626 0.908701 144.865 1.9878 143.689Z" fill="#EFB3BD"/>
<path d="M577.121 396.206C577.711 396.233 578.39 396.237 578.957 396.411C580.244 396.805 580.587 397.399 581.195 398.481C581.299 400.156 580.677 401.077 579.839 402.437C579.309 402.392 578.713 402.357 578.209 402.179C576.881 401.711 576.531 401.164 575.882 400.019C575.779 398.445 576.355 397.517 577.121 396.206Z" fill="#EFB3BD"/>
<path d="M578.003 359.903C578.559 360.099 579.182 360.308 579.667 360.65C580.487 361.228 581.266 362.561 581.256 363.582C581.243 365.025 580.854 365.567 579.984 366.602C579.236 366.478 578.164 366.39 577.485 366.055C576.303 365.472 576.185 364.826 575.859 363.672C576.16 362.008 576.94 361.134 578.003 359.903Z" fill="#EFB3BD"/>
<path d="M0.36679 126.357C1.18499 126.288 2.21049 126.12 3.02109 126.24C4.29099 126.426 4.63929 126.932 5.35129 127.867C5.56299 129.403 5.19069 130.341 4.64599 131.747C4.54579 131.776 4.44769 131.814 4.34539 131.834C2.83699 132.129 1.92069 131.745 0.741889 130.928C-0.104711 129.347 0.15379 128.05 0.36679 126.357Z" fill="#EFB3BD"/>
<path d="M576.54 108.18C577.319 108.192 578.201 108.167 578.97 108.315C580.293 108.57 580.613 109.048 581.285 110.088C581.336 111.687 580.741 112.632 580.002 113.987C579.695 114.012 579.387 114.048 579.078 114.047C577.666 114.046 577.135 113.574 576.215 112.634C575.713 111.01 576.126 109.758 576.54 108.18Z" fill="#EFB3BD"/>
<path d="M1.39149 648.828L3.91739 649.419C5.19649 650.753 5.61609 651.648 5.61049 653.492C4.99469 653.806 4.66728 653.973 3.96928 654.061C3.15668 654.503 2.66878 654.612 1.77238 654.694C0.883085 654.156 0.226585 653.862 0.0782853 652.693C-0.153115 650.869 0.386987 650.216 1.39149 648.828Z" fill="#EFB3BD"/>
<path d="M577.756 377.886C578.057 377.964 578.466 378.058 578.772 378.172C580.194 378.702 580.754 379.491 581.336 380.779C581.072 382.447 580.603 382.954 579.597 384.254C578.817 384.191 578.043 384.046 577.271 383.925C576.479 383.236 575.853 382.875 575.795 381.721C575.718 380.184 576.843 378.984 577.756 377.886Z" fill="#EFB3BD"/>
<path d="M0.690817 36.003C1.48052 35.974 2.48652 35.8557 3.25952 36.0109C4.47642 36.2552 4.77182 36.8051 5.39762 37.749C5.52202 39.3304 4.98572 40.3949 4.34602 41.7853C3.75372 41.7598 3.11372 41.7537 2.53472 41.6231C1.14692 41.3102 0.90952 40.8755 0.18722 39.7543C0.12902 38.3732 0.292317 37.325 0.690817 36.003Z" fill="#EFB3BD"/>
<path d="M1.2299 432.175C2.8534 432.45 4.2728 432.943 5.2596 434.296C5.6718 435.89 5.2118 436.846 4.6539 438.317C3.8899 438.347 2.9788 438.432 2.2192 438.305C1.0199 438.104 0.723697 437.402 0.193397 436.466C0.102797 434.801 0.594996 433.664 1.2299 432.175Z" fill="#EFB3BD"/>
<path d="M1.79341 883.258C2.82351 883.443 3.63691 883.589 4.53801 884.138C4.94311 884.871 5.30981 885.546 5.38381 886.396C5.49281 887.65 5.48591 887.772 4.65781 888.704L3.46801 888.699C3.31401 888.762 3.16601 888.842 3.00601 888.888C1.84791 889.221 1.58781 889.02 0.581608 888.567C0.381608 888.212 0.142209 887.842 0.106709 887.422C-0.0492913 885.575 0.814208 884.65 1.79341 883.258Z" fill="#EFB3BD"/>
<path d="M339.716 918.863C340.524 919.027 341.613 919.166 342.345 919.546C343.614 920.205 343.973 920.734 344.404 922.038C343.899 922.949 343.531 923.373 342.707 924.009C341.711 924.812 341.528 924.874 340.254 925.018C339.284 924.334 339.001 923.897 338.779 922.688C338.505 921.193 338.925 920.099 339.716 918.863Z" fill="#EFB3BD"/>
<path d="M458.384 918.884C460.001 919.239 461.081 919.294 462.162 920.736C462.633 921.364 463.123 922.359 463.026 923.157C462.536 923.648 461.971 923.716 461.319 923.903C460.354 924.739 460.11 924.839 458.854 925.086C457.97 924.486 457.825 924.387 457.512 923.371C456.963 921.591 457.543 920.422 458.384 918.884Z" fill="#EFB3BD"/>
<path d="M1.82019 359.973C2.17839 360.074 2.33539 360.108 2.65959 360.231C4.02529 360.752 4.84369 361.328 5.44809 362.662C5.52709 364.281 4.95729 365.117 4.08919 366.407L1.74009 366.174C0.598689 365.354 0.52339 365.259 0.0795898 363.926C0.28349 362.176 0.793687 361.343 1.82019 359.973Z" fill="#EFB3BD"/>
<path d="M255.269 918.863C256.026 918.987 257.061 919.081 257.749 919.416C259.013 920.032 259.322 920.524 259.729 921.808C259.451 922.812 259.098 923.394 258.458 924.21C257.504 924.853 256.828 924.775 255.736 924.726C254.747 924.021 254.364 923.697 254.164 922.45C253.941 921.057 254.529 919.979 255.269 918.863Z" fill="#EFB3BD"/>
<path d="M170.637 918.925C171.534 919.045 172.753 919.1 173.47 919.703C173.6 919.812 173.724 919.927 173.841 920.049C173.959 920.171 174.069 920.299 174.173 920.433C174.277 920.567 174.374 920.705 174.462 920.849C174.552 920.993 174.633 921.142 174.706 921.294C174.78 921.447 174.845 921.603 174.901 921.763C174.957 921.923 175.005 922.085 175.045 922.249C175.085 922.414 175.115 922.58 175.136 922.748C175.158 922.916 175.17 923.085 175.174 923.254C174.488 923.85 174.247 923.815 173.332 923.946C172.495 924.656 172.113 924.753 171.023 924.877C170.028 924.279 169.719 924.051 169.498 922.872C169.207 921.318 169.859 920.21 170.637 918.925Z" fill="#EFB3BD"/>
<path d="M560.3 918.868C561.284 919.037 562.469 919.143 563.209 919.885C564.212 920.891 564.422 921.635 564.343 922.991C563.727 923.671 563.318 923.899 562.497 924.246C561.616 924.758 561.196 924.673 560.194 924.679C559.174 923.857 558.908 923.588 558.738 922.207C558.57 920.844 559.505 919.858 560.3 918.868Z" fill="#EFB3BD"/>
<path d="M1.2232 288.111C1.5797 288.121 1.9444 288.13 2.2977 288.181C3.73 288.387 4.4245 289.006 5.2334 290.087C5.6447 291.72 5.2255 292.818 4.7097 294.345C3.9833 294.312 3.1915 294.311 2.4815 294.152C1.2052 293.868 0.893397 293.416 0.238797 292.399C0.101997 290.739 0.601798 289.6 1.2232 288.111Z" fill="#EFB3BD"/>
<path d="M204.322 918.913C205.553 919.059 206.428 919.155 207.48 919.838C208.225 921.067 208.524 921.877 208.574 923.319C207.821 924.109 207.735 924.053 206.639 924.21C206.512 924.295 206.389 924.387 206.257 924.464C205.32 925.001 205 924.939 203.99 924.646C203.718 924.237 203.458 923.868 203.327 923.388C202.865 921.703 203.565 920.348 204.322 918.913Z" fill="#EFB3BD"/>
<path d="M1.47741 450.234C2.04941 450.29 2.69221 450.328 3.23861 450.51C4.46671 450.918 4.80591 451.506 5.43571 452.537C5.54851 454.061 5.12561 455.02 4.48461 456.382C3.69721 456.373 2.73391 456.418 1.97181 456.226C0.750309 455.919 0.491711 455.087 0.0537109 454.075C0.231011 452.477 0.564009 451.558 1.47741 450.234Z" fill="#EFB3BD"/>
<path d="M120.166 918.973C121.234 919.048 122.365 919.126 123.141 919.964C124.087 920.985 124.287 921.512 124.309 922.868C123.65 923.722 123.3 923.91 122.283 924.268C122.016 924.46 121.921 924.555 121.571 924.656C120.486 924.967 119.903 924.563 119.042 923.985C118.865 923.485 118.686 922.963 118.631 922.433C118.485 921.022 119.342 920.009 120.166 918.973Z" fill="#EFB3BD"/>
<path d="M238.526 918.904C239.293 918.994 240.419 919.125 241.074 919.581C242.199 920.363 242.546 921.11 242.9 922.341C242.312 923.337 242.193 923.463 241.179 924.013C240.343 924.816 240.21 924.869 239.072 925.102C238.035 924.483 237.614 924.144 237.367 922.898C237.041 921.258 237.799 920.27 238.526 918.904Z" fill="#EFB3BD"/>
<path d="M0.866156 306.408C1.55886 306.363 2.30946 306.282 2.99996 306.356C4.29036 306.496 4.64946 306.956 5.43746 307.871C5.70516 309.552 5.11925 310.678 4.45625 312.166C3.89335 312.177 3.28216 312.207 2.72696 312.108C1.39676 311.872 1.05706 311.474 0.274157 310.477C0.0522568 308.915 0.348856 307.881 0.866156 306.408Z" fill="#EFB3BD"/>
<path d="M1.47728 829.04L3.94558 829.808C5.14398 830.883 5.53358 831.589 5.87588 833.16C5.29838 833.909 4.94838 834.074 4.10078 834.406C2.92448 835.054 2.67598 835.166 1.34378 835.129C0.46088 834.277 0.179279 833.887 0.135879 832.617C0.0858788 831.156 0.529279 830.11 1.47728 829.04Z" fill="#EFB3BD"/>
<path d="M1.49396 901.306C2.34563 901.537 3.19333 901.781 4.03707 902.039C5.02257 903.144 5.53957 903.904 5.86267 905.36C5.16867 906.227 5.03396 906.228 3.95706 906.552C2.94276 907.298 2.83926 907.331 1.58026 907.341C0.561764 906.431 0.222467 905.998 0.102767 904.538C-0.00963268 903.167 0.609765 902.265 1.49396 901.306Z" fill="#EFB3BD"/>
<path d="M577.336 288.239C577.858 288.237 578.458 288.216 578.964 288.354C580.254 288.707 580.62 289.283 581.287 290.33C581.501 291.977 581.084 292.934 580.443 294.413C579.724 294.384 578.903 294.388 578.208 294.198C576.886 293.837 576.527 293.212 575.906 292.121C575.852 290.457 576.471 289.569 577.336 288.239Z" fill="#EFB3BD"/>
<path d="M576.922 198.016C577.676 198.027 578.735 197.955 579.453 198.18C580.598 198.538 580.898 199.152 581.409 200.159C581.417 201.841 580.901 202.717 580.003 204.072C579.64 204.065 579.271 204.057 578.911 204.013C577.442 203.834 576.834 203.3 576.006 202.196C575.71 200.573 576.292 199.461 576.922 198.016Z" fill="#EFB3BD"/>
<path d="M577.037 829.139L579.916 829.626C580.346 830.056 580.845 830.532 581.147 831.064C581.579 831.825 581.797 832.865 581.498 833.694C580.903 834.238 580.485 834.293 579.702 834.42C578.925 834.951 578.405 835.026 577.498 835.161C576.568 834.653 576.334 834.614 576.05 833.579C575.625 832.026 576.263 830.457 577.037 829.139Z" fill="#EFB3BD"/>
</svg>
