<svg width="68" height="67" viewBox="0 0 68 67" fill="none" xmlns="http://www.w3.org/2000/svg">
<path d="M59.8424 43.2909C59.8384 42.6829 59.9964 42.0779 60.1064 41.4809C60.8884 40.5459 61.2654 39.9149 62.5914 39.7779C64.0874 39.6229 65.1554 40.4869 66.2444 41.3729L65.1424 42.3819C64.1954 41.8039 63.9624 41.4009 62.8524 41.6599C62.5554 42.6899 62.2894 43.709 62.0654 44.758L61.2414 44.7609C60.7724 44.2829 60.2574 43.8159 59.8424 43.2909Z" fill="#AF8C5B"/>
<path d="M1.24561 41.24C2.71261 40.244 4.46059 39.335 6.30759 39.771C7.35059 40.018 7.38959 40.417 7.87259 41.288C7.92559 42.694 7.61159 43.459 6.92859 44.675L6.10361 45.212C5.43061 44.972 5.6606 45.179 5.3046 44.456C4.8256 43.482 4.93061 42.442 4.97061 41.389C4.07761 41.411 3.58959 41.518 2.79059 41.922L1.24561 41.24Z" fill="#AF8C5B"/>
<path d="M33.0834 25.5579L33.9294 26.6398C32.8924 30.2768 31.4424 38.4799 28.6324 40.9219C27.5774 40.6279 27.6764 40.5329 27.1274 39.5629C30.2314 35.4599 32.0424 30.5589 33.0834 25.5579Z" fill="#BC9E68"/>
<path d="M33.0835 25.5579L33.6985 23.0829L33.7975 23.0779C34.6815 24.8819 34.7995 26.8269 35.3065 28.7499C36.3345 32.6479 38.2645 36.8319 40.8345 39.9649L40.3775 40.8719L39.7545 40.3649L39.6515 40.6449C39.4795 41.1019 39.5435 40.9359 39.2985 41.4539C36.4225 39.4849 34.7535 30.2869 33.9295 26.6399L33.0835 25.5579Z" fill="#C3A561"/>
<path d="M59.842 43.2909C60.257 43.8159 60.7721 44.283 61.2411 44.761L62.065 44.758C62.289 43.709 62.5551 42.6899 62.8521 41.6599C63.9621 41.4009 64.1951 41.8039 65.1421 42.3819C64.9021 45.0379 64.247 47.261 62.022 48.998C61.053 49.755 59.392 50.4149 58.143 50.2329C57.555 50.1479 56.965 49.856 56.436 49.597C57.912 49.678 58.6771 49.3529 59.7831 48.3919C60.5941 46.4619 60.332 45.2819 59.842 43.2909Z" fill="#DFC4C3"/>
<path d="M33.1227 0C34.1307 0.344 35.2967 0.811017 35.9527 1.70502C36.8627 2.94502 36.9157 3.75705 36.8147 5.18805C35.9557 5.86705 35.7867 5.91504 34.6967 6.06104C33.3757 6.48704 33.1127 6.49305 31.7577 6.18805C30.9487 5.18105 30.8217 4.90601 30.8697 3.61401C30.9307 1.96801 32.0247 1.064 33.1227 0Z" fill="#EFB3BD"/>
<path d="M25.7625 20.261C25.8965 20.529 25.9435 20.588 26.0105 20.924C26.5235 23.511 24.7875 27.65 23.4615 29.864C22.3915 31.65 20.7325 33.871 18.5415 34.232C17.0835 34.472 16.6945 33.968 15.6605 33.089C15.3155 32.934 14.9645 32.585 14.6665 32.348C14.7065 29.021 23.6985 24.622 25.7625 20.261Z" fill="#EFB3BD"/>
<path d="M41.2437 19.7388C41.6857 20.3718 42.1477 20.9848 42.6057 21.6048C45.1117 24.9958 48.8857 27.0138 51.9137 29.8688C52.7677 30.6748 53.0347 31.2778 53.0197 32.4178L52.2776 33.0328C51.4606 33.8528 51.2376 34.1848 50.0446 34.3608C48.8866 34.5308 47.9396 34.0588 47.0526 33.3468C43.2586 30.3038 41.6147 24.3808 41.2437 19.7388Z" fill="#EFB3BD"/>
<path d="M39.2983 41.4539C39.5433 40.9359 39.4794 41.1018 39.6514 40.6448L39.7544 40.3649L40.3773 40.8718L40.8344 39.9648C44.2684 44.5178 49.0863 49.1268 54.9493 50.0278L56.4363 49.5969C56.9653 49.8559 57.5553 50.1478 58.1433 50.2328C59.3923 50.4148 61.0533 49.7549 62.0223 48.9979C64.2473 47.2609 64.9024 45.0378 65.1424 42.3818L66.2444 41.3729C66.5784 42.0249 66.9184 42.6958 67.1404 43.3948C67.7854 45.4288 67.6054 48.0038 66.5824 49.8839C65.2394 52.3498 62.4523 53.7148 59.8283 54.3688C55.6313 55.4148 51.2214 54.4169 47.5824 52.1749C43.7894 49.8369 40.3773 45.8389 39.2983 41.4539Z" fill="#BEA158"/>
<path d="M27.1272 39.563C27.6762 40.533 27.5772 40.628 28.6322 40.922C27.5542 45.432 24.0212 49.616 20.1342 52.034C16.3582 54.383 11.9512 55.384 7.57323 54.37C5.14123 53.806 2.60422 52.57 1.22622 50.404C0.169219 48.742 -0.280771 45.789 0.180229 43.884C0.395229 42.991 0.863232 42.074 1.24523 41.24L2.79021 41.922C2.77621 42.794 2.79123 43.7 2.97823 44.555C3.38823 46.431 4.59223 48.5139 6.22723 49.5389C8.09823 50.7119 10.5232 50.6399 12.6122 50.1949C18.3842 48.9659 24.0112 44.48 27.1272 39.563Z" fill="#BEA158"/>
<path d="M33.6592 44.7219C36.0232 49.5819 35.9662 53.3319 39.9962 57.7549C41.3212 59.2099 46.7102 61.8439 47.0702 63.1159L46.2282 63.8079C40.6032 65.1459 41.5202 62.6979 37.2982 61.8199C37.3652 63.1489 37.3552 64.7799 36.4042 65.8279C35.6272 66.6839 35.2952 66.5499 34.2092 66.5659C33.9282 66.6989 33.8032 66.7799 33.4662 66.8159C30.4032 67.1439 31.3752 63.0979 29.8442 61.7879C28.5072 62.7919 26.8772 64.0199 25.2092 64.3359C23.5232 64.6559 21.8762 63.9999 20.5122 63.0569L20.6042 62.5109C21.8172 61.8769 23.0402 61.2359 24.2042 60.5129C30.1552 56.8129 32.1862 51.2259 33.6592 44.7219Z" fill="#EFB3BD"/>
</svg>
