<svg width="166" height="78" viewBox="0 0 166 78" fill="none" xmlns="http://www.w3.org/2000/svg">
<path d="M72.8301 26.2752L73.8321 27.5522L74.3061 27.4802L75.0431 24.7522L75.2041 28.7942L74.7791 30.5782C74.4581 30.6562 74.0731 30.8032 73.7451 30.7792C73.0001 29.5782 73.0031 27.6712 72.8301 26.2752Z" fill="#AF8C5B"/>
<path d="M53.0918 52.8541C53.9058 52.5791 53.6288 51.9041 54.1198 51.0391L55.6428 53.209C55.1328 53.64 54.5088 54.0671 54.1058 54.5961C53.5258 54.1561 53.3818 53.5121 53.0918 52.8541Z" fill="#BC9E68"/>
<path d="M16.5215 29.3931C19.3885 28.5661 21.9175 28.0681 24.8805 28.7181L25.1955 29.1581C23.6875 30.0781 20.8555 30.4731 19.0855 30.8301C18.9225 30.8621 18.7535 30.8361 18.5875 30.8401C18.7195 30.3591 19.1105 30.1021 19.4545 29.7491C18.4745 29.7891 17.4855 29.5541 16.5215 29.3931Z" fill="#FDF3FE"/>
<path d="M35.6473 10.9811C36.0183 11.2321 36.3503 11.3051 36.7763 11.4271L37.3373 9.70312C37.3743 11.3751 37.4003 12.5531 38.2933 14.0421C38.9823 14.5701 39.4373 15.0322 40.3083 15.1992L40.0753 16.4711L39.0763 16.6841C37.9803 16.5451 37.6503 16.5102 36.8523 15.7252C35.5813 14.4732 35.5863 12.6391 35.6473 10.9811Z" fill="#BEA158"/>
<path d="M79.5164 11.3472L79.9044 12.5732L80.9994 12.7322C80.3814 14.2442 79.2074 16.5852 77.6424 17.2602C76.8294 16.9922 76.7214 17.2082 75.9504 17.5012L75.6084 15.7192C77.0244 14.4842 78.2724 12.7722 79.5164 11.3472Z" fill="#C3A561"/>
<path d="M125.398 27.3042C127.569 28.5492 130.349 29.8292 131.166 32.4062C131.402 33.1512 131.352 33.9472 131.297 34.7152L130.801 34.6422C129.555 33.7152 128.819 32.4942 127.961 31.2262C126.926 30.5052 125.972 29.6472 125 28.8412L124.807 28.4602L125.398 27.3042Z" fill="#AF8C5B"/>
<path d="M35.6025 61.7811L36.5425 61.217C37.9675 62.997 39.7385 63.7011 41.9655 63.9771C44.1485 64.2471 47.5415 63.8711 49.3205 62.4761C49.4815 62.3501 49.6315 62.2111 49.7865 62.0781L50.3885 63.639L51.1525 63.5281C50.8295 63.9561 50.5265 64.3541 50.0515 64.6271C47.9115 65.8561 43.9215 65.57 41.5935 65.05C39.3955 64.559 36.8785 63.7441 35.6025 61.7811Z" fill="#BC9E68"/>
<path d="M75.2041 28.7942C75.9871 31.3162 77.7701 35.1372 80.0221 36.6382L78.1511 38.1402C76.8571 37.6582 76.8201 37.2972 76.1061 36.1582C74.5311 34.9472 74.0501 32.6312 73.7451 30.7792C74.0731 30.8032 74.4581 30.6562 74.7791 30.5782L75.2041 28.7942Z" fill="#BC9E68"/>
<path d="M55.6431 53.209C56.2971 55.776 56.3981 58.161 55.0571 60.565C54.3561 61.822 53.4691 62.716 52.2521 63.463L51.1521 63.528L50.3881 63.639L49.7861 62.078C50.8401 61.899 51.8261 61.121 52.5081 60.314C53.9821 58.569 54.2531 56.775 54.1061 54.596C54.5091 54.067 55.1331 53.64 55.6431 53.209Z" fill="#BC9E68"/>
<path d="M75.6085 15.7192L75.9505 17.5012C76.7215 17.2082 76.8295 16.9923 77.6425 17.2603C76.7005 19.6693 75.5925 22.2203 75.0435 24.7523L74.3065 27.4802L73.8325 27.5522L72.8305 26.2753C72.2705 22.4243 74.0845 19.1122 75.6085 15.7192Z" fill="#BC9E68"/>
<path d="M8.87321 19.2192C10.9622 20.3012 18.3632 22.2353 20.4522 21.6133C21.6122 22.8993 22.8892 23.3853 24.4462 24.0233L24.6492 24.4222L23.9162 24.6052C23.3702 24.7092 9.47821 24.0923 8.86621 23.9523C11.6752 22.3533 15.6062 24.0343 18.2162 22.7783C15.4612 21.6713 12.5092 21.1273 9.62021 20.4813L8.87321 19.2192Z" fill="#DDC2D4"/>
<path d="M63.54 23.4202L63.945 23.9042C66.219 26.6502 67.584 29.7732 69.478 32.7532C68.633 29.7342 66.896 27.1462 67.315 23.9692C68.57 27.5322 69.795 32.0752 72.759 34.6262L71.33 35.5452C69.843 35.5592 69.815 35.2842 68.741 34.3342C69.045 33.4662 64.123 25.6262 63.54 23.4202Z" fill="#BC9D72"/>
<path d="M31.0134 22.2432C32.5544 22.5322 33.5654 22.9752 34.4274 24.3612C35.1544 25.5302 35.1884 26.3222 34.8854 27.6082C33.9024 28.3772 33.7084 28.4452 32.4674 28.5832C32.3474 28.6562 32.2374 28.7452 32.1094 28.8022C31.0014 29.2972 30.7164 29.1182 29.6534 28.7962C28.9484 27.8242 28.7204 27.0812 28.7834 25.8662C28.8814 23.9732 29.6924 23.4232 31.0134 22.2432Z" fill="#FFFEFF"/>
<path d="M109.435 16.6851C110.117 20.7921 109.497 24.1191 107.01 27.5131C105.536 29.5251 103.298 31.4021 100.788 31.8311C98.9199 32.1501 96.0879 31.4861 94.4889 30.4521C94.0139 30.1451 93.8429 29.8461 93.5439 29.3801C94.4489 28.7301 95.5509 28.403 96.5859 27.998C97.6319 28.86 98.6729 29.6241 100.053 29.8251C101.596 30.0491 103.129 29.5541 104.328 28.5801C107.319 26.1491 108.126 22.2341 108.373 18.6141L108.923 20.006L109.246 20.0471L109.435 16.6851Z" fill="#BC9E68"/>
<path d="M97.0511 71.4402L98.5901 71.1832C98.8021 71.5422 98.9961 71.8243 99.0981 72.2313C98.4861 74.2143 97.2841 75.6262 95.4441 76.5792C92.7951 77.9502 89.4391 78.0012 86.6611 77.0052C84.9011 76.3742 82.8381 75.1713 82.1171 73.3643C82.0501 73.1963 81.9961 73.0233 81.9351 72.8533C82.2121 71.9083 82.6811 71.6072 83.3761 70.9282C84.4911 73.0882 85.8981 75.0103 88.3761 75.6943C90.4531 76.2673 92.4171 75.9973 94.2171 74.8073C95.4991 73.9603 96.4221 72.8252 97.0511 71.4402Z" fill="#BEA158"/>
<path d="M40.3082 15.1991C40.3972 15.0941 40.4902 14.9931 40.5752 14.8851C41.1312 14.1771 41.2802 13.0601 41.4902 12.2001C42.4002 11.0731 43.1172 10.7791 44.4992 10.4031C45.5072 10.6361 45.8782 10.5481 46.4472 11.5461C47.1012 12.6921 46.8892 14.3101 46.5252 15.5161C46.1322 16.8211 45.3822 17.9741 44.1542 18.6211C43.6332 18.8961 43.1842 18.925 42.6072 18.946C41.2072 18.375 39.8722 18.0571 39.0762 16.6841L40.0752 16.4711L40.3082 15.1991Z" fill="#C3A561"/>
<path d="M127.961 31.2261C128.819 32.4941 129.555 33.7151 130.801 34.6421L131.297 34.7151C131.19 36.1421 130.912 37.3731 129.94 38.4751C129.313 39.1861 128.427 39.6381 127.486 39.6641C125.665 39.7161 124.366 38.6071 123.142 37.3951C122.847 36.5091 122.546 36.1381 123.033 35.2271C123.773 33.8471 125.347 33.041 126.771 32.584C127.409 32.38 127.603 31.7811 127.961 31.2261Z" fill="#BEA158"/>
<path d="M97.0514 71.4402C94.2904 71.0242 93.7624 73.6432 91.4054 70.4882C90.9074 69.8202 90.7664 69.3802 90.6084 68.5772C91.0264 67.4102 91.3004 66.9932 92.4794 66.4692C94.1424 65.7302 96.9294 65.7522 98.5584 66.5782C99.3734 66.9912 99.9924 67.6312 100.276 68.5052C100.576 69.4272 99.6814 71.3912 99.1784 72.1542C99.1584 72.1852 99.1254 72.2062 99.0984 72.2312C98.9964 71.8242 98.8024 71.5422 98.5904 71.1832L97.0514 71.4402Z" fill="#C3A561"/>
<path d="M93.5439 29.3802C92.2789 29.3012 91.6499 28.5943 90.6589 27.8613C90.2049 26.8183 90.0999 25.7753 90.5729 24.7003C91.3699 22.8883 93.3079 21.6213 95.1049 21.0093C96.4319 21.1343 96.5129 21.0363 97.4969 22.0363C98.8579 26.2593 96.6319 25.4072 96.5859 27.9982C95.5509 28.4032 94.4489 28.7302 93.5439 29.3802Z" fill="#BEA158"/>
<path d="M16.5211 29.3931C17.4851 29.5541 18.4741 29.7891 19.4541 29.7491C19.1101 30.1021 18.7192 30.3591 18.5872 30.8401C16.8792 34.6551 15.9022 38.702 14.4871 42.631L13.6652 42.9821L12.2261 42.303C11.2031 41.061 10.5931 40.0971 10.7151 38.4341C10.9951 34.6301 13.7791 31.7081 16.5211 29.3931Z" fill="#FFFEFF"/>
<path d="M53.0925 52.8542C51.6545 53.2202 51.4795 53.6412 50.5045 54.7292C48.9735 56.4402 47.2995 57.8521 44.9415 58.1201C44.3485 57.7851 44.1015 57.7842 43.8005 57.1352C43.1875 55.8132 43.2795 53.2392 43.8315 51.8932C44.1885 51.0212 45.0145 50.3951 45.8875 50.0971C48.6675 49.1461 51.5815 49.7912 54.1205 51.0392C53.6295 51.9042 53.9065 52.5792 53.0925 52.8542Z" fill="#C3A561"/>
<path d="M79.5161 11.3471L80.0971 11.1101C87.2821 8.13211 93.9021 3.90011 101.935 7.24311C104.932 8.49011 107.508 11.6371 108.746 14.6091C109.027 15.2831 109.238 15.9831 109.435 16.6851L109.246 20.0471L108.923 20.0061L108.373 18.6141C107.672 15.1141 106.118 11.4461 103.033 9.37012C98.2391 6.14312 90.5911 7.71611 85.8521 10.2771C84.5341 10.9891 83.0371 12.3981 81.5641 12.6511C81.3771 12.6841 81.1881 12.7051 80.9991 12.7321L79.9041 12.5731L79.5161 11.3471Z" fill="#AF8C5B"/>
<path d="M132.834 50.295C135.054 51.298 137.697 50.244 139.841 49.447C146.901 46.824 160.086 40.742 165.159 35.207C160.866 43.082 142.991 51.047 134.369 53.651C133.292 53.977 132.441 54.158 131.308 54.109C132.393 53.051 135.148 52.456 136.647 51.948L136.571 51.449C134.995 51.017 132.401 51.892 130.677 51.933C131.424 51.52 131.982 51.083 132.61 50.503L132.834 50.295Z" fill="#BC9E68"/>
<path d="M26.212 0C26.86 0.115 27.519 0.360006 28.153 0.544006C30.493 3.75801 24.267 10.3 25.768 14.89C26.289 16.485 27.62 17.603 29.09 18.282L28.207 18.69C27.093 18.752 25.773 18.041 24.999 17.267C22.784 15.052 22.148 11.347 22.183 8.35004C22.227 4.60304 23.613 2.488 26.212 0Z" fill="#FFFEFF"/>
<path d="M8.87328 19.2191C8.74228 19.2351 8.61127 19.2521 8.48027 19.2651C6.46627 19.4661 3.23628 19.3131 1.66028 17.8891C0.601278 16.9321 0.495273 16.2501 0.280273 14.9271C0.796273 13.8891 1.02328 13.2911 2.25328 12.9291C4.86028 12.1611 8.59427 14.2541 10.6943 15.6641C12.7373 17.0371 14.5813 18.5131 16.8733 19.4651C17.8633 19.8771 20.4023 20.6451 20.9503 21.4731L20.4523 21.6131C18.3633 22.2351 10.9623 20.3011 8.87328 19.2191Z" fill="#FFFEFF"/>
<path d="M13.754 1.20312C16.48 2.33413 18.722 11.6121 20.385 14.5101C21.489 16.4341 23.162 18.0011 24.722 19.5551L24.576 19.4421L23.76 20.0851L22.706 19.4081C22.275 19.3701 21.852 19.2401 21.459 19.0581C17.274 17.1211 13.075 11.9381 11.269 7.79614C11.128 6.67214 10.95 5.0891 11.118 3.9801C11.356 2.3981 12.553 1.96113 13.754 1.20312Z" fill="#FFFEFF"/>
<path d="M8.866 23.9521C9.478 24.0921 23.37 24.7091 23.916 24.6051C22.667 26.6901 20.572 25.6271 18.553 26.0851C13.174 27.3071 8.925 31.7091 3.812 33.5121C2.377 34.0181 1.65 34.0751 0.311005 33.4291L0 32.2371C0.943 26.9221 5.07501 26.9361 8.64101 24.1361C8.71701 24.0761 8.791 24.0131 8.866 23.9521Z" fill="#FFFEFF"/>
<path d="M122.521 51.2682C120.075 51.1582 116.467 48.8052 114.649 47.1762C112.371 45.1352 110.738 42.1952 110.604 39.1062C110.481 36.2672 111.601 33.5462 113.541 31.4932C116.938 27.8972 120.738 27.4752 125.398 27.3042L124.807 28.4602L125 28.8412C121.314 29.9522 118.486 31.0242 116.53 34.5432C115.146 37.0322 114.941 39.9032 115.772 42.6172C116.59 45.2872 118.442 47.6392 120.943 48.9192C122.013 49.4662 122.698 49.7172 123.894 49.4532L123.704 51.3772C123.251 51.3892 122.956 51.4172 122.521 51.2682Z" fill="#BC9E68"/>
<path d="M35.6475 10.9811C35.7015 8.97807 36.2365 7.68008 37.6555 6.24108C40.2775 3.58108 45.1495 1.38605 48.9355 1.52105C52.8685 1.66005 56.2765 4.20006 58.7705 7.05706C63.3895 12.3501 64.2315 18.136 67.3155 23.969C66.8965 27.146 68.6335 29.734 69.4785 32.753C67.5845 29.773 66.2195 26.65 63.9455 23.904L63.5405 23.42C59.1725 19.522 57.8775 10.351 49.9275 6.85705C47.2745 5.69105 43.0185 5.27307 40.3395 6.50207C38.8195 7.19807 37.9655 8.18606 37.3375 9.70306L36.7765 11.4271C36.3505 11.3051 36.0185 11.2321 35.6475 10.9811Z" fill="#BC9E68"/>
<path d="M35.6021 61.7811C35.0151 61.6861 34.5181 61.4331 34.0561 61.0571C30.9221 58.5051 29.4681 54.1761 29.0861 50.2901C28.6081 45.4271 29.7201 41.0041 32.9181 37.2481C37.9111 31.3851 47.6961 27.6491 55.2861 29.7501C58.6841 30.6911 64.9181 34.9301 68.2111 34.4391C68.3891 34.4121 68.5641 34.3691 68.7411 34.3341C69.8151 35.2841 69.8431 35.5591 71.3301 35.5451L72.7591 34.6261C73.6281 35.7331 74.1531 36.8961 75.5711 37.1801L76.1061 36.1581C76.8201 37.2971 76.8571 37.6581 78.1511 38.1401C78.0991 38.2431 78.0511 38.3481 77.9961 38.4491C77.5961 39.1871 77.1001 39.8711 76.6261 40.5641L77.0631 40.7581L77.6211 41.9621L77.6491 41.5261L77.9881 42.4771C77.8111 42.4391 77.6341 42.4041 77.4581 42.3621C75.1591 41.8031 72.0511 39.2741 69.9451 37.9971C61.5421 32.9011 51.4631 31.5911 42.5941 36.6651C38.1741 39.1931 34.9811 44.3501 33.7841 49.2011C32.9801 52.4611 32.9311 56.0311 34.6801 59.0081C35.1781 59.8561 35.7411 60.6471 36.5421 61.2171L35.6021 61.7811Z" fill="#C3A561"/>
<path d="M78.151 38.1402L80.022 36.6382C85.243 44.4132 98.12 49.8062 106.887 51.5342C110.272 52.2012 119.351 53.8392 122.039 51.6992C122.208 51.5652 122.36 51.4122 122.521 51.2682C122.956 51.4172 123.251 51.3892 123.704 51.3772L123.894 49.4532C125.72 50.8422 129.052 51.1722 131.284 50.7952C131.836 50.7012 132.318 50.5032 132.834 50.2952L132.61 50.5032C131.982 51.0832 131.424 51.5202 130.677 51.9332C132.401 51.8922 134.995 51.0172 136.571 51.4492L136.647 51.9482C135.148 52.4562 132.393 53.0512 131.308 54.1092C125.421 58.0892 100.436 56.4972 92.973 55.0652C92.532 54.9802 92.175 54.7892 91.783 54.5832C91.705 54.6702 91.628 54.7572 91.549 54.8432C87.353 59.4222 82.675 61.4302 82.944 68.5502C82.977 69.4252 83.051 70.1092 83.376 70.9282C82.681 71.6072 82.212 71.9082 81.935 72.8532C81.507 72.7632 81.193 72.4942 80.829 72.2582C79.329 69.8442 78.096 66.5542 78.559 63.6732C79.743 56.3192 90.167 55.3372 93.865 52.5632C93.96 52.4922 94.05 52.4162 94.143 52.3432C93.725 52.3722 93.289 52.4042 92.874 52.3172C88.644 51.4272 80.462 45.9662 77.988 42.4772L77.649 41.5262L77.621 41.9622L77.063 40.7582L76.626 40.5642C77.1 39.8712 77.596 39.1872 77.996 38.4492C78.051 38.3482 78.099 38.2432 78.151 38.1402Z" fill="#C3A561"/>
</svg>
