<svg width="193" height="345" viewBox="0 0 193 345" fill="none" xmlns="http://www.w3.org/2000/svg">
<path d="M107.213 341.426C62.4126 350.626 23.8792 334.259 10.2126 324.926L34.7126 294.426C47.5126 284.026 66.3792 247.759 74.2126 230.926C83.4126 210.926 67.7126 209.592 58.7126 211.426C38.3126 221.826 21.8793 221.092 16.2126 219.426C11.8126 215.426 14.3793 202.092 16.2126 195.926C5.81259 189.926 10.5459 180.759 14.2126 176.926V166.926C1.71258 169.926 -2.28742 158.426 1.21258 156.926C4.01258 155.726 17.3792 138.092 23.7126 129.426V121.426C15.3126 116.226 20.2126 111.592 23.7126 109.926V100.926C8.91258 100.526 3.87925 108.759 3.21258 112.926C-0.787423 96.1256 10.8792 89.9256 17.2126 88.9256C16.4126 81.3256 23.2126 70.7589 26.7126 66.4256H32.7126L25.2126 57.9256C18.4126 59.1256 17.0459 56.4256 17.2126 54.9256C18.0126 48.9256 23.8792 47.0923 26.7126 46.9256C31.1126 33.3256 43.8792 35.5923 49.7126 38.4256C50.1126 28.4256 55.5459 25.9256 58.2126 25.9256C54.2126 17.1256 69.2126 5.92558 77.2126 1.42558C86.8126 3.82558 90.2126 11.4256 90.7126 14.9256C108.313 0.125581 119.046 -0.907753 122.213 0.425581C127.413 2.02558 127.046 8.75891 126.213 11.9256C137.013 -0.0744257 157.046 18.9256 165.713 29.9256C188.113 47.5256 191.379 57.5922 190.213 60.4256C189.013 72.0256 176.379 83.2589 170.213 87.4256C177.013 98.6256 177.713 115.426 177.213 122.426C176.013 140.426 159.046 158.259 150.713 164.926C151.913 178.526 161.879 184.259 166.713 185.426C162.313 187.426 144.879 188.259 136.713 188.426C137.113 229.226 174.213 277.426 192.713 296.426C182.879 307.592 152.013 332.226 107.213 341.426Z" fill="#A97947"/>
</svg>
