<svg width="244" height="210" viewBox="0 0 244 210" fill="none" xmlns="http://www.w3.org/2000/svg">
<path d="M52.3147 63.637C57.8087 60.74 64.1947 57.397 70.3337 56.26C75.1957 55.359 83.1927 57.963 86.5887 55.858C86.7087 55.783 86.8267 55.705 86.9457 55.629L87.4357 55.899C83.7117 59.035 80.4887 61.135 77.5297 65.149L74.9217 65.382C77.6907 62.631 80.4807 60.055 83.5257 57.611C71.6977 62.445 65.1277 63.592 52.3147 63.637Z" fill="#EDA8B1"/>
<path d="M190.973 0C199.974 1.555 213.157 0.158002 220.643 5.051C222.762 6.437 224.69 8.483 226.574 10.179C229.542 10.239 241.868 9.09901 243.629 10.654C242.982 11.456 242.487 11.565 241.434 11.673C232.655 12.572 224.604 10.23 215.539 12.543L215.488 11.456C218.374 11.102 221.264 10.696 224.16 10.443L223.722 10.32C219.468 9.171 214.945 9.56501 210.655 8.62901C203.698 7.11201 197.41 2.901 190.973 0Z" fill="#EDA8B1"/>
<path d="M124.201 34.527C125.776 33.798 127.422 33.216 129.043 32.597C128.229 33.1763 127.422 33.764 126.622 34.36C121.816 37.939 121.941 46.305 118.409 51.299C114.752 56.472 108.871 60.688 104.075 64.777C112.836 51.001 108.009 47.15 123.297 36.055C116.93 38.335 99.5358 45.127 96.3598 51.231C94.3518 55.091 96.0698 60.34 94.9598 64.523C93.5678 69.773 88.4498 75.547 85.5198 80.172C87.1218 72.97 85.1308 65.073 89.1618 58.547C90.5468 56.304 92.6038 54.542 94.1108 52.373C94.4428 51.896 94.5498 51.71 94.5618 51.137C92.1258 52.065 90.5598 54.298 88.0488 55.098C92.5918 49.995 99.4857 47.611 104.581 43.211C94.5197 45.815 85.5428 46.02 75.4998 43.121C84.5638 40.988 93.3208 35.585 102.305 41.093C103.283 41.703 104.25 42.33 105.206 42.974C109.751 41.2 120.835 37.235 124.201 34.527Z" fill="#EDA8B1"/>
<path d="M161.667 1.17102C179.01 4.22702 182.768 -0.870982 197.376 12.079C203.343 12.281 209.501 11.583 215.488 11.456L215.539 12.543C212.816 14.45 211.339 18.137 209.371 20.784C204.576 27.237 194.298 29.715 187.155 32.767C193.434 27.298 196.948 19.446 204.745 15.822C207.961 14.327 211.46 13.486 214.768 12.224C205.412 12.533 192.285 11.317 185.38 18.875C183.105 21.365 181.332 24.32 179.02 26.776C174.622 31.448 167.046 34.477 161.392 37.356C166.065 30.645 168.625 24.86 175.873 20.289C176.409 18.26 179.255 18.239 180.561 17.353C179.656 17.198 179.146 17.217 178.258 17.478C176.442 18.013 175.546 18.434 173.809 17.681C167.894 18.495 160.159 20.494 154.884 23.322C153.416 26.639 152.351 30.144 150.822 33.418C147.55 40.423 141.57 43.787 136.018 48.657C141.609 30.901 143.83 34.633 154.579 22.951C145.902 25.301 137.99 30.594 129.364 32.519L129.043 32.597C127.422 33.216 125.776 33.798 124.201 34.527C124.525 33.569 125.05 33.243 125.784 32.564L125.473 32.863C124.375 32.863 123.396 32.769 122.321 32.541L121.991 32.469C114.253 33.446 106.301 32.87 98.4888 33.664C106.606 31.003 114.589 25.962 123.015 24.626C130.193 23.488 137.268 27.569 144.039 25.95C146.421 25.38 148.867 24.112 151.121 23.141C152.226 21.465 157.464 20.433 159.407 19.853C157.113 18.968 152.316 19.822 149.563 19.54L149.731 19.311C152.047 19.274 154.349 19.263 156.645 18.929L157.093 18.862C153.489 18.7 149.923 18.675 146.367 17.994C140.739 16.917 135.437 14.874 129.721 14.052C138.622 13.105 149.582 9.91002 158.271 12.503C162.276 13.698 165.993 15.739 169.861 17.305C177.226 16.119 184.578 14.852 191.916 13.504L191.973 12.72L194.41 12.677C190.837 11.483 187.021 12.284 183.372 11.47C175.944 9.81302 168.441 4.61102 161.667 1.17102Z" fill="#EDA8B1"/>
<path d="M77.5296 65.149C77.4926 65.273 77.4516 65.397 77.4186 65.522C76.5316 68.824 77.2866 72.479 77.1076 75.874C76.7126 83.373 71.1376 90.736 67.6106 97.134C68.6076 89.073 67.0116 81.309 71.1316 73.91C72.9116 70.713 75.2896 67.894 77.1246 64.739C72.3586 68.954 59.8236 77.985 59.6436 84.702C59.5686 87.516 61.5216 90.719 62.4946 93.342C64.4836 98.7 60.6426 107.999 59.0676 113.417C56.4696 99.251 54.4946 98.013 58.7136 83.056C54.1836 88.661 41.4476 102.747 42.0936 109.832C42.4106 113.304 45.1956 116.229 45.9316 119.585C47.4106 126.334 42.7596 134.389 41.3706 140.99C40.6176 135.551 40.0916 129.241 38.0636 124.096C36.9126 121.947 38.0966 118.673 37.9676 116.226C37.1646 117.97 36.3196 119.597 35.2946 121.222L34.5556 121.1C32.7616 124.818 28.4109 131.78 29.8126 135.878C30.3816 137.544 32.3116 139.094 33.5066 140.355C40.3746 147.601 39.3586 153.746 39.7996 162.999C33.3416 150.501 29.5256 152.199 28.2605 136.286C25.1338 143.517 21.7282 150.555 21.3027 158.561C22.8472 161.391 24.6967 164.188 25.9853 167.134C29.4686 175.097 28.1966 184.537 28.5091 193.05C19.9862 178.224 20.704 175.268 20.4777 158.916C19.0539 164.219 17.3926 169.616 16.6336 175.059C15.7252 181.573 16.0794 188.389 14.0571 194.69C12.3293 200.073 9.26729 204.933 6.38799 209.759C6.13809 204.039 5.4993 197.833 6.5712 192.179C8.4172 182.442 16.3084 175.508 17.8855 165.514C16.2028 164.249 19.9203 158.14 19.2566 155.629L18.5236 156.36L18.3607 156.054C17.9077 158.774 16.475 160.175 14.7719 162.252L14.0608 161.815C9.8545 166.278 4.5209 169.463 0 173.615C7.7608 158.505 5.5296 154.585 22.5022 146.243C22.538 146.187 22.5732 146.131 22.6096 146.076C26.1157 140.733 31.4946 126.94 33.4756 120.492C30.5166 124.426 28.5777 129.094 25.5735 133.066C21.0214 139.083 14.4048 143.546 8.8651 148.636C13.4709 141.784 16.2609 133.587 21.5061 127.215C24.0786 124.089 27.5618 122.568 30.9986 120.62C38.2306 116.523 42.0766 105.625 45.6056 98.433C32.9456 109.61 28.8666 113.26 12.8996 119.376C19.0438 113.553 23.8963 104.943 31.4506 100.912C36.2816 98.333 42.6246 99.376 46.9766 95.966C52.0966 91.955 58.5036 81.2 63.1596 75.741C59.3686 78.257 56.0536 81.252 52.0816 83.566C45.8076 87.221 38.5616 88.896 31.7316 91.239C36.0266 87.999 39.8976 84.268 44.0606 80.867C50.7006 75.441 56.0396 74.014 64.3976 74.87C68.1536 72.115 71.5246 68.576 74.9216 65.382L77.5296 65.149Z" fill="#EDA8B1"/>
</svg>
