<svg width="83" height="102" viewBox="0 0 83 102" fill="none" xmlns="http://www.w3.org/2000/svg">
<path d="M44.75 73.5817C45.005 72.2047 45.217 71.6487 44.771 70.2967C43.62 70.3047 42.772 70.9347 41.81 71.4957L41.159 71.4637C40.496 70.3287 40.528 69.7117 40.668 68.4217C41.5 67.3757 41.546 67.3457 42.851 67.0527C44.068 67.2957 45.043 67.6657 45.793 68.7177C46.403 69.5727 46.658 70.7037 46.467 71.7357C46.28 72.7477 45.662 73.8207 45.076 74.6577L44.75 73.5817Z" fill="#EFB3BD"/>
<path d="M31.9451 52.0997C32.9621 51.1077 34.6821 50.3247 35.8441 49.3877C38.3901 47.3357 38.8041 44.2467 40.3401 41.5127L40.9951 43.9737C39.6681 49.5607 37.3421 53.6407 34.2641 58.3877L33.7761 58.3077C33.5301 55.9897 38.2821 50.8767 38.6381 47.0977L38.8511 47.0797C38.7851 47.3747 38.7861 47.4537 38.6121 47.7517C37.4931 49.6727 34.2591 52.2747 32.1061 52.8257L31.9451 52.0997Z" fill="#E7B8ED"/>
<path d="M57.874 79.4597C59.922 80.0257 70.228 91.0147 71.68 93.5317C72.394 94.7697 72.744 95.6837 72.52 97.1107C71.587 98.0267 71.065 98.3747 69.66 98.4037C68.836 98.4197 68.155 98.2687 67.623 97.6537C65.28 94.9487 63.551 90.3897 61.985 87.1267C60.945 84.3947 59.38 81.9517 57.874 79.4597Z" fill="#FFFEFF"/>
<path d="M71.361 79.2148C74.573 79.2798 78.442 78.9438 81.327 80.5988C82.471 81.2558 82.394 81.4537 82.694 82.6787C81.525 83.9367 79.396 84.6298 77.735 84.9238C73.319 85.7068 67.828 83.9907 64.211 81.4577C62.07 79.9587 59.138 77.3347 58.656 74.6617C62.869 77.2777 66.233 79.1628 71.361 79.2148Z" fill="#FFFEFF"/>
<path d="M53.9399 77.3458C55.8619 79.7388 57.174 82.1698 57.917 85.1638C57.219 84.3318 56.5599 83.5038 55.9409 82.6108C55.4779 84.2978 55.3799 86.0768 54.9539 87.7858C55.0089 84.2448 54.2659 80.8538 53.9399 77.3458Z" fill="#FDF3FE"/>
<path d="M58.877 72.0307L58.1851 70.8657L58.556 70.5447C61.197 71.7307 63.363 72.9707 66.286 73.2477L63.5641 73.9187C63.9381 74.6197 64.443 75.0797 65.009 75.6177C62.288 75.0677 60.779 73.9307 58.877 72.0307Z" fill="#FDF3FE"/>
<path d="M58.8771 72.0307C60.7791 73.9307 62.2881 75.0677 65.0091 75.6177C66.7991 75.9667 68.3091 75.8697 70.1071 75.6987C68.9691 76.5497 68.6591 77.0177 67.1811 76.8427C66.9021 76.8097 66.6281 76.7477 66.3521 76.6987C65.3891 76.5277 64.4941 76.5657 63.5241 76.6247C65.6061 77.8467 68.6161 78.5207 71.0161 78.2767L71.3611 79.2147C66.2331 79.1627 62.8691 77.2777 58.6561 74.6617L58.5581 74.2247C58.8751 73.3937 58.9571 72.9167 58.8771 72.0307Z" fill="#DDC2D4"/>
<path d="M51.7621 18.0177C51.3321 17.9557 51.1921 17.9257 50.7101 17.9127C49.6711 17.8857 49.0231 17.8327 48.2831 18.5547C49.1251 19.3817 49.7511 19.9857 50.1721 21.1027L49.3221 22.1957C48.1641 22.6977 48.1091 22.8637 46.8491 22.4717C45.9731 21.5657 45.3651 20.6147 45.3551 19.3017C45.3461 18.0477 45.7731 17.5497 46.5231 16.6537C48.4441 15.9127 50.1431 16.5037 51.9581 17.3037L51.7621 18.0177Z" fill="#EFB3BD"/>
<path d="M53.9399 77.3457C54.4859 76.7727 54.9599 76.2797 55.6219 75.8367C56.0589 76.2707 56.1859 76.6607 56.4139 77.2197C56.7869 78.1297 57.219 78.7387 57.874 79.4597C59.38 81.9517 60.945 84.3947 61.985 87.1267L61.266 87.0977C60.887 86.4177 59.007 82.4147 58.601 82.2027L57.7209 82.7237C58.4939 86.1637 61.5509 90.2327 59.3189 93.7927C59.2959 93.8297 59.2649 93.8607 59.2379 93.8947C58.9669 90.9097 58.638 88.0837 57.917 85.1637C57.174 82.1697 55.8619 79.7387 53.9399 77.3457Z" fill="#DDC2D4"/>
<path d="M51.7752 66.3557C52.4152 66.6387 53.1542 66.9287 53.7152 67.3487C54.8392 68.1917 54.9922 68.9157 55.2262 70.1917C54.8312 71.9227 53.7892 72.7767 52.5562 73.9407C51.8362 73.5717 50.8762 73.1657 50.2712 72.6307C49.2312 71.7107 49.1282 71.1237 48.9922 69.8407C49.5102 68.2207 50.5402 67.4257 51.7752 66.3557Z" fill="#FFFEFF"/>
<path d="M51.7621 18.0177L51.9581 17.3037C53.7931 18.4897 55.4291 19.9027 55.9651 22.1397C56.4091 23.9957 56.0151 25.8967 54.9171 27.4467C53.5881 29.3227 51.3821 30.6037 49.0971 30.8637C46.6881 31.1377 44.4981 30.1707 42.4521 29.0357L42.7301 28.2727C43.9921 28.6777 45.1961 29.0157 46.5271 29.0637C48.9391 29.1517 51.6421 28.2817 53.3711 26.5517C54.3531 25.5707 54.8871 24.3197 54.8051 22.9247C54.6751 20.6797 53.2861 19.4477 51.7621 18.0177Z" fill="#EFB3BD"/>
<path d="M66.2859 73.2477L66.847 72.9787C69.734 71.5657 73.3329 66.8717 76.1979 66.6177C77.0439 67.1267 77.322 67.1577 77.56 68.1827C77.797 69.2057 77.529 70.5567 76.95 71.4287C75.38 73.7977 72.673 74.8287 70.107 75.6987C68.309 75.8697 66.7989 75.9667 65.0089 75.6177C64.4429 75.0797 63.938 74.6197 63.564 73.9187L66.2859 73.2477Z" fill="#FFFEFF"/>
<path d="M50.3982 77.1927C51.7812 78.3937 52.4922 80.8348 52.6922 82.6308C52.9982 85.3868 51.9202 87.9008 50.2512 90.0228C47.8792 93.0378 45.3512 94.2647 41.5862 94.7077C40.5942 93.6707 40.6662 93.4927 40.4922 92.1277C41.3782 90.0087 47.1822 87.7638 49.1482 85.0638C51.0192 82.4958 50.7532 80.1547 50.3982 77.1927Z" fill="#FFFEFF"/>
<path d="M54.9541 87.7857C55.3801 86.0767 55.4781 84.2977 55.9411 82.6107C56.5601 83.5037 57.2191 84.3317 57.9171 85.1637C58.6381 88.0837 58.9671 90.9097 59.2381 93.8947C58.8211 95.5107 58.4731 97.4887 57.5871 98.9157C56.9311 99.9727 55.7561 100.767 54.5271 100.969C53.6761 101.108 53.6701 100.899 52.9921 100.456C51.7221 96.9017 54.0141 91.3227 54.9541 87.7857Z" fill="#FFFEFF"/>
<path d="M12.868 21.0707C13.053 21.5047 13.243 21.9377 13.47 22.3517C14.231 23.7357 15.55 24.6277 17.084 24.9667C18.968 25.3817 20.933 24.9427 22.536 23.8987C24.19 22.8217 25.33 21.2207 25.712 19.2737C26.142 17.0817 25.389 14.9597 24.271 13.1017C18.114 2.87571 2.454 3.99271 0 0.24771C0.393 0.0977104 0.469019 0.0417098 0.951019 0.0127098C6.38502 -0.32229 19.443 6.04971 24.03 9.11871C27.05 11.1387 29.653 13.5607 32.156 16.1787L30.543 17.7217C28.962 16.0667 27.409 14.3657 25.744 12.7977C26.871 16.4827 28.236 20.1877 26.179 23.8527C25.236 25.5337 23.593 26.6167 21.726 27.0107C19.313 27.5197 16.673 27.0517 14.673 25.5717C13.273 24.5367 12.245 22.9667 12.045 21.2197C11.996 20.7847 12.036 20.4087 12.14 19.9867C12.264 20.1527 12.89 20.8827 12.868 21.0707Z" fill="#EFB3BD"/>
<path d="M32.156 16.1787C36.117 19.9137 38.348 24.8977 42.73 28.2727L42.452 29.0357L40.317 28.0397C40.112 28.7127 42.076 40.9037 42.151 43.4187L40.995 43.9737L40.34 41.5127C38.804 44.2467 38.39 47.3357 35.844 49.3877C34.682 50.3247 32.962 51.1077 31.945 52.0997C31.849 52.1227 31.754 52.1477 31.658 52.1697C27.152 53.1907 22.33 52.6577 18.41 50.1197C15.681 48.3527 13.432 45.6447 12.826 42.3877C12.368 39.9217 12.876 37.1317 14.38 35.0967C15.663 33.3597 17.628 32.3837 19.759 32.2027C21.992 32.0137 24.369 32.4637 26.08 33.9987C27.332 35.1227 28.365 37.1037 28.289 38.8227C28.231 40.1277 27.643 40.6067 26.804 41.4647C25.446 41.8277 25.125 41.8397 23.762 41.5037C22.883 40.5367 22.819 40.4387 22.673 39.1427C23.618 37.8637 24.411 37.8907 25.867 37.4897C26.128 36.5237 25.819 35.9957 25.534 35.0507C24.896 34.3217 24.327 33.7747 23.372 33.5007C21.28 32.8997 18.824 33.4837 16.985 34.5647C15.232 35.5947 14.164 36.8817 13.71 38.8817C13.646 39.155 13.5957 39.4314 13.559 39.7107C13.5224 39.9894 13.5 40.269 13.492 40.5497C13.4834 40.831 13.4894 41.1117 13.51 41.3917C13.53 41.6724 13.564 41.9511 13.612 42.2277C13.66 42.5044 13.7217 42.7784 13.797 43.0497C13.873 43.3204 13.962 43.5864 14.064 43.8477C14.1667 44.1097 14.2824 44.3657 14.411 44.6157C14.539 44.8657 14.6794 45.1087 14.832 45.3447C16.857 48.5177 20.679 50.3947 24.293 51.0177C27.617 51.5907 31.162 51.2337 33.966 49.2327C36.333 47.5447 37.633 44.9127 38.098 42.1037C39.569 33.2327 35.551 24.7217 30.543 17.7217L32.156 16.1787Z" fill="#EFB3BD"/>
<path d="M42.151 43.4187C43.599 49.6277 45.853 55.1637 51.457 58.7437C54.496 60.6847 57.993 61.4037 61.518 60.5637C64.494 59.8557 67.834 58.0647 69.385 55.3467C69.497 55.1541 69.599 54.9564 69.691 54.7537C69.783 54.5504 69.8644 54.3431 69.935 54.1317C70.0064 53.9204 70.0663 53.7061 70.115 53.4887C70.1637 53.2714 70.2014 53.0521 70.228 52.8307C70.254 52.6094 70.2687 52.3874 70.272 52.1647C70.276 51.9421 70.2683 51.7197 70.249 51.4977C70.2297 51.2757 70.1993 51.0554 70.158 50.8367C70.116 50.6174 70.063 50.4011 69.999 50.1877C69.419 48.2847 67.98 46.8397 66.229 45.9637C64.709 45.2027 62.532 44.6047 60.915 45.2977C59.977 45.6987 59.241 46.4897 58.536 47.2037L58.522 48.0047C60.478 48.8477 62.939 48.4657 64.592 49.7617C64.628 51.0567 64.163 51.3067 63.383 52.3047C62.259 52.7557 61.656 53.0487 60.437 52.5617C59.07 52.0147 57.885 50.6247 57.467 49.2287C57.164 48.2147 57.203 47.1547 57.744 46.2277C58.544 44.8567 60.176 43.9467 61.682 43.5827C63.463 43.1507 65.343 43.6917 66.796 44.7557C69.089 46.4347 70.71 49.3257 71.064 52.1317C71.442 55.1297 70.445 57.8247 68.538 60.0997C66.456 62.5837 63.56 63.9767 60.348 64.2427C56.079 64.5967 51.653 62.9317 48.448 60.1407C44.527 56.7247 43.39 51.3867 41.8 46.6377C39.362 53.3457 33.368 64.8277 36.766 71.8167C37.18 72.6677 37.919 73.6727 38.86 73.9777C40.595 74.5377 42.708 74.4437 44.362 73.7417L44.75 73.5817L45.076 74.6577C42.798 75.5907 40.217 75.5907 37.886 74.7997C35.807 74.0947 34.28 72.5427 33.409 70.5427C31.528 66.2217 32.594 62.5587 34.264 58.3877C37.342 53.6407 39.668 49.5607 40.995 43.9737L42.151 43.4187Z" fill="#EFB3BD"/>
</svg>
