<svg width="57" height="44" viewBox="0 0 57 44" fill="none" xmlns="http://www.w3.org/2000/svg">
<path d="M13.8811 6.50082L15.4371 7.14062C16.7941 8.62512 17.6201 10.3945 18.1391 12.3308C18.6941 14.402 19.2791 17.2108 18.2061 19.1163C16.2551 16.7587 13.5521 13.9892 12.8381 10.9474C12.3821 9.00823 12.9491 8.10702 13.8811 6.50082Z" fill="#FFFEFF"/>
<path d="M38.7909 6.60962C39.5119 6.73702 40.2689 6.83841 40.9029 7.22691C41.7309 7.73421 42.0919 8.26362 42.2029 9.23472C42.4959 11.7783 39.2389 15.4866 37.7779 17.5158C37.4949 17.8389 37.1139 18.0721 36.7699 18.3276C36.4469 17.8481 36.235 17.6668 36.175 17.0782C35.781 13.2159 36.3209 9.66942 38.7909 6.60962Z" fill="#FFFEFF"/>
<path d="M0.314035 8.8933C0.865035 8.8609 1.43503 8.8123 1.98603 8.8458C3.99803 8.9679 5.19503 10.4656 6.36503 11.9538C8.22103 14.3162 10.983 19.1273 10.637 22.1326C7.01503 20.0322 2.47604 17.1592 0.608041 13.234C-0.0909588 11.7648 -0.184965 10.4249 0.314035 8.8933Z" fill="#FFFEFF"/>
<path d="M51.6411 8.63881C53.1371 8.60131 54.2021 8.54882 55.5631 9.31212C56.0171 10.126 56.2101 10.3495 56.0021 11.319C55.2581 14.7901 50.2751 17.959 47.5591 19.9348C46.5341 20.6345 45.8601 21.3534 44.5841 21.3429L44.2881 20.295C45.2601 15.8739 48.2991 11.5964 51.6411 8.63881Z" fill="#FFFEFF"/>
<path d="M26.533 0C26.853 0.0744 27.176 0.139704 27.489 0.236504C28.458 0.535804 29.305 1.0534 29.741 1.989C31.617 6.0112 29.621 13.5909 28.016 17.5015L26.939 16.8537C25.441 13.8666 24.702 10.3798 24.612 7.04691C24.535 4.17071 24.486 2.1603 26.533 0Z" fill="#FFFEFF"/>
<path d="M26.4991 25.2839C27.6221 25.3136 28.5821 25.3697 29.6461 25.7657C32.0201 26.6491 31.4391 28.6774 32.3301 30.6104C34.2861 30.0764 36.2901 28.8998 38.3341 29.1984C39.3461 30.0894 39.2541 30.3374 39.4961 31.6194C38.0041 34.3504 33.7561 36.7894 31.5401 39.0844C30.3661 40.3004 29.3911 41.8024 28.4331 43.1934L27.7151 43.1734C24.4381 38.7554 20.3321 36.3424 16.7221 32.4364C16.4661 31.2374 16.4651 31.1274 16.9201 29.9914C19.8751 28.0483 20.6911 30.4504 23.3951 30.3494C24.4551 30.3094 24.3321 27.7211 24.8051 26.9619C25.1331 26.4342 26.0381 25.7411 26.4991 25.2839Z" fill="#815094"/>
</svg>
