<svg width="108" height="59" viewBox="0 0 108 59" fill="none" xmlns="http://www.w3.org/2000/svg">
<path d="M20.2018 46.1037C20.3588 46.1317 20.5158 46.1627 20.6728 46.1897C22.0628 46.4307 22.9928 46.5087 24.3768 46.0867L25.5238 45.1087C24.9508 42.6637 21.8678 43.1697 23.1868 40.0207C24.2938 39.1787 24.5278 39.0187 25.8968 38.8587C26.9648 39.4937 27.5368 39.8687 27.9668 41.1337C28.3838 42.3607 28.1978 43.9557 27.5568 45.0727C26.9298 46.1647 25.8498 47.1967 24.6098 47.5267C22.7378 48.0247 19.9598 47.0877 18.1238 46.5677L20.2018 46.1037Z" fill="#BC9E68"/>
<path d="M72.9877 17.0377L73.4907 15.9827C78.2277 18.2357 82.4227 21.7167 85.7297 25.7977L85.2327 26.9647C84.1767 25.5057 82.8117 24.1687 81.5987 22.8297C81.5407 25.7587 81.7117 29.1237 79.7607 31.5347C78.9007 32.5977 77.7337 33.4707 76.3377 33.5967C76.1777 33.6101 76.0174 33.6147 75.8567 33.6107C75.6967 33.6067 75.537 33.5941 75.3777 33.5727C75.2184 33.5514 75.0607 33.5214 74.9047 33.4827C74.7493 33.4447 74.596 33.3981 74.4447 33.3427C74.294 33.2874 74.1467 33.2244 74.0027 33.1537C73.8587 33.0824 73.719 33.0037 73.5837 32.9177C73.4484 32.8317 73.318 32.7384 73.1927 32.6377C73.0674 32.5377 72.9477 32.4311 72.8337 32.3177C71.7057 31.2117 71.2687 29.6717 71.4057 28.1257C71.7437 24.3397 74.6927 21.8887 77.4757 19.7287C76.0047 18.7977 74.4817 17.9307 72.9877 17.0377Z" fill="#BEA158"/>
<path d="M52.3727 23.7657C53.6687 23.8837 53.9817 23.7617 54.9677 24.6667L54.9747 27.1827C53.6797 26.7907 53.1887 26.7537 52.2537 25.7387L52.3727 23.7657Z" fill="#602A2B"/>
<path d="M87.2535 47.1287C85.7345 47.5567 83.5976 47.7317 82.0656 47.3077C80.8696 46.9767 79.9086 46.1987 79.3696 45.0767C78.7476 43.7807 78.6936 42.0457 79.3006 40.7317C79.8646 39.5127 80.3756 39.2667 81.5316 38.7987C82.8156 39.2367 82.9916 39.3067 83.8146 40.3737C83.9456 42.2147 82.5096 43.9217 81.7866 45.5897L82.4296 46.2777C83.7646 46.5117 84.8516 46.4827 86.1956 46.3007L86.6446 46.2357L87.2535 47.1287Z" fill="#BC9E68"/>
<path d="M52.4596 7.32074C53.6946 7.42774 55.0516 7.62074 56.0126 8.49274C56.9036 9.30074 57.2496 10.3137 57.1386 11.4997C56.9986 13.0057 55.7906 13.9817 54.7296 14.9007C53.5866 14.7827 52.3106 14.5197 51.4046 13.7567C50.5046 12.9977 50.1146 12.0177 50.1726 10.8527C50.2466 9.35674 51.4636 8.29374 52.4596 7.32074Z" fill="#602A2B"/>
<path d="M90.6398 37.1467L91.8088 37.1677C91.6608 39.0867 91.5578 41.0107 91.1718 42.9007C94.3638 45.0447 98.5578 47.7017 99.4108 51.7947C99.7698 53.5177 99.5018 55.4917 98.4068 56.9107C97.6108 57.9437 96.4078 58.5307 95.1068 58.5697C93.7098 58.6107 92.1108 58.0737 91.1528 57.0277C89.0028 54.6797 89.4378 48.1787 88.0338 47.0887L87.2538 47.1287L86.6448 46.2357C87.0008 45.9424 87.3478 45.6391 87.6858 45.3257C90.1978 42.9797 90.5378 40.3727 90.6398 37.1467Z" fill="#BEA158"/>
<path d="M85.2327 26.9647L85.7297 25.7977C86.4447 26.6157 86.8397 27.4597 87.9987 27.5587C93.9727 28.0717 100.55 23.4727 105.699 28.9927C106.577 29.9337 107.232 31.1287 107.188 32.4497C107.153 33.4957 106.682 34.3957 105.904 35.0817C104.518 36.3067 102.583 36.9387 100.744 36.8037C97.6357 36.5747 94.5607 33.7097 91.7157 33.9117C91.1857 35.0107 91.5667 36.0347 91.8087 37.1677L90.6397 37.1467C89.1147 33.5157 87.2917 30.3097 85.2327 26.9647Z" fill="#BEA158"/>
<path d="M33.5826 15.5248C29.2646 14.4858 23.6266 13.4027 21.2506 9.16574C21.1346 8.96174 21.0303 8.75175 20.9376 8.53575C20.8443 8.32042 20.7633 8.10042 20.6946 7.87575C20.6253 7.65175 20.5683 7.42441 20.5236 7.19374C20.4796 6.96308 20.448 6.73075 20.4286 6.49675C20.4093 6.26275 20.4026 6.02842 20.4086 5.79375C20.4146 5.55908 20.4333 5.32541 20.4646 5.09274C20.496 4.86008 20.5396 4.62975 20.5956 4.40175C20.6523 4.17375 20.721 3.94941 20.8016 3.72875C21.3366 2.25175 22.4056 1.12475 23.8536 0.507753C25.6086 -0.241247 27.6916 -0.124259 29.4296 0.613741C33.0666 2.15774 35.1846 5.99275 36.4876 9.52275C36.9816 10.8608 37.4476 12.2467 37.7966 13.6317C40.2606 12.4547 42.7286 11.0828 45.4526 10.6667C42.9646 13.1737 37.5666 15.0367 34.2976 16.5997L33.5826 15.5248Z" fill="#BEA158"/>
<path d="M69.1658 13.0938C70.7128 8.48075 72.5488 3.55874 77.1058 1.12274C78.9408 0.141743 81.1618 -0.258248 83.1618 0.453752C84.7118 1.00675 85.9068 2.04675 86.5838 3.55475C87.2048 4.93875 87.2158 6.42475 86.6698 7.83675C84.6478 13.0717 78.0588 14.1327 73.4908 15.9827L72.9878 17.0378C69.5388 15.2468 64.3138 13.4007 61.5828 10.7637C64.0808 10.7817 66.8308 12.2178 69.1658 13.0938Z" fill="#BEA158"/>
<path d="M33.5827 15.5247L34.2977 16.5997L29.4888 19.8837C32.2778 21.8767 35.1378 24.1227 35.6488 27.7667C35.8488 29.1917 35.6078 30.6157 34.7268 31.7807C34.6301 31.9107 34.5268 32.0347 34.4168 32.1527C34.3074 32.2714 34.1917 32.384 34.0697 32.4907C33.9477 32.5967 33.8204 32.696 33.6878 32.7887C33.5558 32.8814 33.4187 32.9667 33.2767 33.0447C33.1354 33.1227 32.9901 33.1927 32.8407 33.2547C32.6914 33.3174 32.5394 33.3717 32.3847 33.4177C32.2301 33.4637 32.0731 33.5014 31.9137 33.5307C31.7551 33.56 31.5951 33.5807 31.4338 33.5927C30.0628 33.6867 28.9118 33.1607 27.9158 32.2437C25.2758 29.8107 25.2677 26.2357 25.1717 22.9257C21.0047 27.6947 18.1417 32.0907 16.2077 38.1887C17.0097 41.5817 17.4178 43.8267 20.2018 46.1037L18.1238 46.5677C18.1688 49.1447 17.9977 51.7417 17.9017 54.3177C17.0607 55.4677 16.2038 56.5477 15.0628 57.4207C14.0238 58.2157 12.6638 58.7237 11.3438 58.5207C10.1168 58.3317 9.19974 57.5987 8.56974 56.5477C7.60974 54.9487 7.64075 52.8797 8.17775 51.1457C9.42675 47.1127 12.6027 45.0457 16.0827 43.0987C15.0547 39.3977 15.2478 36.9157 16.0628 33.1637C12.4538 35.0337 8.31675 37.1847 4.10975 36.3607C2.70675 36.0857 1.28174 35.3917 0.517743 34.1327C-0.0132575 33.2577 -0.122265 32.2077 0.128735 31.2227C0.585735 29.4257 2.12675 28.1767 3.70775 27.3737C8.40874 24.9847 14.6528 26.3967 19.3598 27.9607C23.7148 22.9167 27.9797 19.1807 33.5827 15.5247Z" fill="#BEA158"/>
<path d="M53.3117 36.3597C55.1977 34.0247 57.4407 31.3257 60.4757 30.5507C61.7847 30.2167 63.1207 30.2997 64.2687 31.0587C65.8007 32.0707 66.6357 33.9547 66.8907 35.7207C67.6197 40.7757 65.0017 45.0197 62.1297 48.9017C59.3147 51.8007 56.4187 54.4237 53.2867 56.9767C49.7017 54.2697 46.1967 51.1057 43.5047 47.5017C41.0847 44.2607 38.7237 39.9477 39.4507 35.7537C39.9137 33.0827 41.3507 31.8417 43.3987 30.3327C43.8687 30.3387 44.3367 30.3487 44.8057 30.3817C48.6967 30.6587 50.9427 33.6487 53.3117 36.3597Z" fill="#602A2B"/>
</svg>
