<svg width="102" height="144" viewBox="0 0 102 144" fill="none" xmlns="http://www.w3.org/2000/svg">
<path d="M6.15512 29.913C5.21812 30.265 4.63413 30.341 3.66013 30.025C2.19413 29.55 1.66812 28.886 1.04712 27.592C1.36812 26.412 1.49912 26.225 2.30612 25.39C4.25812 25.112 6.38412 26.608 8.02712 27.554L9.20512 29.986L8.87312 30.392C7.96112 30.271 7.03612 30.191 6.15512 29.913Z" fill="#BEA158"/>
<path d="M19.2372 32.884C20.1952 34.526 20.8351 35.897 20.2901 37.817C19.7581 39.689 18.4311 40.402 16.7911 41.221L15.9691 41.23L15.0291 41.37L14.4081 40.779L14.3792 38.252C15.7392 36.066 17.2822 34.547 19.2372 32.884Z" fill="#C3A561"/>
<path d="M18.3191 50.876C19.3591 48.792 20.5211 46.174 22.7361 45.14C23.8701 45.172 23.8141 45.25 24.6411 46.05C25.0971 47.455 25.2641 48.681 24.5021 50.029C23.8911 51.108 21.9771 52.201 20.7701 52.38C20.4291 52.431 20.2221 52.395 19.8641 52.372L18.6511 52.513L18.3191 50.876Z" fill="#BEA158"/>
<path d="M8.53411 9.28699C7.38911 8.49199 6.76911 6.63796 6.57311 5.27496C6.36411 3.82296 6.91512 2.44 7.87612 1.367C8.54012 0.626004 9.25612 0.308 10.1811 0C10.8971 0.194 11.2131 0.104991 11.6531 0.752991C12.5831 2.11999 12.2301 4.91399 11.8401 6.47699C11.5931 7.46999 10.9511 9.178 10.0801 9.737L8.53411 9.28699Z" fill="#C3A561"/>
<path d="M8.534 9.28699L10.08 9.737C9.68 12.026 9.186 14.242 8.582 16.487C8.737 16.428 8.895 16.377 9.047 16.312C11.482 15.285 11.301 11.664 14.753 11.259C15.846 11.946 16.018 12.192 16.644 13.331C15.874 15.762 13.405 17.265 11.201 18.422C10.605 18.735 9.964 18.953 9.316 19.132L8.917 20.044L8.586 20.026C7.241 17.928 4.053 18.919 2.023 17.69C0.831003 16.969 0.377 15.94 0 14.658C0.29 13.431 0.221999 13.443 1.251 12.733C5.146 12.364 4.603 14.747 7.32 16.267C7.458 16.345 7.599 16.415 7.739 16.489L8.534 9.28699Z" fill="#BC9E68"/>
<path d="M17.8172 50.86L18.3192 50.876L18.6512 52.513L19.8642 52.372L18.8672 53.964L17.9212 54.589C16.2572 54.797 15.7432 54.724 14.3582 53.886L16.0092 53.55L16.2492 51.764L16.3852 51.421L17.8172 50.86Z" fill="#C3A561"/>
<path d="M14.3582 53.886L13.1772 54.646C11.8102 54.796 10.5392 54.768 9.29716 54.09C8.19316 53.487 7.64316 52.734 7.26416 51.569L7.70316 50.754C9.47316 50.09 11.4512 49.913 13.2492 50.591C14.2525 50.973 15.2525 51.364 16.2492 51.764L16.0092 53.55L14.3582 53.886Z" fill="#BC9E68"/>
<path d="M27.5671 70.869C28.0431 70.255 28.2471 69.3021 28.5241 68.5731C29.2161 66.7541 29.5511 65.8601 31.3941 65.0261C32.7801 65.1551 32.9591 65.202 34.0411 66.069C34.4401 67.284 34.4881 67.2721 33.9771 68.5411C33.0861 70.0171 31.6431 72.091 29.7831 72.387C29.4751 72.436 29.3541 72.3921 29.0791 72.3361L27.8731 72.373L27.5671 70.869Z" fill="#C3A561"/>
<path d="M32.422 85.418C32.202 85.696 32.25 85.654 31.933 85.944C30.73 87.044 28.719 87.587 27.115 87.439C25.43 87.284 23.772 86.435 22.74 85.111L22.864 84.135C25.439 81.74 28.023 83.463 31.109 82.91C31.221 82.89 31.331 82.865 31.443 82.842C31.859 83.695 32.353 84.461 32.422 85.418Z" fill="#BC9E68"/>
<path d="M71.626 123.697C72.772 121.128 73.35 117.887 76.138 116.754C77.416 117.178 77.831 117.621 78.618 118.698C78.716 120.374 78.546 121.326 77.353 122.655C76.383 123.734 74.86 125.18 73.461 125.553C72.884 125.621 72.639 125.551 72.091 125.398L71.626 123.697Z" fill="#BC9E68"/>
<path d="M63.123 112.735C63.595 110.991 64.002 109.31 65.634 108.322C66.071 108.057 66.8001 108.213 67.3111 108.232C68.3591 108.931 68.986 109.569 69.317 110.828C69.569 111.786 69.3461 112.824 68.8331 113.658C68.1761 114.725 65.876 116.565 64.677 116.85C63.856 117.033 64.268 117.043 63.44 116.806C63.211 115.445 63.161 114.111 63.123 112.735Z" fill="#BC9E68"/>
<path d="M40.844 91.64C43.8 90.016 43.186 84.388 46.851 83.821C48.139 84.529 48.539 84.684 49.281 85.925C49.235 87.972 48.136 89.278 46.718 90.625C45.41 91.868 43.844 92.986 42.669 94.342C41.784 93.839 41.331 92.547 40.844 91.64Z" fill="#C3A561"/>
<path d="M46.6281 100.672L48.3791 101.114C48.3291 101.639 48.3761 101.843 48.0731 102.289C47.1181 103.747 45.731 104.864 44.272 105.795C42.728 106.78 40.8331 107.551 38.9931 107.077C37.4171 106.672 37.369 106.346 36.55 105.027C38.383 101.454 43.367 102.086 46.386 100.784C46.468 100.749 46.5481 100.709 46.6281 100.672Z" fill="#BC9E68"/>
<path d="M52.9701 108.428L54.6331 108.933L54.8711 110.342C53.8291 111.695 53.0171 113.424 51.8911 114.666C50.9871 115.663 50.3201 116.028 49.0031 116.145C47.5111 116.278 46.2411 115.859 45.1441 114.871C44.9791 114.052 44.8391 113.836 45.2031 113.083C46.5991 110.192 50.1941 109.428 52.9701 108.428Z" fill="#BEA158"/>
<path d="M38.4071 73.878C39.4791 74.743 40.1801 75.42 40.3521 76.844C40.5371 78.375 39.8261 79.784 38.8881 80.944C37.8581 82.219 36.3961 83.328 34.9021 83.982C35.5381 85.478 36.0751 86.601 37.2481 87.781L36.8311 88.192C35.2291 86.906 34.4841 85.788 32.4221 85.418C32.3531 84.461 31.8591 83.695 31.4431 82.842L32.4611 82.526L32.9481 82.055L33.5001 81.648C34.6441 78.523 35.8881 76.112 38.4071 73.878Z" fill="#C3A561"/>
<path d="M33.977 68.541C33.706 70.179 33.562 71.1749 34.213 72.7599C35.081 73.5869 35.608 74.0859 36.898 74.1419C37.388 74.1629 37.936 74.0029 38.407 73.8779C35.888 76.1119 34.644 78.5229 33.5 81.6479L32.948 82.0549C32.0987 80.8209 31.275 79.5699 30.477 78.3019C29.117 76.1129 28.478 74.9089 29.079 72.3359C29.354 72.3919 29.475 72.4359 29.783 72.3869C31.643 72.0909 33.086 70.017 33.977 68.541Z" fill="#DFC4C3"/>
<path d="M55.565 109.925C57.298 111.805 59.8 115.388 62.362 115.738C63.031 114.827 62.985 113.838 63.123 112.735C63.161 114.111 63.211 115.445 63.44 116.806C64.268 117.043 63.856 117.033 64.677 116.85L64.523 117.956C65.258 119.757 66.992 121.037 68.393 122.342L68.498 121.911L67.784 122.667C66.266 121.25 64.866 119.755 63.467 118.222C62.56 120.071 60.245 122.79 58.327 123.62C57.033 124.18 56.528 123.977 55.292 123.528C54.466 122.463 54.184 122.217 54.009 120.842C55.528 118.105 59.148 118.748 61.466 117.271C61.645 117.157 61.818 117.033 61.994 116.913C59.511 115.387 57.313 112.572 55.33 110.46L55.565 109.925Z" fill="#BC9E68"/>
<path d="M79.343 131.97C80.489 131.559 81.157 131.678 82.333 131.928C85.612 138.044 96.938 138.033 101.611 142.974L101.282 143.293C95.316 140.571 86.178 137.594 81.726 132.762C81.079 134.779 80.168 137.049 78.676 138.603C77.686 139.633 77.284 139.801 75.89 139.908C74.766 139.207 74.314 138.839 73.823 137.593C74.538 134.632 77.288 134.243 79.149 132.194C79.215 132.121 79.279 132.045 79.343 131.97Z" fill="#BEA158"/>
<path d="M36.831 88.192L37.248 87.7809C38.206 89.1139 39.302 90.959 40.844 91.64C41.331 92.547 41.784 93.8389 42.669 94.3419C43.823 96.0669 45.969 98.2529 46.648 100.118C44.785 99.2819 42.656 95.9219 41.511 94.1639C40.841 95.1829 39.875 96.0009 38.843 96.6419C36.758 97.9379 34.345 98.5379 31.93 97.8279C30.619 97.4419 30.23 97.025 29.532 95.903L29.944 94.8259C33.438 92.0229 36.601 94.2069 39.857 92.6329C40.007 92.5599 40.152 92.4789 40.299 92.4019C38.887 91.2739 37.89 89.645 36.831 88.192Z" fill="#BC9E68"/>
<path d="M72.3662 125.828C71.6342 127.876 70.1911 130.536 68.0951 131.408C66.8001 131.947 65.6592 131.802 64.4002 131.288C63.5792 130.305 63.6062 130.373 63.6762 129.093C65.0152 127.019 66.9441 126.324 69.2071 125.699C69.9341 125.499 69.8052 125.501 70.2212 124.946L69.3502 123.449C69.9542 123.677 70.3861 123.775 71.0261 123.738C71.2271 123.727 71.4262 123.711 71.6262 123.697L72.0912 125.398C72.6392 125.551 72.8842 125.621 73.4612 125.553C74.5722 127.806 77.8012 129.983 80.1562 130.796L80.2862 130.353C81.0402 127.73 80.3862 125.706 83.0072 124.08C84.3092 124.374 84.4212 124.47 85.3272 125.458C85.6592 126.842 85.8942 127.535 85.2112 128.891C84.6512 130.004 83.3782 131.277 82.3332 131.928C81.1572 131.678 80.4891 131.559 79.3431 131.97C77.1091 129.725 74.2772 128.495 72.3662 125.828Z" fill="#BC9E68"/>
<path d="M46.6482 100.118C48.2122 99.637 48.7272 98.488 49.4862 97.07C50.2472 95.649 50.6492 94.441 52.0892 93.571C53.3312 93.59 53.5912 93.43 54.5592 94.267C54.8352 95.716 54.1972 96.993 53.4222 98.203C52.6542 99.401 50.7342 101.337 49.3162 101.656C49.2132 101.679 49.1062 101.674 49.0022 101.684C50.1582 103.674 52.2062 106.934 54.4142 107.756C55.6612 105.162 56.9542 100.293 59.6672 99.059C60.8582 99.218 61.3872 99.419 62.1472 100.418C62.8982 101.405 62.9212 102.507 62.5772 103.662C61.5972 106.946 57.4912 107.661 55.5652 109.925L55.3302 110.46L54.8712 110.342L54.6332 108.933L52.9702 108.428C51.7642 106.224 49.5672 104.377 48.0732 102.289C48.3762 101.843 48.3292 101.639 48.3792 101.114L46.6282 100.672L46.6482 100.118Z" fill="#BC9E68"/>
<path d="M18.8671 53.9641C19.6181 56.2771 20.4002 59.4231 22.2452 61.1431C22.3652 61.0391 22.4872 60.939 22.6032 60.832C24.7042 58.9 23.9412 56.0221 27.3912 55.0101C28.1392 55.2971 28.2721 55.1751 28.6641 55.9421C29.1751 56.9431 29.0761 58.2221 28.7221 59.2631C28.0801 61.1521 26.5381 62.049 24.8171 62.796C24.1791 63.073 23.7442 63.2631 23.0402 63.1741C23.6512 64.9091 24.9821 69.717 26.7351 70.634C27.1791 70.866 27.0941 70.815 27.5671 70.869L27.8731 72.373L29.0792 72.3361C28.4782 74.9091 29.1171 76.1131 30.4771 78.3021C31.2752 79.5701 32.0988 80.8211 32.9482 82.0551L32.4612 82.5261C30.5192 79.6951 28.4072 76.885 26.7412 73.882C25.4912 75.148 23.5202 75.9561 21.7662 76.2211C20.0292 76.4831 17.9752 76.302 16.5582 75.215C16.0452 74.024 15.9981 73.88 16.2481 72.613C19.2461 70.044 22.8251 72.5041 26.0801 71.2181C26.1711 71.1821 26.2592 71.138 26.3482 71.098C24.2402 70.093 22.8472 65.9591 21.8592 63.8751C21.0912 64.6051 20.2212 64.903 19.2342 65.248C17.3922 65.893 15.4422 66.218 13.6552 65.189C12.5012 64.524 12.2382 64.0651 11.8582 62.8331L12.4771 61.9C15.4681 60.421 17.2972 61.97 20.0462 61.374C20.2142 61.338 20.3811 61.2911 20.5481 61.2501C19.5731 59.0501 18.6712 56.8771 17.9212 54.5891L18.8671 53.9641Z" fill="#BC9E68"/>
<path d="M8.58611 20.026L8.91711 20.044C9.32011 22.6 9.40311 26.526 10.4331 28.814C12.0651 26.494 13.6621 23.337 16.6111 22.773C17.6931 23.625 18.1801 24.642 18.3511 26.04C18.3291 28.093 18.0701 30.52 18.7671 32.459L19.2371 32.884C17.2821 34.547 15.7391 36.066 14.3791 38.252L14.4081 40.779L15.0291 41.37L15.9691 41.23C15.0261 42.619 14.7601 43.062 14.9981 44.821C15.2771 46.876 16.7111 49.128 17.8171 50.86L16.3851 51.421C15.2651 48.442 13.9561 45.522 12.7151 42.591C12.6791 42.604 12.6451 42.621 12.6081 42.63C10.9651 43.055 8.05512 42.967 6.53812 42.121C5.30512 41.432 4.52311 40.255 4.08911 38.953L4.61111 38.234C7.94011 37.4 8.98312 39.166 11.7601 39.393C11.9011 39.405 12.0431 39.409 12.1841 39.417C11.4571 37.337 11.0971 35.068 10.6381 32.912C9.92711 32.16 9.17812 31.199 8.13512 30.954C7.39912 30.78 6.99911 30.535 6.38811 30.088C6.31011 30.031 6.23311 29.971 6.15511 29.913C7.03611 30.191 7.96112 30.271 8.87312 30.392L9.20512 29.986L8.02711 27.554L8.66412 27.346C9.43912 25.253 8.79611 22.253 8.58611 20.026Z" fill="#BC9E68"/>
<path d="M18.351 26.04C18.329 28.093 18.07 30.52 18.767 32.459L19.237 32.884C17.282 34.547 15.739 36.066 14.379 38.252L13.66 38.794C11.687 37.469 11.217 32.353 10.751 30.038C11.243 30.16 11.688 30.285 12.201 30.217C14.555 29.902 17.072 27.936 18.351 26.04Z" fill="#DFC4C3"/>
</svg>
