<svg width="237" height="61" viewBox="0 0 237 61" fill="none" xmlns="http://www.w3.org/2000/svg">
<path d="M132.336 6.46704C133.49 6.51804 134.069 6.65607 135.052 7.27307C135.461 8.62407 135.248 9.09003 134.936 10.439C133.774 10.377 133.169 10.2321 132.174 9.61908C131.733 8.26308 131.988 7.82104 132.336 6.46704Z" fill="#EFB3BD"/>
<path d="M30.2372 6.53906C31.3442 6.54406 32.0882 6.64303 33.1212 7.05103C33.9142 8.26703 33.7542 8.84204 33.7612 10.269C32.6202 10.356 31.9442 10.266 30.8732 9.87305C30.1192 8.55405 30.2302 8.02806 30.2372 6.53906Z" fill="#EFB3BD"/>
<path d="M102.954 6.44409C103.858 6.49009 104.656 6.6611 105.528 6.8761C106.353 8.1931 106.144 9.0181 106.114 10.5061C105.068 10.4431 104.257 10.2281 103.27 9.88312C102.618 8.53312 102.82 7.86509 102.954 6.44409Z" fill="#EFB3BD"/>
<path d="M59.4579 6.46313C60.5309 6.51713 61.3179 6.70009 62.3239 7.06909C63.0009 8.40409 62.8279 8.9931 62.7349 10.4621C61.6289 10.4331 60.8909 10.3201 59.8699 9.88611C59.1979 8.53711 59.3649 7.94313 59.4579 6.46313Z" fill="#EFB3BD"/>
<path d="M219.222 6.48887C220.432 6.46587 221.154 6.65982 222.233 7.20182C222.849 8.49482 222.802 8.89186 222.707 10.3409C221.562 10.3799 220.836 10.2709 219.764 9.87388C218.999 8.52188 219.158 8.00887 219.222 6.48887Z" fill="#EFB3BD"/>
<path d="M190.225 6.43994C191.444 6.49694 192.16 6.6389 193.243 7.2149C193.794 8.6609 193.554 9.12492 193.25 10.6099C192.295 10.5609 191.664 10.3649 190.783 10.0339C190.031 8.73994 190.209 7.88094 190.225 6.43994Z" fill="#EFB3BD"/>
<path d="M205.856 6.22485C206.894 6.61585 207.215 6.8519 207.876 7.7439C207.875 9.3119 207.574 9.6509 206.74 11.0119C205.499 10.2359 205.011 10.0769 204.343 8.73987C204.508 7.52287 205.004 7.07285 205.856 6.22485Z" fill="#EFB3BD"/>
<path d="M44.8557 6.38892C45.7967 6.44792 46.5447 6.67291 47.4247 6.97491C48.2637 8.21091 48.1057 8.99294 48.1407 10.4219C46.9787 10.4289 46.1857 10.3119 45.0897 9.91492C44.4707 8.52792 44.6907 7.82792 44.8557 6.38892Z" fill="#EFB3BD"/>
<path d="M15.6417 6.45605C16.7917 6.49905 17.4977 6.66108 18.5417 7.15308C19.2817 8.38308 19.1587 8.75007 19.1137 10.1481C17.9097 10.3631 17.2527 10.389 16.0907 9.98505C15.3857 8.71405 15.5897 7.85605 15.6417 6.45605Z" fill="#EFB3BD"/>
<path d="M148.149 6.15112C149.081 6.69512 149.512 7.14911 150.11 8.04211C149.937 9.58611 149.549 9.8201 148.568 10.9751C147.615 10.3481 147.086 9.82711 146.435 8.88611C146.692 7.41911 147.132 7.19512 148.149 6.15112Z" fill="#EFB3BD"/>
<path d="M175.766 6.48901C176.896 6.49701 177.69 6.65197 178.735 7.08197C179.461 8.39797 179.307 8.82498 179.211 10.29C177.992 10.397 177.322 10.349 176.19 9.86798C175.53 8.53398 175.683 7.95001 175.766 6.48901Z" fill="#EFB3BD"/>
<path d="M89.7118 6C90.7438 6.505 91.2338 6.92197 91.9298 7.83197C91.9068 9.31197 91.5378 9.67702 90.7698 10.908C89.7048 10.411 89.0748 10.091 88.3828 9.125C88.4498 7.643 88.9048 7.217 89.7118 6Z" fill="#EFB3BD"/>
<path d="M161.025 6.47095C162.079 6.54495 162.956 6.74194 163.965 7.05194C164.781 8.25194 164.599 8.79792 164.591 10.2219C163.393 10.3819 162.663 10.3799 161.505 10.0139C160.789 8.73092 160.982 7.88495 161.025 6.47095Z" fill="#EFB3BD"/>
<path d="M118.468 6.01685C119.623 6.34385 120.089 6.58687 120.855 7.52087C121.122 8.94187 120.741 9.65188 120.124 10.9269C118.976 10.5659 118.406 10.2239 117.544 9.37988C117.382 7.80088 117.714 7.44785 118.468 6.01685Z" fill="#EFB3BD"/>
<path d="M74.8952 6.00293C75.9782 6.47593 76.5632 6.90892 77.3002 7.83392C77.2762 9.30592 76.9132 9.70596 76.1752 10.947C74.9502 10.509 74.3932 10.2329 73.6162 9.17493C73.6822 7.61993 74.0002 7.30993 74.8952 6.00293Z" fill="#EFB3BD"/>
<path d="M55.5864 29.8101C55.4884 28.1041 55.7214 26.724 56.9444 25.441C58.5274 23.782 61.4254 22.9541 63.6954 23.0671C64.6774 23.1151 65.4394 23.429 66.2884 23.897C67.0104 24.89 67.4944 25.47 67.4024 26.785C67.3144 28.045 66.4064 29.2881 65.3624 29.9481C64.9734 30.1951 64.5524 30.3001 64.1134 30.4221C62.2884 29.5071 61.3804 24.499 59.3684 25.337C58.4164 25.734 57.2864 26.9181 56.9794 27.9071C56.6984 28.8111 56.6704 29.8541 56.6144 30.7941L55.5864 29.8101Z" fill="#BC9E68"/>
<path d="M180.741 34.1169C181.197 32.1789 182.186 29.2599 181.009 27.4559C180.231 26.2639 179.402 25.7479 178.07 25.4359C176.519 26.4179 176.711 27.7909 175.653 29.1459C174.951 30.0449 174.591 29.9859 173.572 30.1629C172.466 29.5109 171.711 29.0889 171.264 27.7759C170.836 26.5199 171.273 25.7239 171.757 24.6019C173.136 23.3589 174.659 22.8549 176.524 22.9389C178.424 23.0249 180.189 23.8509 181.419 25.3139C183.44 27.7169 182.987 30.6359 182.799 33.5309L180.741 34.1169Z" fill="#BC9E68"/>
<path d="M146.71 32.5299C146.891 31.9149 147.098 31.3009 147.26 30.6799C147.798 28.6189 148.624 27.0259 149.715 25.2169C150.877 23.2919 151.999 21.7219 154.312 21.1799C156.498 20.6689 158.28 20.4699 160.259 21.7169C160.817 22.0679 161.384 22.399 161.95 22.736C162.422 25.216 162.91 27.2939 161.36 29.5379C158.849 33.1729 152.261 33.8319 151.392 35.2949L150.551 36.0899C148.743 35.2129 147.046 34.2389 145.334 33.1859L146.71 32.5299Z" fill="#BEA158"/>
<path d="M182.799 33.531C185.779 31.806 191.009 29.702 194.421 30.496C194.647 30.548 194.87 30.612 195.089 30.688C195.308 30.764 195.523 30.8514 195.732 30.95C195.942 31.0494 196.146 31.1593 196.344 31.28C196.542 31.4006 196.733 31.532 196.917 31.674C197.1 31.8154 197.276 31.966 197.444 32.126C197.611 32.2867 197.77 32.4557 197.919 32.633C198.068 32.8103 198.208 32.9953 198.338 33.188C198.467 33.3807 198.586 33.5797 198.694 33.785C199.434 35.212 199.61 36.824 199.112 38.362C198.546 40.111 197.104 41.541 195.438 42.273C193.051 43.321 190.356 42.761 188.055 41.763C186.227 40.97 180.903 36.89 179.382 37.287C178.673 37.472 177.938 37.912 177.287 38.248L177.006 37.521L180.741 34.117L182.799 33.531Z" fill="#BEA158"/>
<path d="M150.551 36.0899L151.392 35.2949C159.716 38.3469 168.423 41.4419 177.006 37.5209L177.287 38.2479C173.734 40.6159 170.224 41.0019 166.07 41.0159C168.119 42.3189 170.148 43.629 171.921 45.299C174.405 47.637 176.937 51.0079 176.931 54.5819C176.928 56.1599 176.415 57.6699 175.25 58.7659C174.212 59.7419 172.785 60.2149 171.372 60.1769C169.149 60.1169 167.195 58.8929 165.717 57.3029C161.464 52.7269 160.752 46.019 160.944 40.08C157.455 38.836 154.007 37.4259 150.551 36.0899Z" fill="#BEA158"/>
<path d="M129.911 18.1169C134.8 23.7259 140.572 28.3649 146.71 32.5299L145.334 33.1859C143.154 31.7166 140.983 30.2339 138.822 28.7379C139.525 32.1129 140.064 35.3799 139.718 38.8359C139.393 42.0849 138.261 45.5659 135.583 47.6379C133.846 48.9809 131.694 49.571 129.52 49.218C129.286 49.1813 129.054 49.1326 128.825 49.072C128.595 49.012 128.37 48.94 128.148 48.856C127.926 48.772 127.709 48.6769 127.497 48.5709C127.285 48.4643 127.079 48.3472 126.879 48.2199C126.679 48.0926 126.487 47.9553 126.301 47.8079C126.115 47.6599 125.937 47.5033 125.768 47.338C125.598 47.172 125.438 46.9976 125.286 46.8149C125.134 46.6329 124.993 46.4432 124.861 46.2459C123.588 44.3339 123.394 41.9309 123.854 39.7269C125.154 33.4869 130.704 29.008 135.769 25.757C133.425 23.819 130.403 21.6169 129.14 18.7689L129.911 18.1169Z" fill="#BEA158"/>
<path d="M108.726 17.572C84.905 17.313 61.054 17.522 37.23 17.514C28.043 17.511 8.647 18.769 1 16.505L1.35699 16.198C11.393 15.625 21.522 15.878 31.573 15.869C49.485 15.7657 67.397 15.7834 85.309 15.922C100.472 15.911 232.653 14.868 236.515 16.426L236.081 16.907C232.21 18.382 176.266 17.492 167.116 17.589C165.559 18.029 160.182 18.649 159.313 19.539L159.757 19.903C160.817 20.78 161.615 21.335 161.95 22.736C161.384 22.399 160.817 22.068 160.259 21.717C158.28 20.47 156.498 20.669 154.312 21.18C151.999 21.722 150.877 23.292 149.715 25.217C148.624 27.026 147.798 28.619 147.26 30.68C147.098 31.301 146.891 31.915 146.71 32.53C140.572 28.365 134.8 23.726 129.911 18.117L129.14 18.769L128.594 17.818C122.776 16.659 115.547 17.49 109.56 17.553C108.031 20.729 105.762 22.895 103.133 25.18L102.063 24.385C104.464 22.215 106.678 20.093 108.726 17.572Z" fill="#AF8C5B"/>
<path d="M129.911 18.117C131.543 16.693 162.581 17.566 167.116 17.589C165.559 18.029 160.182 18.649 159.313 19.539L159.757 19.903C160.817 20.78 161.615 21.335 161.95 22.736C161.384 22.399 160.817 22.068 160.259 21.717C158.28 20.47 156.498 20.669 154.312 21.18C151.999 21.722 150.877 23.292 149.715 25.217C148.624 27.026 147.798 28.619 147.26 30.68C147.098 31.301 146.891 31.915 146.71 32.53C140.572 28.365 134.8 23.726 129.911 18.117Z" fill="#DDC2D4"/>
<path d="M87.0868 34.949C85.4618 34.483 83.8068 34.027 82.2198 33.443C79.8288 32.565 77.4358 30.772 76.4648 28.357C76.3954 28.185 76.3351 28.0097 76.2838 27.831C76.2318 27.653 76.1891 27.4727 76.1558 27.29C76.1224 27.1073 76.0984 26.9233 76.0838 26.738C76.0691 26.5533 76.0638 26.368 76.0678 26.182C76.0718 25.9967 76.0854 25.8117 76.1088 25.6271C76.1314 25.4431 76.1634 25.2607 76.2048 25.0801C76.2461 24.8987 76.2964 24.72 76.3558 24.544C76.4158 24.368 76.4841 24.1957 76.5608 24.027C76.6421 23.851 76.7321 23.6794 76.8308 23.5121C76.9301 23.3454 77.0374 23.1844 77.1528 23.029C77.2688 22.873 77.3924 22.7237 77.5238 22.581C77.6551 22.4384 77.7934 22.3027 77.9388 22.174C78.0841 22.046 78.2358 21.9257 78.3938 21.813C78.5511 21.7004 78.7144 21.596 78.8838 21.5C79.0524 21.4047 79.2254 21.3183 79.4028 21.241C79.5808 21.163 79.7621 21.0947 79.9468 21.036C81.7828 20.463 83.7958 20.891 85.4108 21.87C89.1628 24.146 90.7468 28.8351 91.6848 32.8611C95.1958 30.0931 98.7068 27.341 102.063 24.385L103.133 25.18C104.505 29.179 119.023 35.262 113.585 46.152C112.849 47.626 111.624 48.825 110.029 49.32C108.005 49.948 105.921 49.485 104.131 48.433C101.466 46.866 99.7368 44.1271 98.9978 41.1711C97.9568 37.0111 98.7618 32.769 99.5748 28.643C91.1308 33.822 86.7808 36.527 77.3158 39.974C77.2488 46.237 76.6588 53.242 71.8578 57.871C70.4208 59.256 68.5278 60.2811 66.4878 60.2391C64.9548 60.2081 63.5488 59.552 62.5738 58.362C61.4278 56.961 61.1888 55.088 61.4848 53.345C62.3928 48.018 67.6198 44.033 71.7708 41.173C66.4988 40.91 62.6948 39.497 58.1728 36.837C54.5108 39.785 50.1838 42.68 45.2328 42.191C42.9728 41.967 40.6958 41.111 39.1638 39.37C38.3338 38.426 37.7988 37.158 37.9648 35.886C38.1828 34.206 39.3748 32.9381 40.7228 32.0251C42.6438 30.7241 44.4548 30.2081 46.7918 30.6531C49.4838 31.1661 52.4288 32.703 55.1558 32.452C55.7478 31.679 55.5938 30.736 55.5858 29.81L56.6138 30.794C56.7218 31.563 56.8358 32.384 57.1418 33.104C58.1298 35.428 60.8258 37.5751 63.1218 38.4291C70.9198 41.3311 79.9288 38.233 87.0868 34.949Z" fill="#BEA158"/>
<path d="M0.5 0.5H235" stroke="#AF8C5B"/>
</svg>
