<svg width="236" height="55" viewBox="0 0 236 55" fill="none" xmlns="http://www.w3.org/2000/svg">
<path d="M131.336 0.467041C132.49 0.518041 133.069 0.656071 134.052 1.27307C134.461 2.62407 134.248 3.09003 133.936 4.43903C132.774 4.37703 132.169 4.23208 131.174 3.61908C130.733 2.26308 130.988 1.82104 131.336 0.467041Z" fill="#EFB3BD"/>
<path d="M29.2372 0.539062C30.3442 0.544062 31.0882 0.643025 32.1212 1.05103C32.9142 2.26703 32.7542 2.84204 32.7612 4.26904C31.6202 4.35604 30.9442 4.26605 29.8732 3.87305C29.1192 2.55405 29.2302 2.02806 29.2372 0.539062Z" fill="#EFB3BD"/>
<path d="M101.954 0.444092C102.858 0.490092 103.656 0.661099 104.528 0.876099C105.353 2.1931 105.144 3.0181 105.114 4.5061C104.068 4.4431 103.257 4.22812 102.27 3.88312C101.618 2.53312 101.82 1.86509 101.954 0.444092Z" fill="#EFB3BD"/>
<path d="M58.4579 0.463135C59.5309 0.517135 60.3179 0.700092 61.3239 1.06909C62.0009 2.40409 61.8279 2.9931 61.7349 4.4621C60.6289 4.4331 59.8909 4.32011 58.8699 3.88611C58.1979 2.53711 58.3649 1.94313 58.4579 0.463135Z" fill="#EFB3BD"/>
<path d="M218.222 0.48887C219.432 0.46587 220.154 0.659822 221.233 1.20182C221.849 2.49482 221.802 2.89186 221.707 4.34086C220.562 4.37986 219.836 4.27088 218.764 3.87388C217.999 2.52188 218.158 2.00887 218.222 0.48887Z" fill="#EFB3BD"/>
<path d="M189.225 0.439941C190.444 0.496941 191.16 0.638905 192.243 1.2149C192.794 2.6609 192.554 3.12492 192.25 4.60992C191.295 4.56092 190.664 4.36494 189.783 4.03394C189.031 2.73994 189.209 1.88094 189.225 0.439941Z" fill="#EFB3BD"/>
<path d="M204.856 0.224854C205.894 0.615854 206.215 0.851896 206.876 1.7439C206.875 3.3119 206.574 3.6509 205.74 5.0119C204.499 4.2359 204.011 4.07687 203.343 2.73987C203.508 1.52287 204.004 1.07285 204.856 0.224854Z" fill="#EFB3BD"/>
<path d="M43.8557 0.388916C44.7967 0.447916 45.5447 0.672915 46.4247 0.974915C47.2637 2.21091 47.1057 2.99294 47.1407 4.42194C45.9787 4.42894 45.1857 4.31192 44.0897 3.91492C43.4707 2.52792 43.6907 1.82792 43.8557 0.388916Z" fill="#EFB3BD"/>
<path d="M14.6417 0.456055C15.7917 0.499055 16.4977 0.661076 17.5417 1.15308C18.2817 2.38308 18.1587 2.75007 18.1137 4.14807C16.9097 4.36307 16.2527 4.38905 15.0907 3.98505C14.3857 2.71405 14.5897 1.85605 14.6417 0.456055Z" fill="#EFB3BD"/>
<path d="M147.149 0.151123C148.081 0.695123 148.512 1.14911 149.11 2.04211C148.937 3.58611 148.549 3.8201 147.568 4.9751C146.615 4.3481 146.086 3.82711 145.435 2.88611C145.692 1.41911 146.132 1.19512 147.149 0.151123Z" fill="#EFB3BD"/>
<path d="M174.766 0.489014C175.896 0.497014 176.69 0.65197 177.735 1.08197C178.461 2.39797 178.307 2.82498 178.211 4.28998C176.992 4.39698 176.322 4.34898 175.19 3.86798C174.53 2.53398 174.683 1.95001 174.766 0.489014Z" fill="#EFB3BD"/>
<path d="M88.7118 0C89.7438 0.505 90.2338 0.92197 90.9298 1.83197C90.9068 3.31197 90.5378 3.67702 89.7698 4.90802C88.7048 4.41102 88.0748 4.091 87.3828 3.125C87.4498 1.643 87.9048 1.217 88.7118 0Z" fill="#EFB3BD"/>
<path d="M160.025 0.470947C161.079 0.544947 161.956 0.741941 162.965 1.05194C163.781 2.25194 163.599 2.79792 163.591 4.22192C162.393 4.38192 161.663 4.37992 160.505 4.01392C159.789 2.73092 159.982 1.88495 160.025 0.470947Z" fill="#EFB3BD"/>
<path d="M117.468 0.0168457C118.623 0.343846 119.089 0.586874 119.855 1.52087C120.122 2.94187 119.741 3.65188 119.124 4.92688C117.976 4.56588 117.406 4.22388 116.544 3.37988C116.382 1.80088 116.714 1.44785 117.468 0.0168457Z" fill="#EFB3BD"/>
<path d="M73.8952 0.00292969C74.9782 0.47593 75.5632 0.908923 76.3002 1.83392C76.2762 3.30592 75.9132 3.70596 75.1752 4.94696C73.9502 4.50896 73.3932 4.23293 72.6162 3.17493C72.6822 1.61993 73.0002 1.30993 73.8952 0.00292969Z" fill="#EFB3BD"/>
<path d="M54.5864 23.8101C54.4884 22.1041 54.7214 20.724 55.9444 19.441C57.5274 17.782 60.4254 16.9541 62.6954 17.0671C63.6774 17.1151 64.4394 17.429 65.2884 17.897C66.0104 18.89 66.4944 19.47 66.4024 20.785C66.3144 22.045 65.4064 23.2881 64.3624 23.9481C63.9734 24.1951 63.5524 24.3001 63.1134 24.4221C61.2884 23.5071 60.3804 18.499 58.3684 19.337C57.4164 19.734 56.2864 20.9181 55.9794 21.9071C55.6984 22.8111 55.6704 23.8541 55.6144 24.7941L54.5864 23.8101Z" fill="#BC9E68"/>
<path d="M179.741 28.1169C180.197 26.1789 181.186 23.2599 180.009 21.4559C179.231 20.2639 178.402 19.7479 177.07 19.4359C175.519 20.4179 175.711 21.7909 174.653 23.1459C173.951 24.0449 173.591 23.9859 172.572 24.1629C171.466 23.5109 170.711 23.0889 170.264 21.7759C169.836 20.5199 170.273 19.7239 170.757 18.6019C172.136 17.3589 173.659 16.8549 175.524 16.9389C177.424 17.0249 179.189 17.8509 180.419 19.3139C182.44 21.7169 181.987 24.6359 181.799 27.5309L179.741 28.1169Z" fill="#BC9E68"/>
<path d="M145.71 26.5299C145.891 25.9149 146.098 25.3009 146.26 24.6799C146.798 22.6189 147.624 21.0259 148.715 19.2169C149.877 17.2919 150.999 15.7219 153.312 15.1799C155.498 14.6689 157.28 14.4699 159.259 15.7169C159.817 16.0679 160.384 16.399 160.95 16.736C161.422 19.216 161.91 21.2939 160.36 23.5379C157.849 27.1729 151.261 27.8319 150.392 29.2949L149.551 30.0899C147.743 29.2129 146.046 28.2389 144.334 27.1859L145.71 26.5299Z" fill="#BEA158"/>
<path d="M181.799 27.531C184.779 25.806 190.009 23.702 193.421 24.496C193.647 24.548 193.87 24.612 194.089 24.688C194.308 24.764 194.523 24.8514 194.732 24.95C194.942 25.0494 195.146 25.1593 195.344 25.28C195.542 25.4006 195.733 25.532 195.917 25.674C196.1 25.8154 196.276 25.966 196.444 26.126C196.611 26.2867 196.77 26.4557 196.919 26.633C197.068 26.8103 197.208 26.9953 197.338 27.188C197.467 27.3807 197.586 27.5797 197.694 27.785C198.434 29.212 198.61 30.824 198.112 32.362C197.546 34.111 196.104 35.541 194.438 36.273C192.051 37.321 189.356 36.761 187.055 35.763C185.227 34.97 179.903 30.89 178.382 31.287C177.673 31.472 176.938 31.912 176.287 32.248L176.006 31.521L179.741 28.117L181.799 27.531Z" fill="#BEA158"/>
<path d="M149.551 30.0899L150.392 29.2949C158.716 32.3469 167.423 35.4419 176.006 31.5209L176.287 32.2479C172.734 34.6159 169.224 35.0019 165.07 35.0159C167.119 36.3189 169.148 37.629 170.921 39.299C173.405 41.637 175.937 45.0079 175.931 48.5819C175.928 50.1599 175.415 51.6699 174.25 52.7659C173.212 53.7419 171.785 54.2149 170.372 54.1769C168.149 54.1169 166.195 52.8929 164.717 51.3029C160.464 46.7269 159.752 40.019 159.944 34.08C156.455 32.836 153.007 31.4259 149.551 30.0899Z" fill="#BEA158"/>
<path d="M128.911 12.1169C133.8 17.7259 139.572 22.3649 145.71 26.5299L144.334 27.1859C142.154 25.7166 139.983 24.2339 137.822 22.7379C138.525 26.1129 139.064 29.3799 138.718 32.8359C138.393 36.0849 137.261 39.5659 134.583 41.6379C132.846 42.9809 130.694 43.571 128.52 43.218C128.286 43.1813 128.054 43.1326 127.825 43.072C127.595 43.012 127.37 42.94 127.148 42.856C126.926 42.772 126.709 42.6769 126.497 42.5709C126.285 42.4643 126.079 42.3472 125.879 42.2199C125.679 42.0926 125.487 41.9553 125.301 41.8079C125.115 41.6599 124.937 41.5033 124.768 41.338C124.598 41.172 124.438 40.9976 124.286 40.8149C124.134 40.6329 123.993 40.4432 123.861 40.2459C122.588 38.3339 122.394 35.9309 122.854 33.7269C124.154 27.4869 129.704 23.008 134.769 19.757C132.425 17.819 129.403 15.6169 128.14 12.7689L128.911 12.1169Z" fill="#BEA158"/>
<path d="M107.726 11.572C83.905 11.313 60.054 11.522 36.23 11.514C27.043 11.511 7.647 12.769 0 10.505L0.356995 10.198C10.393 9.62502 20.522 9.87804 30.573 9.86904C48.485 9.76571 66.397 9.78335 84.309 9.92202C99.472 9.91102 231.653 8.86799 235.515 10.426L235.081 10.907C231.21 12.382 175.266 11.492 166.116 11.589C164.559 12.029 159.182 12.649 158.313 13.539L158.757 13.903C159.817 14.78 160.615 15.335 160.95 16.736C160.384 16.399 159.817 16.068 159.259 15.717C157.28 14.47 155.498 14.669 153.312 15.18C150.999 15.722 149.877 17.292 148.715 19.217C147.624 21.026 146.798 22.619 146.26 24.68C146.098 25.301 145.891 25.915 145.71 26.53C139.572 22.365 133.8 17.726 128.911 12.117L128.14 12.769L127.594 11.818C121.776 10.659 114.547 11.49 108.56 11.553C107.031 14.729 104.762 16.895 102.133 19.18L101.063 18.385C103.464 16.215 105.678 14.093 107.726 11.572Z" fill="#AF8C5B"/>
<path d="M128.911 12.117C130.543 10.693 161.581 11.566 166.116 11.589C164.559 12.029 159.182 12.649 158.313 13.539L158.757 13.903C159.817 14.78 160.615 15.335 160.95 16.736C160.384 16.399 159.817 16.068 159.259 15.717C157.28 14.47 155.498 14.669 153.312 15.18C150.999 15.722 149.877 17.292 148.715 19.217C147.624 21.026 146.798 22.619 146.26 24.68C146.098 25.301 145.891 25.915 145.71 26.53C139.572 22.365 133.8 17.726 128.911 12.117Z" fill="#DDC2D4"/>
<path d="M86.0868 28.949C84.4618 28.483 82.8068 28.027 81.2198 27.443C78.8288 26.565 76.4358 24.772 75.4648 22.357C75.3954 22.185 75.3351 22.0097 75.2838 21.831C75.2318 21.653 75.1891 21.4727 75.1558 21.29C75.1224 21.1073 75.0984 20.9233 75.0838 20.738C75.0691 20.5533 75.0638 20.368 75.0678 20.182C75.0718 19.9967 75.0854 19.8117 75.1088 19.6271C75.1314 19.4431 75.1634 19.2607 75.2048 19.0801C75.2461 18.8987 75.2964 18.72 75.3558 18.544C75.4158 18.368 75.4841 18.1957 75.5608 18.027C75.6421 17.851 75.7321 17.6794 75.8308 17.5121C75.9301 17.3454 76.0374 17.1844 76.1528 17.029C76.2688 16.873 76.3924 16.7237 76.5238 16.581C76.6551 16.4384 76.7934 16.3027 76.9388 16.174C77.0841 16.046 77.2358 15.9257 77.3938 15.813C77.5511 15.7004 77.7144 15.596 77.8838 15.5C78.0524 15.4047 78.2254 15.3183 78.4028 15.241C78.5808 15.163 78.7621 15.0947 78.9468 15.036C80.7828 14.463 82.7958 14.891 84.4108 15.87C88.1628 18.146 89.7468 22.8351 90.6848 26.8611C94.1958 24.0931 97.7068 21.341 101.063 18.385L102.133 19.18C103.505 23.179 118.023 29.262 112.585 40.152C111.849 41.626 110.624 42.825 109.029 43.32C107.005 43.948 104.921 43.485 103.131 42.433C100.466 40.866 98.7368 38.1271 97.9978 35.1711C96.9568 31.0111 97.7618 26.769 98.5748 22.643C90.1308 27.822 85.7808 30.527 76.3158 33.974C76.2488 40.237 75.6588 47.242 70.8578 51.871C69.4208 53.256 67.5278 54.2811 65.4878 54.2391C63.9548 54.2081 62.5488 53.552 61.5738 52.362C60.4278 50.961 60.1888 49.088 60.4848 47.345C61.3928 42.018 66.6198 38.033 70.7708 35.173C65.4988 34.91 61.6948 33.497 57.1728 30.837C53.5108 33.785 49.1838 36.68 44.2328 36.191C41.9728 35.967 39.6958 35.111 38.1638 33.37C37.3338 32.426 36.7988 31.158 36.9648 29.886C37.1828 28.206 38.3748 26.9381 39.7228 26.0251C41.6438 24.7241 43.4548 24.2081 45.7918 24.6531C48.4838 25.1661 51.4288 26.703 54.1558 26.452C54.7478 25.679 54.5938 24.736 54.5858 23.81L55.6138 24.794C55.7218 25.563 55.8358 26.384 56.1418 27.104C57.1298 29.428 59.8258 31.5751 62.1218 32.4291C69.9198 35.3311 78.9288 32.233 86.0868 28.949Z" fill="#BEA158"/>
</svg>
