<svg width="128" height="71" viewBox="0 0 128 71" fill="none" xmlns="http://www.w3.org/2000/svg">
<path d="M68.5919 5.74194C72.0669 8.10794 74.0709 10.563 74.8239 14.791C75.3929 17.989 74.8439 21.4639 72.9689 24.1549C71.4419 26.3469 69.5809 27.3109 67.0739 27.9669C67.5059 27.5379 68.1619 27.0909 68.2889 26.4959C66.6249 26.6519 65.6629 26.5869 64.0879 26.0389C63.9479 25.9899 63.8089 25.9369 63.6699 25.8869C66.1529 25.8149 67.8849 25.7519 69.9529 24.174C71.8429 22.7309 72.7999 20.8559 73.0319 18.5049C73.4189 14.5659 71.9079 11.284 69.4099 8.37695L69.7129 7.94693L68.5919 5.74194Z" fill="#FDF3FE"/>
<path d="M67.074 27.9669C64.497 28.2039 60.6241 27.679 58.4581 26.174C57.6591 25.619 57.109 24.8189 56.967 23.8449C56.767 22.4839 57.294 21.0969 58.109 20.0259C59.037 18.8039 60.147 18.1279 61.657 17.9399C62.496 18.3429 62.901 18.407 63.31 19.295C63.825 20.412 63.884 21.8649 63.4 22.9919C63.298 23.2299 63.1981 23.469 63.1111 23.713L62.979 24.0949L62.7641 24.6899L63.67 25.8869C63.809 25.9369 63.948 25.9899 64.088 26.0389C65.663 26.5869 66.625 26.6519 68.289 26.4959C68.162 27.0909 67.506 27.5379 67.074 27.9669Z" fill="#FFFEFF"/>
<path d="M6.78479 9.10995C7.72629 10.488 8.66559 11.779 9.77349 13.032L10.4527 12.9669C10.867 11.9259 11.1901 10.908 11.4789 9.82495C12.5509 8.92695 12.7997 8.87495 14.1939 8.66895C14.8483 8.86195 15.5226 9.02993 16.0189 9.52493C16.6562 10.1609 16.9365 10.7879 16.9111 11.6899C16.8777 12.8789 15.9723 14.1069 15.103 14.8449C14.9602 14.9663 14.8114 15.0799 14.6566 15.1859C14.5018 15.2913 14.3418 15.3883 14.1767 15.4769C14.0116 15.5663 13.8423 15.6463 13.6688 15.7169C13.4953 15.7876 13.3185 15.8489 13.1385 15.9009C12.9585 15.9536 12.7762 15.9963 12.5917 16.0289C12.4072 16.0616 12.2214 16.0846 12.0345 16.0979C11.8475 16.1113 11.6603 16.1146 11.473 16.1079C11.2857 16.1013 11.0993 16.0849 10.9137 16.0589C9.0952 15.7859 7.5245 14.4729 6.5175 12.9899C6.40316 12.8239 6.29763 12.6526 6.20089 12.476C6.10409 12.2993 6.01666 12.1179 5.93859 11.9319C5.86046 11.7466 5.79209 11.5576 5.73349 11.3649C5.67483 11.1716 5.6262 10.9763 5.5876 10.7789C5.54906 10.5809 5.52076 10.3816 5.5027 10.1809C5.48463 9.98027 5.47689 9.77928 5.47949 9.57794C5.48209 9.37661 5.495 9.17561 5.5182 8.97495C5.54147 8.77495 5.57493 8.57661 5.61859 8.37994C6.12539 6.02894 8.12419 4.28494 10.0635 3.06494L10.4519 4.03595L11.5511 4.40793C9.4494 5.65493 8.23479 7.17795 6.78479 9.10995Z" fill="#FFFEFF"/>
<path d="M29.4816 30.654C24.039 29.672 18.3016 29.686 13.355 32.446C8.99844 34.876 5.84213 39.201 4.59463 44.009C3.74283 47.291 3.65484 51.241 5.51654 54.211C6.79214 56.246 8.90943 57.456 11.2334 57.887C14.225 58.442 17.4622 58.022 19.9847 56.253C21.3981 55.263 22.6698 53.851 22.8925 52.071C23.0645 50.697 22.6353 49.411 21.7468 48.385C19.6043 48.938 18.8155 51.675 16.4747 52.503C15.1785 52.379 14.4678 52.096 13.4036 51.349C13.0568 50.524 12.7704 50.154 12.9554 49.249C13.2658 47.73 14.2829 46.671 15.564 45.859C17.1041 44.883 19.0606 44.357 20.8644 44.8C22.6687 45.242 24.0672 46.557 24.9233 48.174C25.6026 49.458 26.0705 51.279 25.5676 52.699C24.6034 55.421 22.1511 57.972 19.5597 59.147C16.4934 60.537 12.7477 60.194 9.69094 58.972C9.2186 58.7807 8.75694 58.5663 8.30593 58.329C7.855 58.0923 7.417 57.8333 6.99193 57.552C6.5668 57.2713 6.15677 56.97 5.76184 56.648C5.3669 56.326 4.98897 55.985 4.62803 55.625C4.2671 55.265 3.925 54.888 3.60173 54.494C3.27847 54.1 2.97563 53.691 2.69323 53.267C2.41083 52.843 2.1503 52.4057 1.91163 51.955C1.6729 51.505 1.4572 51.044 1.26454 50.572C1.05 50.0406 0.862204 49.5003 0.701137 48.951C0.540004 48.401 0.406401 47.8447 0.300334 47.282C0.194334 46.7187 0.116333 46.1516 0.0663333 45.581C0.0163333 45.0103 -0.00540082 44.4387 0.00113252 43.866C0.00773252 43.2927 0.0425332 42.7213 0.105533 42.152C0.1686 41.5827 0.259602 41.018 0.378536 40.458C0.497469 39.8973 0.643733 39.344 0.817333 38.798C0.990933 38.252 1.19107 37.716 1.41774 37.19C3.42034 32.64 7.28213 29.526 11.8529 27.756C19.1483 24.931 25.0533 26.318 31.9321 29.276L32.0951 30.352C31.2241 30.567 30.3721 30.604 29.4816 30.654Z" fill="#FFFEFF"/>
<path d="M10.0635 3.065C12.3818 1.6 14.7104 0.73 17.348 0C23.5019 1.607 27.2214 4.212 30.4691 9.784C36.5351 20.189 36.4791 28.835 46.6161 37.498C42.8551 31.205 38.7311 26.435 40.6331 18.664C41.8391 13.737 45.3871 9.81802 49.6901 7.30002C54.4131 4.53702 60.0361 3.11602 65.4191 4.53702C66.5211 4.82802 67.5581 5.27 68.5921 5.742L69.7131 7.94699L69.4101 8.37701C64.9701 6.00201 61.4941 5.34501 56.5761 6.89301C51.6461 8.44501 46.8521 11.757 44.4701 16.448C42.8041 19.729 42.4091 23.492 43.5551 27.005C45.8201 33.941 53.5751 39.081 59.7791 42.128C68.5651 46.444 78.6991 47.676 88.4011 47.128C83.7031 45.258 78.6481 43.094 76.5221 38.107C76.3874 37.7877 76.2694 37.4623 76.1681 37.131C76.0667 36.7997 75.9827 36.464 75.9161 36.124C75.8487 35.784 75.7994 35.4417 75.7681 35.097C75.7361 34.7517 75.7217 34.4057 75.7251 34.059C75.7284 33.713 75.7494 33.3677 75.7881 33.023C75.8261 32.679 75.8821 32.3377 75.9561 31.999C76.0294 31.6603 76.1201 31.3263 76.2281 30.997C76.3354 30.6677 76.4594 30.3447 76.6001 30.028C77.7991 27.317 80.1511 25.395 82.9281 24.454C85.5541 23.565 88.8851 23.277 91.4061 24.573C91.6134 24.6817 91.8147 24.801 92.0101 24.931C92.2047 25.061 92.3921 25.2013 92.5721 25.352C92.7521 25.502 92.9234 25.6614 93.0861 25.83C93.2487 25.9987 93.4017 26.1757 93.5451 26.361C93.6891 26.5457 93.8227 26.7377 93.9461 26.937C94.0694 27.137 94.1814 27.3427 94.2821 27.554C94.3834 27.7654 94.4731 27.9813 94.5511 28.202C94.6291 28.4233 94.6951 28.648 94.7491 28.876C95.1501 30.515 94.9611 32.73 93.8651 34.091C93.2681 34.832 92.4721 35.302 91.5181 35.356C90.0291 35.44 88.1671 34.393 87.0381 33.523C86.7711 32.832 86.5271 32.681 86.8151 31.95C87.5921 29.978 91.1241 29.097 90.9811 26.96C89.5591 26.092 87.8431 25.828 86.2011 26.174C84.1071 26.615 82.5721 28.011 81.5031 29.81C80.1801 32.036 79.7451 34.961 80.3791 37.462C81.1351 40.443 83.2231 42.264 85.8181 43.659C90.4881 46.168 95.6201 46.189 100.608 44.662C110.613 41.598 118.176 34.693 127.227 31.371C118.185 42.156 98.1091 49.686 84.2301 50.875C81.0921 51.143 77.9071 51.255 74.7661 50.984C67.7791 50.383 58.4751 47.536 53.2331 53.838C51.3541 56.098 50.5271 58.539 49.9401 61.373C50.5391 63.435 51.1691 66.753 53.2281 67.889C55.1421 68.945 58.3091 68.94 60.3541 68.234C61.1021 67.975 61.6711 67.52 62.2431 66.992L62.7041 65.732C61.4691 64.397 57.1431 66.006 57.5931 63.081C57.7941 61.774 58.4411 60.775 59.5891 60.124C60.5851 59.559 62.3021 59.224 63.4061 59.634C64.5451 60.058 65.4281 60.852 65.8301 62.011C66.3751 63.579 65.8381 65.987 64.9971 67.357C63.8721 69.188 61.9011 70.231 59.8321 70.604C59.4347 70.6767 59.0344 70.729 58.6311 70.761C58.2284 70.7937 57.8251 70.8057 57.4211 70.797C57.0171 70.7883 56.6144 70.759 56.2131 70.709C55.8117 70.6597 55.4141 70.5903 55.0201 70.501C54.6261 70.411 54.2377 70.3013 53.8551 70.172C53.4717 70.0433 53.0961 69.8953 52.7281 69.728C52.3601 69.5607 52.0014 69.3753 51.6521 69.172C51.3027 68.9687 50.9647 68.748 50.6381 68.51C48.4301 66.911 46.7481 64.564 46.2811 61.847C45.8411 59.293 46.5671 56.477 48.0711 54.368C51.1911 49.991 55.9071 48.883 60.8501 47.843C57.7991 46.47 54.7231 45.112 51.8971 43.307C44.2681 38.437 38.4941 33.03 29.4816 30.654C30.3721 30.604 31.2241 30.567 32.0951 30.352L31.9321 29.276C33.8721 30.132 35.9431 30.786 37.9381 31.511C32.6951 24.084 29.7181 13.589 22.688 7.71399C19.2745 4.86099 15.921 3.99799 11.5511 4.40799L10.4519 4.03601L10.0635 3.065Z" fill="#FFFEFF"/>
</svg>
